<?xml version="1.0" encoding="utf-8" standalone="no"?>
<!DOCTYPE svg PUBLIC "-//W3C//DTD SVG 1.1//EN"
  "http://www.w3.org/Graphics/SVG/1.1/DTD/svg11.dtd">
<svg xmlns:xlink="http://www.w3.org/1999/xlink" width="566.536094pt" height="349.309375pt" viewBox="0 0 566.536094 349.309375" xmlns="http://www.w3.org/2000/svg" version="1.1">
 <metadata>
  <rdf:RDF xmlns:dc="http://purl.org/dc/elements/1.1/" xmlns:cc="http://creativecommons.org/ns#" xmlns:rdf="http://www.w3.org/1999/02/22-rdf-syntax-ns#">
   <cc:Work>
    <dc:type rdf:resource="http://purl.org/dc/dcmitype/StillImage"/>
    <dc:date>2026-03-10T20:16:59.110112</dc:date>
    <dc:format>image/svg+xml</dc:format>
    <dc:creator>
     <cc:Agent>
      <dc:title>Matplotlib v3.10.3, https://matplotlib.org/</dc:title>
     </cc:Agent>
    </dc:creator>
   </cc:Work>
  </rdf:RDF>
 </metadata>
 <defs>
  <style type="text/css">*{stroke-linejoin: round; stroke-linecap: butt}</style>
 </defs>
 <g id="figure_1">
  <g id="patch_1">
   <path d="M 0 349.309375 
L 566.536094 349.309375 
L 566.536094 0 
L 0 0 
z
" style="fill: #ffffff"/>
  </g>
  <g id="axes_1">
   <g id="patch_2">
    <path d="M 45.883594 325.8125 
L 559.336094 325.8125 
L 559.336094 21.7425 
L 45.883594 21.7425 
z
" style="fill: #ffffff"/>
   </g>
   <g id="matplotlib.axis_1">
    <g id="xtick_1">
     <g id="line2d_1">
      <defs>
       <path id="m8da9ad98cf" d="M 0 0 
L 0 3.5 
" style="stroke: #000000; stroke-width: 0.8"/>
      </defs>
      <g>
       <use xlink:href="#m8da9ad98cf" x="113.376736" y="325.8125" style="stroke: #000000; stroke-width: 0.8"/>
      </g>
     </g>
     <g id="text_1">
      <!-- 准确率 -->
      <g transform="translate(98.376736 339.892188) scale(0.1 -0.1)">
       <defs>
        <path id="SimSun-51c6" d="M 2575 -600 
Q 2600 300 2600 550 
L 2600 3375 
Q 2200 2725 1675 2200 
L 1600 2250 
Q 2100 2950 2462 3812 
Q 2825 4675 2925 5175 
L 3450 4850 
L 3250 4725 
Q 3025 4275 2875 3950 
L 5175 3950 
L 5525 4300 
L 6025 3800 
L 4450 3800 
L 4450 2775 
L 5000 2775 
L 5325 3100 
L 5800 2625 
L 4450 2625 
L 4450 1450 
L 5100 1450 
L 5425 1775 
L 5900 1300 
L 4450 1300 
L 4450 100 
L 5250 100 
L 5600 450 
L 6100 -50 
L 2950 -50 
L 2950 -425 
L 2575 -600 
z
M 4100 3800 
L 2950 3800 
L 2950 2775 
L 4100 2775 
L 4100 3800 
z
M 2950 2625 
L 2950 1450 
L 4100 1450 
L 4100 2625 
L 2950 2625 
z
M 2950 1300 
L 2950 100 
L 4100 100 
L 4100 1300 
L 2950 1300 
z
M 3875 5150 
L 3950 5200 
Q 4675 4725 4650 4500 
Q 4625 4275 4525 4187 
Q 4425 4100 4375 4100 
Q 4275 4100 4250 4350 
Q 4175 4675 3875 5150 
z
M 500 4875 
Q 1350 4375 1337 4137 
Q 1325 3900 1225 3787 
Q 1125 3675 1075 3675 
Q 1000 3675 925 3925 
Q 825 4275 450 4825 
L 500 4875 
z
M 300 1825 
Q 625 1825 862 1887 
Q 1100 1950 2100 4500 
L 2200 4475 
Q 1750 3150 1500 2450 
Q 1225 1750 1200 1137 
Q 1175 525 1200 175 
Q 1200 -200 1012 -137 
Q 825 -75 750 37 
Q 675 150 675 300 
Q 675 450 700 550 
Q 775 850 825 1100 
Q 875 1350 787 1500 
Q 700 1650 300 1725 
L 300 1825 
z
" transform="scale(0.015625)"/>
        <path id="SimSun-786e" d="M 3625 4300 
Q 3350 3925 3075 3575 
L 3400 3375 
L 4250 3375 
L 4750 4300 
L 3625 4300 
z
M 3675 5250 
L 4175 4925 
L 3950 4850 
Q 3825 4675 3700 4450 
L 4725 4450 
L 4950 4700 
L 5375 4275 
Q 5000 4250 4400 3375 
L 5350 3375 
L 5525 3625 
L 5900 3350 
L 5725 3175 
L 5725 25 
Q 5750 -375 5275 -575 
Q 5250 -250 4650 -125 
L 4650 -25 
Q 4950 -50 5150 -50 
Q 5275 -50 5337 -25 
Q 5400 0 5400 150 
L 5400 1200 
L 4525 1200 
L 4525 -275 
L 4225 -450 
L 4225 1200 
L 3325 1200 
Q 3250 625 2962 175 
Q 2675 -275 2150 -625 
L 2100 -575 
Q 2575 -100 2800 425 
Q 3025 950 3037 1925 
Q 3050 2900 3050 3550 
Q 2775 3225 2500 2975 
L 2425 3025 
Q 2800 3475 3137 4062 
Q 3475 4650 3675 5250 
z
M 3375 3225 
L 3375 2350 
L 4225 2350 
L 4225 3225 
L 3375 3225 
z
M 4525 3225 
L 4525 2350 
L 5400 2350 
L 5400 3225 
L 4525 3225 
z
M 3375 2200 
L 3350 1350 
L 4225 1350 
L 4225 2200 
L 3375 2200 
z
M 4525 2200 
L 4525 1350 
L 5400 1350 
L 5400 2200 
L 4525 2200 
z
M 1250 2625 
L 1250 850 
L 2025 850 
L 2025 2625 
L 1250 2625 
z
M 925 -125 
Q 950 675 950 2275 
Q 650 1750 300 1400 
L 250 1450 
Q 950 2550 1325 4250 
L 1175 4250 
Q 850 4250 575 4175 
L 350 4400 
L 2150 4400 
L 2475 4700 
L 2875 4250 
L 1725 4250 
Q 1475 3525 1200 2775 
L 2000 2775 
L 2175 3000 
L 2550 2700 
L 2350 2550 
Q 2350 1200 2375 475 
L 2025 325 
L 2025 700 
L 1250 700 
L 1250 25 
L 925 -125 
z
" transform="scale(0.015625)"/>
        <path id="SimSun-7387" d="M 875 3725 
L 925 3800 
Q 1375 3650 1550 3525 
Q 1725 3400 1725 3250 
Q 1725 3175 1662 3025 
Q 1600 2875 1550 2875 
Q 1500 2875 1425 3050 
Q 1275 3325 875 3725 
z
M 550 1850 
Q 875 1925 2000 2575 
L 2050 2500 
Q 1675 2225 1337 1937 
Q 1000 1650 875 1425 
L 550 1850 
z
M 5200 3450 
Q 4800 3150 4275 2800 
L 4225 2875 
Q 4775 3400 5050 3925 
L 5450 3525 
L 5200 3450 
z
M 4325 2500 
L 4350 2575 
Q 5225 2350 5375 2212 
Q 5525 2075 5525 1900 
Q 5525 1775 5487 1662 
Q 5450 1550 5400 1550 
Q 5325 1550 5200 1800 
Q 4975 2150 4325 2500 
z
M 3150 3900 
Q 2500 3300 2300 3150 
Q 2800 3150 3400 3175 
Q 3700 3500 3850 3825 
L 4250 3450 
Q 4050 3400 3450 2825 
Q 2850 2250 2475 1950 
Q 3150 1975 3850 2000 
Q 3750 2175 3550 2450 
L 3600 2500 
Q 4050 2250 4200 2100 
Q 4350 1950 4350 1850 
Q 4350 1775 4250 1625 
Q 4150 1475 4100 1475 
Q 4075 1475 4050 1550 
Q 4000 1700 3900 1900 
Q 3650 1875 3075 1800 
L 3500 1550 
L 3325 1425 
L 3325 975 
L 5325 975 
L 5650 1300 
L 6100 825 
L 3325 825 
Q 3325 -275 3350 -525 
L 2975 -650 
Q 3000 0 3000 825 
L 1125 825 
Q 800 825 525 750 
L 300 975 
L 3000 975 
L 3000 1775 
Q 2450 1700 2200 1525 
L 1950 1950 
Q 2275 1950 2675 2350 
Q 3075 2750 3325 3050 
Q 2400 2950 2150 2775 
L 1950 3175 
Q 2150 3150 2475 3575 
Q 2800 4000 2900 4225 
L 1450 4225 
Q 1125 4225 850 4150 
L 625 4375 
L 3100 4375 
Q 3050 4800 2675 5200 
L 2725 5250 
Q 3225 5050 3337 4912 
Q 3450 4775 3450 4700 
Q 3450 4550 3250 4375 
L 5025 4375 
L 5350 4675 
L 5775 4225 
L 3050 4225 
L 3375 3950 
L 3150 3900 
z
" transform="scale(0.015625)"/>
       </defs>
       <use xlink:href="#SimSun-51c6"/>
       <use xlink:href="#SimSun-786e" transform="translate(100 0)"/>
       <use xlink:href="#SimSun-7387" transform="translate(200 0)"/>
      </g>
     </g>
    </g>
    <g id="xtick_2">
     <g id="line2d_2">
      <g>
       <use xlink:href="#m8da9ad98cf" x="239.532141" y="325.8125" style="stroke: #000000; stroke-width: 0.8"/>
      </g>
     </g>
     <g id="text_2">
      <!-- 精确率 -->
      <g transform="translate(224.532141 339.970313) scale(0.1 -0.1)">
       <defs>
        <path id="SimSun-7cbe" d="M 3500 2050 
L 3500 1550 
L 5125 1550 
L 5125 2050 
L 3500 2050 
z
M 3500 1400 
L 3500 850 
L 5125 850 
L 5125 1400 
L 3500 1400 
z
M 2875 4400 
L 4150 4400 
Q 4150 5025 4125 5275 
L 4675 5050 
L 4475 4850 
L 4475 4400 
L 5225 4400 
L 5500 4675 
L 5900 4250 
L 4475 4250 
L 4475 3625 
L 5075 3625 
L 5325 3875 
L 5700 3475 
L 4475 3475 
L 4475 2825 
L 5400 2825 
L 5675 3100 
L 6075 2675 
L 3525 2675 
Q 3200 2675 2925 2600 
L 2700 2825 
L 4150 2825 
L 4150 3475 
L 3875 3475 
Q 3550 3475 3275 3400 
L 3050 3625 
L 4150 3625 
L 4150 4250 
L 3700 4250 
Q 3375 4250 3100 4175 
L 2875 4400 
z
M 3150 -650 
Q 3175 100 3175 1062 
Q 3175 2025 3150 2425 
L 3525 2200 
L 5075 2200 
L 5300 2425 
L 5650 2075 
L 5450 1950 
L 5450 -25 
Q 5450 -325 5350 -450 
Q 5250 -575 4975 -675 
Q 4900 -350 4275 -175 
L 4275 -75 
Q 4900 -175 5012 -162 
Q 5125 -150 5125 0 
L 5125 700 
L 3500 700 
L 3500 -500 
L 3150 -650 
z
M 2800 4300 
L 2600 4225 
Q 2200 3650 1900 3325 
L 1850 3375 
Q 2225 4100 2350 4625 
L 2800 4300 
z
M 525 4525 
Q 975 4150 1087 3975 
Q 1200 3800 1150 3625 
Q 1100 3450 962 3387 
Q 825 3325 800 3625 
Q 775 3900 475 4475 
L 525 4525 
z
M 1425 4075 
Q 1425 4875 1400 5200 
L 1975 4950 
L 1750 4750 
L 1750 3050 
L 2100 3050 
L 2375 3325 
L 2775 2900 
L 1750 2900 
L 1750 2450 
Q 2525 2100 2562 1837 
Q 2600 1575 2512 1500 
Q 2425 1425 2400 1425 
Q 2300 1425 2200 1700 
Q 2050 2050 1750 2325 
L 1750 525 
Q 1750 0 1775 -425 
L 1400 -625 
Q 1425 -50 1425 2000 
Q 1025 1025 300 300 
L 250 375 
Q 650 975 912 1575 
Q 1175 2175 1350 2900 
L 1125 2900 
Q 800 2900 525 2825 
L 300 3050 
L 1425 3050 
L 1425 4075 
z
" transform="scale(0.015625)"/>
       </defs>
       <use xlink:href="#SimSun-7cbe"/>
       <use xlink:href="#SimSun-786e" transform="translate(100 0)"/>
       <use xlink:href="#SimSun-7387" transform="translate(200 0)"/>
      </g>
     </g>
    </g>
    <g id="xtick_3">
     <g id="line2d_3">
      <g>
       <use xlink:href="#m8da9ad98cf" x="365.687546" y="325.8125" style="stroke: #000000; stroke-width: 0.8"/>
      </g>
     </g>
     <g id="text_3">
      <!-- 召回率 -->
      <g transform="translate(350.687546 339.892188) scale(0.1 -0.1)">
       <defs>
        <path id="SimSun-53ec" d="M 950 4700 
L 4950 4700 
L 5150 5000 
L 5575 4675 
L 5350 4475 
Q 5150 3000 5037 2762 
Q 4925 2525 4737 2400 
Q 4550 2275 4250 2200 
Q 4300 2550 3500 2850 
L 3525 2950 
Q 4200 2800 4362 2787 
Q 4525 2775 4637 2925 
Q 4750 3075 4975 4550 
L 3050 4550 
Q 2850 3600 2337 2912 
Q 1825 2225 575 1650 
L 500 1725 
Q 1675 2375 2075 3087 
Q 2475 3800 2625 4550 
L 1775 4550 
Q 1450 4550 1175 4475 
L 950 4700 
z
M 2200 1825 
L 2200 225 
L 4800 225 
L 4800 1825 
L 2200 1825 
z
M 1825 -475 
Q 1875 100 1862 887 
Q 1850 1675 1825 2200 
L 2200 1975 
L 4750 1975 
L 4950 2250 
L 5375 1925 
L 5150 1725 
Q 5150 325 5175 -225 
L 4800 -375 
L 4800 75 
L 2200 75 
L 2200 -325 
L 1825 -475 
z
" transform="scale(0.015625)"/>
        <path id="SimSun-56de" d="M 2450 3200 
L 2450 1800 
L 3925 1800 
L 3925 3200 
L 2450 3200 
z
M 2100 1100 
Q 2125 1650 2125 2312 
Q 2125 2975 2100 3575 
L 2475 3350 
L 3900 3350 
L 4075 3575 
L 4475 3300 
L 4275 3125 
Q 4275 1750 4300 1350 
L 3925 1200 
L 3925 1650 
L 2450 1650 
L 2450 1250 
L 2100 1100 
z
M 5500 4475 
L 5500 1075 
Q 5500 500 5525 -250 
L 5175 -400 
L 5175 100 
L 1250 100 
L 1250 -375 
L 875 -525 
Q 900 150 900 2200 
Q 900 4250 875 4925 
L 1250 4700 
L 5150 4700 
L 5300 4950 
L 5700 4675 
L 5500 4475 
z
M 1250 4550 
L 1250 250 
L 5175 250 
L 5175 4550 
L 1250 4550 
z
" transform="scale(0.015625)"/>
       </defs>
       <use xlink:href="#SimSun-53ec"/>
       <use xlink:href="#SimSun-56de" transform="translate(100 0)"/>
       <use xlink:href="#SimSun-7387" transform="translate(200 0)"/>
      </g>
     </g>
    </g>
    <g id="xtick_4">
     <g id="line2d_4">
      <g>
       <use xlink:href="#m8da9ad98cf" x="491.842952" y="325.8125" style="stroke: #000000; stroke-width: 0.8"/>
      </g>
     </g>
     <g id="text_4">
      <!-- F1值 -->
      <g transform="translate(481.562483 339.853125) scale(0.1 -0.1)">
       <defs>
        <path id="TimesNewRomanPSMT-46" d="M 1309 4006 
L 1309 2341 
L 2081 2341 
Q 2347 2341 2470 2458 
Q 2594 2575 2634 2922 
L 2750 2922 
L 2750 1488 
L 2634 1488 
Q 2631 1734 2570 1850 
Q 2509 1966 2401 2023 
Q 2294 2081 2081 2081 
L 1309 2081 
L 1309 750 
Q 1309 428 1350 325 
Q 1381 247 1481 191 
Q 1619 116 1769 116 
L 1922 116 
L 1922 0 
L 103 0 
L 103 116 
L 253 116 
Q 516 116 634 269 
Q 709 369 709 750 
L 709 3488 
Q 709 3809 669 3913 
Q 638 3991 541 4047 
Q 406 4122 253 4122 
L 103 4122 
L 103 4238 
L 3256 4238 
L 3297 3306 
L 3188 3306 
Q 3106 3603 2998 3742 
Q 2891 3881 2733 3943 
Q 2575 4006 2244 4006 
L 1309 4006 
z
" transform="scale(0.015625)"/>
        <path id="TimesNewRomanPSMT-31" d="M 750 3822 
L 1781 4325 
L 1884 4325 
L 1884 747 
Q 1884 391 1914 303 
Q 1944 216 2037 169 
Q 2131 122 2419 116 
L 2419 0 
L 825 0 
L 825 116 
Q 1125 122 1212 167 
Q 1300 213 1334 289 
Q 1369 366 1369 747 
L 1369 3034 
Q 1369 3497 1338 3628 
Q 1316 3728 1258 3775 
Q 1200 3822 1119 3822 
Q 1003 3822 797 3725 
L 750 3822 
z
" transform="scale(0.015625)"/>
        <path id="SimSun-503c" d="M 1525 650 
Q 1525 -225 1550 -525 
L 1175 -650 
Q 1200 250 1200 550 
L 1200 3025 
Q 750 2300 325 1850 
L 250 1900 
Q 725 2625 1100 3525 
Q 1475 4425 1675 5200 
L 2200 4875 
L 1950 4725 
Q 1550 3800 1425 3475 
L 1725 3300 
L 1525 3150 
L 1525 650 
z
M 2875 3225 
L 2875 2475 
L 4800 2475 
L 4800 3225 
L 2875 3225 
z
M 2875 2325 
L 2875 1575 
L 4800 1575 
L 4800 2325 
L 2875 2325 
z
M 2875 1425 
L 2875 675 
L 4800 675 
L 4800 1425 
L 2875 1425 
z
M 2875 525 
L 2875 -225 
L 4800 -225 
L 4800 525 
L 2875 525 
z
M 3550 4250 
Q 3575 4825 3550 5225 
L 4125 4950 
L 3925 4800 
L 3900 4250 
L 5025 4250 
L 5350 4575 
L 5825 4100 
L 3900 4100 
L 3875 3375 
L 4750 3375 
L 4975 3625 
L 5350 3300 
L 5125 3150 
L 5125 -225 
L 5350 -225 
L 5675 100 
L 6150 -375 
L 2450 -375 
Q 2125 -375 1850 -450 
L 1625 -225 
L 2550 -225 
L 2550 2550 
Q 2550 2850 2525 3575 
L 2875 3375 
L 3525 3375 
L 3550 4100 
L 2800 4100 
Q 2475 4100 2200 4025 
L 1975 4250 
L 3550 4250 
z
" transform="scale(0.015625)"/>
       </defs>
       <use xlink:href="#TimesNewRomanPSMT-46"/>
       <use xlink:href="#TimesNewRomanPSMT-31" transform="translate(55.615234 0)"/>
       <use xlink:href="#SimSun-503c" transform="translate(105.615234 0)"/>
      </g>
     </g>
    </g>
   </g>
   <g id="matplotlib.axis_2">
    <g id="ytick_1">
     <g id="line2d_5">
      <path d="M 45.883594 307.926029 
L 559.336094 307.926029 
" clip-path="url(#pbf788a2799)" style="fill: none; stroke: #cccccc; stroke-opacity: 0.4; stroke-width: 0.6; stroke-linecap: square"/>
     </g>
     <g id="line2d_6">
      <defs>
       <path id="maf156100ca" d="M 0 0 
L -3.5 0 
" style="stroke: #000000; stroke-width: 0.8"/>
      </defs>
      <g>
       <use xlink:href="#maf156100ca" x="45.883594" y="307.926029" style="stroke: #000000; stroke-width: 0.8"/>
      </g>
     </g>
     <g id="text_5">
      <!-- 0.86 -->
      <g transform="translate(21.383594 311.397904) scale(0.1 -0.1)">
       <defs>
        <path id="TimesNewRomanPSMT-30" d="M 231 2094 
Q 231 2819 450 3342 
Q 669 3866 1031 4122 
Q 1313 4325 1613 4325 
Q 2100 4325 2488 3828 
Q 2972 3213 2972 2159 
Q 2972 1422 2759 906 
Q 2547 391 2217 158 
Q 1888 -75 1581 -75 
Q 975 -75 572 641 
Q 231 1244 231 2094 
z
M 844 2016 
Q 844 1141 1059 588 
Q 1238 122 1591 122 
Q 1759 122 1940 273 
Q 2122 425 2216 781 
Q 2359 1319 2359 2297 
Q 2359 3022 2209 3506 
Q 2097 3866 1919 4016 
Q 1791 4119 1609 4119 
Q 1397 4119 1231 3928 
Q 1006 3669 925 3112 
Q 844 2556 844 2016 
z
" transform="scale(0.015625)"/>
        <path id="TimesNewRomanPSMT-2e" d="M 800 606 
Q 947 606 1047 504 
Q 1147 403 1147 259 
Q 1147 116 1045 14 
Q 944 -88 800 -88 
Q 656 -88 554 14 
Q 453 116 453 259 
Q 453 406 554 506 
Q 656 606 800 606 
z
" transform="scale(0.015625)"/>
        <path id="TimesNewRomanPSMT-38" d="M 1228 2134 
Q 725 2547 579 2797 
Q 434 3047 434 3316 
Q 434 3728 753 4026 
Q 1072 4325 1600 4325 
Q 2113 4325 2425 4047 
Q 2738 3769 2738 3413 
Q 2738 3175 2569 2928 
Q 2400 2681 1866 2347 
Q 2416 1922 2594 1678 
Q 2831 1359 2831 1006 
Q 2831 559 2490 242 
Q 2150 -75 1597 -75 
Q 994 -75 656 303 
Q 388 606 388 966 
Q 388 1247 577 1523 
Q 766 1800 1228 2134 
z
M 1719 2469 
Q 2094 2806 2194 3001 
Q 2294 3197 2294 3444 
Q 2294 3772 2109 3958 
Q 1925 4144 1606 4144 
Q 1288 4144 1088 3959 
Q 888 3775 888 3528 
Q 888 3366 970 3203 
Q 1053 3041 1206 2894 
L 1719 2469 
z
M 1375 2016 
Q 1116 1797 991 1539 
Q 866 1281 866 981 
Q 866 578 1086 336 
Q 1306 94 1647 94 
Q 1984 94 2187 284 
Q 2391 475 2391 747 
Q 2391 972 2272 1150 
Q 2050 1481 1375 2016 
z
" transform="scale(0.015625)"/>
        <path id="TimesNewRomanPSMT-36" d="M 2869 4325 
L 2869 4209 
Q 2456 4169 2195 4045 
Q 1934 3922 1679 3669 
Q 1425 3416 1258 3105 
Q 1091 2794 978 2366 
Q 1428 2675 1881 2675 
Q 2316 2675 2634 2325 
Q 2953 1975 2953 1425 
Q 2953 894 2631 456 
Q 2244 -75 1606 -75 
Q 1172 -75 869 213 
Q 275 772 275 1663 
Q 275 2231 503 2743 
Q 731 3256 1154 3653 
Q 1578 4050 1965 4187 
Q 2353 4325 2688 4325 
L 2869 4325 
z
M 925 2138 
Q 869 1716 869 1456 
Q 869 1156 980 804 
Q 1091 453 1309 247 
Q 1469 100 1697 100 
Q 1969 100 2183 356 
Q 2397 613 2397 1088 
Q 2397 1622 2184 2012 
Q 1972 2403 1581 2403 
Q 1463 2403 1327 2353 
Q 1191 2303 925 2138 
z
" transform="scale(0.015625)"/>
       </defs>
       <use xlink:href="#TimesNewRomanPSMT-30"/>
       <use xlink:href="#TimesNewRomanPSMT-2e" transform="translate(50 0)"/>
       <use xlink:href="#TimesNewRomanPSMT-38" transform="translate(75 0)"/>
       <use xlink:href="#TimesNewRomanPSMT-36" transform="translate(125 0)"/>
      </g>
     </g>
    </g>
    <g id="ytick_2">
     <g id="line2d_7">
      <path d="M 45.883594 272.153088 
L 559.336094 272.153088 
" clip-path="url(#pbf788a2799)" style="fill: none; stroke: #cccccc; stroke-opacity: 0.4; stroke-width: 0.6; stroke-linecap: square"/>
     </g>
     <g id="line2d_8">
      <g>
       <use xlink:href="#maf156100ca" x="45.883594" y="272.153088" style="stroke: #000000; stroke-width: 0.8"/>
      </g>
     </g>
     <g id="text_6">
      <!-- 0.88 -->
      <g transform="translate(21.383594 275.624963) scale(0.1 -0.1)">
       <use xlink:href="#TimesNewRomanPSMT-30"/>
       <use xlink:href="#TimesNewRomanPSMT-2e" transform="translate(50 0)"/>
       <use xlink:href="#TimesNewRomanPSMT-38" transform="translate(75 0)"/>
       <use xlink:href="#TimesNewRomanPSMT-38" transform="translate(125 0)"/>
      </g>
     </g>
    </g>
    <g id="ytick_3">
     <g id="line2d_9">
      <path d="M 45.883594 236.380147 
L 559.336094 236.380147 
" clip-path="url(#pbf788a2799)" style="fill: none; stroke: #cccccc; stroke-opacity: 0.4; stroke-width: 0.6; stroke-linecap: square"/>
     </g>
     <g id="line2d_10">
      <g>
       <use xlink:href="#maf156100ca" x="45.883594" y="236.380147" style="stroke: #000000; stroke-width: 0.8"/>
      </g>
     </g>
     <g id="text_7">
      <!-- 0.90 -->
      <g transform="translate(21.383594 239.852022) scale(0.1 -0.1)">
       <defs>
        <path id="TimesNewRomanPSMT-39" d="M 338 -88 
L 338 28 
Q 744 34 1094 217 
Q 1444 400 1770 856 
Q 2097 1313 2225 1859 
Q 1734 1544 1338 1544 
Q 891 1544 572 1889 
Q 253 2234 253 2806 
Q 253 3363 572 3797 
Q 956 4325 1575 4325 
Q 2097 4325 2469 3894 
Q 2925 3359 2925 2575 
Q 2925 1869 2578 1258 
Q 2231 647 1613 244 
Q 1109 -88 516 -88 
L 338 -88 
z
M 2275 2091 
Q 2331 2497 2331 2741 
Q 2331 3044 2228 3395 
Q 2125 3747 1936 3934 
Q 1747 4122 1506 4122 
Q 1228 4122 1018 3872 
Q 809 3622 809 3128 
Q 809 2469 1088 2097 
Q 1291 1828 1588 1828 
Q 1731 1828 1928 1897 
Q 2125 1966 2275 2091 
z
" transform="scale(0.015625)"/>
       </defs>
       <use xlink:href="#TimesNewRomanPSMT-30"/>
       <use xlink:href="#TimesNewRomanPSMT-2e" transform="translate(50 0)"/>
       <use xlink:href="#TimesNewRomanPSMT-39" transform="translate(75 0)"/>
       <use xlink:href="#TimesNewRomanPSMT-30" transform="translate(125 0)"/>
      </g>
     </g>
    </g>
    <g id="ytick_4">
     <g id="line2d_11">
      <path d="M 45.883594 200.607206 
L 559.336094 200.607206 
" clip-path="url(#pbf788a2799)" style="fill: none; stroke: #cccccc; stroke-opacity: 0.4; stroke-width: 0.6; stroke-linecap: square"/>
     </g>
     <g id="line2d_12">
      <g>
       <use xlink:href="#maf156100ca" x="45.883594" y="200.607206" style="stroke: #000000; stroke-width: 0.8"/>
      </g>
     </g>
     <g id="text_8">
      <!-- 0.92 -->
      <g transform="translate(21.383594 204.079081) scale(0.1 -0.1)">
       <defs>
        <path id="TimesNewRomanPSMT-32" d="M 2934 816 
L 2638 0 
L 138 0 
L 138 116 
Q 1241 1122 1691 1759 
Q 2141 2397 2141 2925 
Q 2141 3328 1894 3587 
Q 1647 3847 1303 3847 
Q 991 3847 742 3664 
Q 494 3481 375 3128 
L 259 3128 
Q 338 3706 661 4015 
Q 984 4325 1469 4325 
Q 1984 4325 2329 3994 
Q 2675 3663 2675 3213 
Q 2675 2891 2525 2569 
Q 2294 2063 1775 1497 
Q 997 647 803 472 
L 1909 472 
Q 2247 472 2383 497 
Q 2519 522 2628 598 
Q 2738 675 2819 816 
L 2934 816 
z
" transform="scale(0.015625)"/>
       </defs>
       <use xlink:href="#TimesNewRomanPSMT-30"/>
       <use xlink:href="#TimesNewRomanPSMT-2e" transform="translate(50 0)"/>
       <use xlink:href="#TimesNewRomanPSMT-39" transform="translate(75 0)"/>
       <use xlink:href="#TimesNewRomanPSMT-32" transform="translate(125 0)"/>
      </g>
     </g>
    </g>
    <g id="ytick_5">
     <g id="line2d_13">
      <path d="M 45.883594 164.834265 
L 559.336094 164.834265 
" clip-path="url(#pbf788a2799)" style="fill: none; stroke: #cccccc; stroke-opacity: 0.4; stroke-width: 0.6; stroke-linecap: square"/>
     </g>
     <g id="line2d_14">
      <g>
       <use xlink:href="#maf156100ca" x="45.883594" y="164.834265" style="stroke: #000000; stroke-width: 0.8"/>
      </g>
     </g>
     <g id="text_9">
      <!-- 0.94 -->
      <g transform="translate(21.383594 168.30614) scale(0.1 -0.1)">
       <defs>
        <path id="TimesNewRomanPSMT-34" d="M 2978 1563 
L 2978 1119 
L 2409 1119 
L 2409 0 
L 1894 0 
L 1894 1119 
L 100 1119 
L 100 1519 
L 2066 4325 
L 2409 4325 
L 2409 1563 
L 2978 1563 
z
M 1894 1563 
L 1894 3666 
L 406 1563 
L 1894 1563 
z
" transform="scale(0.015625)"/>
       </defs>
       <use xlink:href="#TimesNewRomanPSMT-30"/>
       <use xlink:href="#TimesNewRomanPSMT-2e" transform="translate(50 0)"/>
       <use xlink:href="#TimesNewRomanPSMT-39" transform="translate(75 0)"/>
       <use xlink:href="#TimesNewRomanPSMT-34" transform="translate(125 0)"/>
      </g>
     </g>
    </g>
    <g id="ytick_6">
     <g id="line2d_15">
      <path d="M 45.883594 129.061324 
L 559.336094 129.061324 
" clip-path="url(#pbf788a2799)" style="fill: none; stroke: #cccccc; stroke-opacity: 0.4; stroke-width: 0.6; stroke-linecap: square"/>
     </g>
     <g id="line2d_16">
      <g>
       <use xlink:href="#maf156100ca" x="45.883594" y="129.061324" style="stroke: #000000; stroke-width: 0.8"/>
      </g>
     </g>
     <g id="text_10">
      <!-- 0.96 -->
      <g transform="translate(21.383594 132.533199) scale(0.1 -0.1)">
       <use xlink:href="#TimesNewRomanPSMT-30"/>
       <use xlink:href="#TimesNewRomanPSMT-2e" transform="translate(50 0)"/>
       <use xlink:href="#TimesNewRomanPSMT-39" transform="translate(75 0)"/>
       <use xlink:href="#TimesNewRomanPSMT-36" transform="translate(125 0)"/>
      </g>
     </g>
    </g>
    <g id="ytick_7">
     <g id="line2d_17">
      <path d="M 45.883594 93.288382 
L 559.336094 93.288382 
" clip-path="url(#pbf788a2799)" style="fill: none; stroke: #cccccc; stroke-opacity: 0.4; stroke-width: 0.6; stroke-linecap: square"/>
     </g>
     <g id="line2d_18">
      <g>
       <use xlink:href="#maf156100ca" x="45.883594" y="93.288382" style="stroke: #000000; stroke-width: 0.8"/>
      </g>
     </g>
     <g id="text_11">
      <!-- 0.98 -->
      <g transform="translate(21.383594 96.760257) scale(0.1 -0.1)">
       <use xlink:href="#TimesNewRomanPSMT-30"/>
       <use xlink:href="#TimesNewRomanPSMT-2e" transform="translate(50 0)"/>
       <use xlink:href="#TimesNewRomanPSMT-39" transform="translate(75 0)"/>
       <use xlink:href="#TimesNewRomanPSMT-38" transform="translate(125 0)"/>
      </g>
     </g>
    </g>
    <g id="ytick_8">
     <g id="line2d_19">
      <path d="M 45.883594 57.515441 
L 559.336094 57.515441 
" clip-path="url(#pbf788a2799)" style="fill: none; stroke: #cccccc; stroke-opacity: 0.4; stroke-width: 0.6; stroke-linecap: square"/>
     </g>
     <g id="line2d_20">
      <g>
       <use xlink:href="#maf156100ca" x="45.883594" y="57.515441" style="stroke: #000000; stroke-width: 0.8"/>
      </g>
     </g>
     <g id="text_12">
      <!-- 1.00 -->
      <g transform="translate(21.383594 60.987316) scale(0.1 -0.1)">
       <use xlink:href="#TimesNewRomanPSMT-31"/>
       <use xlink:href="#TimesNewRomanPSMT-2e" transform="translate(50 0)"/>
       <use xlink:href="#TimesNewRomanPSMT-30" transform="translate(75 0)"/>
       <use xlink:href="#TimesNewRomanPSMT-30" transform="translate(125 0)"/>
      </g>
     </g>
    </g>
    <g id="ytick_9">
     <g id="line2d_21">
      <path d="M 45.883594 21.7425 
L 559.336094 21.7425 
" clip-path="url(#pbf788a2799)" style="fill: none; stroke: #cccccc; stroke-opacity: 0.4; stroke-width: 0.6; stroke-linecap: square"/>
     </g>
     <g id="line2d_22">
      <g>
       <use xlink:href="#maf156100ca" x="45.883594" y="21.7425" style="stroke: #000000; stroke-width: 0.8"/>
      </g>
     </g>
     <g id="text_13">
      <!-- 1.02 -->
      <g transform="translate(21.383594 25.214375) scale(0.1 -0.1)">
       <use xlink:href="#TimesNewRomanPSMT-31"/>
       <use xlink:href="#TimesNewRomanPSMT-2e" transform="translate(50 0)"/>
       <use xlink:href="#TimesNewRomanPSMT-30" transform="translate(75 0)"/>
       <use xlink:href="#TimesNewRomanPSMT-32" transform="translate(125 0)"/>
      </g>
     </g>
    </g>
    <g id="text_14">
     <!-- 指标值 -->
     <g transform="translate(15.030625 190.2775) rotate(-90) scale(0.11 -0.11)">
      <defs>
       <path id="SimSun-6307" d="M 3000 3200 
Q 3000 4875 2975 5175 
L 3575 4900 
L 3350 4700 
L 3350 3800 
Q 3825 3975 4375 4287 
Q 4925 4600 5150 4850 
L 5525 4375 
Q 5325 4375 4825 4175 
Q 4300 3975 3350 3675 
L 3350 3250 
Q 3350 2925 3725 2950 
L 5200 2950 
Q 5400 2975 5450 3175 
Q 5500 3375 5550 4000 
L 5650 4000 
Q 5675 3600 5712 3362 
Q 5750 3125 5975 3050 
Q 5825 2675 5400 2675 
L 3475 2675 
Q 2975 2650 3000 3200 
z
M 5475 1850 
L 5475 225 
Q 5475 25 5500 -375 
L 5125 -525 
L 5125 -50 
L 3400 -50 
L 3400 -400 
L 3025 -575 
Q 3050 100 3050 925 
Q 3050 1750 3025 2300 
L 3400 2075 
L 5075 2075 
L 5250 2325 
L 5675 2025 
L 5475 1850 
z
M 3400 1925 
L 3400 1075 
L 5125 1075 
L 5125 1925 
L 3400 1925 
z
M 3400 925 
L 3400 100 
L 5125 100 
L 5125 925 
L 3400 925 
z
M 1450 3750 
Q 1450 4750 1425 5225 
L 2025 4925 
L 1800 4750 
L 1800 3750 
L 2125 3750 
L 2425 4050 
L 2875 3600 
L 1800 3600 
L 1800 2450 
L 2650 2900 
L 2700 2825 
L 1800 2200 
L 1800 75 
Q 1800 -375 1275 -600 
Q 1275 -300 550 -75 
L 550 25 
Q 1100 -50 1275 -37 
Q 1450 -25 1450 300 
L 1450 2000 
Q 1100 1775 725 1500 
L 650 1350 
L 325 1800 
Q 625 1900 1450 2300 
L 1450 3600 
L 1175 3600 
Q 850 3600 575 3525 
L 350 3750 
L 1450 3750 
z
" transform="scale(0.015625)"/>
       <path id="SimSun-6807" d="M 4775 2225 
Q 5725 1275 5825 1050 
Q 5925 825 5925 700 
Q 5925 525 5825 375 
Q 5725 225 5700 225 
Q 5575 225 5475 650 
Q 5300 1225 4700 2175 
L 4775 2225 
z
M 2750 4600 
L 4975 4600 
L 5275 4900 
L 5725 4450 
L 3175 4450 
L 2950 4400 
L 2750 4600 
z
M 3100 75 
Q 3775 -50 3900 -25 
Q 4025 0 4025 175 
L 4025 2950 
L 2800 2950 
L 2575 2900 
L 2375 3100 
L 5350 3100 
L 5675 3425 
L 6150 2950 
L 4400 2950 
L 4400 -25 
Q 4375 -425 3850 -600 
Q 3850 -300 3100 -50 
L 3100 75 
z
M 3125 2275 
L 3675 1950 
L 3425 1825 
Q 2800 700 2100 25 
L 2025 100 
Q 2725 1025 3125 2275 
z
M 1675 2725 
Q 1675 25 1700 -475 
L 1300 -625 
Q 1325 450 1325 2325 
Q 950 1450 350 700 
L 275 800 
Q 975 1925 1325 3475 
L 700 3475 
L 475 3425 
L 275 3625 
L 1325 3625 
Q 1325 4575 1300 5275 
L 1900 4975 
L 1675 4800 
L 1675 3625 
L 2000 3625 
L 2275 3900 
L 2700 3475 
L 1675 3475 
L 1675 2850 
Q 2150 2600 2312 2425 
Q 2475 2250 2475 2125 
Q 2475 2050 2400 1912 
Q 2325 1775 2275 1775 
Q 2200 1775 2100 2075 
Q 1925 2475 1675 2725 
z
" transform="scale(0.015625)"/>
      </defs>
      <use xlink:href="#SimSun-6307"/>
      <use xlink:href="#SimSun-6807" transform="translate(100 0)"/>
      <use xlink:href="#SimSun-503c" transform="translate(200 0)"/>
     </g>
    </g>
   </g>
   <g id="patch_3">
    <path d="M 69.222344 1846.1625 
L 113.376736 1846.1625 
L 113.376736 180.587487 
L 69.222344 180.587487 
z
" clip-path="url(#pbf788a2799)" style="fill: #4878cf; stroke: #ffffff; stroke-linejoin: miter"/>
   </g>
   <g id="patch_4">
    <path d="M 195.377749 1846.1625 
L 239.532141 1846.1625 
L 239.532141 180.318919 
L 195.377749 180.318919 
z
" clip-path="url(#pbf788a2799)" style="fill: #4878cf; stroke: #ffffff; stroke-linejoin: miter"/>
   </g>
   <g id="patch_5">
    <path d="M 321.533155 1846.1625 
L 365.687546 1846.1625 
L 365.687546 180.854832 
L 321.533155 180.854832 
z
" clip-path="url(#pbf788a2799)" style="fill: #4878cf; stroke: #ffffff; stroke-linejoin: miter"/>
   </g>
   <g id="patch_6">
    <path d="M 447.68856 1846.1625 
L 491.842952 1846.1625 
L 491.842952 180.665874 
L 447.68856 180.665874 
z
" clip-path="url(#pbf788a2799)" style="fill: #4878cf; stroke: #ffffff; stroke-linejoin: miter"/>
   </g>
   <g id="patch_7">
    <path d="M 113.376736 1846.1625 
L 157.531128 1846.1625 
L 157.531128 57.515441 
L 113.376736 57.515441 
z
" clip-path="url(#pbf788a2799)" style="fill: #e07b39; stroke: #ffffff; stroke-linejoin: miter"/>
   </g>
   <g id="patch_8">
    <path d="M 239.532141 1846.1625 
L 283.686533 1846.1625 
L 283.686533 57.515441 
L 239.532141 57.515441 
z
" clip-path="url(#pbf788a2799)" style="fill: #e07b39; stroke: #ffffff; stroke-linejoin: miter"/>
   </g>
   <g id="patch_9">
    <path d="M 365.687546 1846.1625 
L 409.841938 1846.1625 
L 409.841938 57.515441 
L 365.687546 57.515441 
z
" clip-path="url(#pbf788a2799)" style="fill: #e07b39; stroke: #ffffff; stroke-linejoin: miter"/>
   </g>
   <g id="patch_10">
    <path d="M 491.842952 1846.1625 
L 535.997344 1846.1625 
L 535.997344 57.515441 
L 491.842952 57.515441 
z
" clip-path="url(#pbf788a2799)" style="fill: #e07b39; stroke: #ffffff; stroke-linejoin: miter"/>
   </g>
   <g id="patch_11">
    <path d="M 45.883594 325.8125 
L 45.883594 21.7425 
" style="fill: none; stroke: #000000; stroke-width: 0.8; stroke-linejoin: miter; stroke-linecap: square"/>
   </g>
   <g id="patch_12">
    <path d="M 45.883594 325.8125 
L 559.336094 325.8125 
" style="fill: none; stroke: #000000; stroke-width: 0.8; stroke-linejoin: miter; stroke-linecap: square"/>
   </g>
   <g id="text_15">
    <!-- 0.931 -->
    <g transform="translate(81.17454 173.296389) scale(0.09 -0.09)">
     <defs>
      <path id="TimesNewRomanPSMT-33" d="M 325 3431 
Q 506 3859 782 4092 
Q 1059 4325 1472 4325 
Q 1981 4325 2253 3994 
Q 2459 3747 2459 3466 
Q 2459 3003 1878 2509 
Q 2269 2356 2469 2072 
Q 2669 1788 2669 1403 
Q 2669 853 2319 450 
Q 1863 -75 997 -75 
Q 569 -75 414 31 
Q 259 138 259 259 
Q 259 350 332 419 
Q 406 488 509 488 
Q 588 488 669 463 
Q 722 447 909 348 
Q 1097 250 1169 231 
Q 1284 197 1416 197 
Q 1734 197 1970 444 
Q 2206 691 2206 1028 
Q 2206 1275 2097 1509 
Q 2016 1684 1919 1775 
Q 1784 1900 1550 2001 
Q 1316 2103 1072 2103 
L 972 2103 
L 972 2197 
Q 1219 2228 1467 2375 
Q 1716 2522 1828 2728 
Q 1941 2934 1941 3181 
Q 1941 3503 1739 3701 
Q 1538 3900 1238 3900 
Q 753 3900 428 3381 
L 325 3431 
z
" transform="scale(0.015625)"/>
     </defs>
     <use xlink:href="#TimesNewRomanPSMT-30"/>
     <use xlink:href="#TimesNewRomanPSMT-2e" transform="translate(50 0)"/>
     <use xlink:href="#TimesNewRomanPSMT-39" transform="translate(75 0)"/>
     <use xlink:href="#TimesNewRomanPSMT-33" transform="translate(125 0)"/>
     <use xlink:href="#TimesNewRomanPSMT-31" transform="translate(175 0)"/>
    </g>
   </g>
   <g id="text_16">
    <!-- 0.931 -->
    <g transform="translate(207.329945 173.027821) scale(0.09 -0.09)">
     <use xlink:href="#TimesNewRomanPSMT-30"/>
     <use xlink:href="#TimesNewRomanPSMT-2e" transform="translate(50 0)"/>
     <use xlink:href="#TimesNewRomanPSMT-39" transform="translate(75 0)"/>
     <use xlink:href="#TimesNewRomanPSMT-33" transform="translate(125 0)"/>
     <use xlink:href="#TimesNewRomanPSMT-31" transform="translate(175 0)"/>
    </g>
   </g>
   <g id="text_17">
    <!-- 0.931 -->
    <g transform="translate(333.485351 173.563734) scale(0.09 -0.09)">
     <use xlink:href="#TimesNewRomanPSMT-30"/>
     <use xlink:href="#TimesNewRomanPSMT-2e" transform="translate(50 0)"/>
     <use xlink:href="#TimesNewRomanPSMT-39" transform="translate(75 0)"/>
     <use xlink:href="#TimesNewRomanPSMT-33" transform="translate(125 0)"/>
     <use xlink:href="#TimesNewRomanPSMT-31" transform="translate(175 0)"/>
    </g>
   </g>
   <g id="text_18">
    <!-- 0.931 -->
    <g transform="translate(459.640756 173.374777) scale(0.09 -0.09)">
     <use xlink:href="#TimesNewRomanPSMT-30"/>
     <use xlink:href="#TimesNewRomanPSMT-2e" transform="translate(50 0)"/>
     <use xlink:href="#TimesNewRomanPSMT-39" transform="translate(75 0)"/>
     <use xlink:href="#TimesNewRomanPSMT-33" transform="translate(125 0)"/>
     <use xlink:href="#TimesNewRomanPSMT-31" transform="translate(175 0)"/>
    </g>
   </g>
   <g id="text_19">
    <!-- 1.000 -->
    <g transform="translate(125.328932 50.224344) scale(0.09 -0.09)">
     <use xlink:href="#TimesNewRomanPSMT-31"/>
     <use xlink:href="#TimesNewRomanPSMT-2e" transform="translate(50 0)"/>
     <use xlink:href="#TimesNewRomanPSMT-30" transform="translate(75 0)"/>
     <use xlink:href="#TimesNewRomanPSMT-30" transform="translate(125 0)"/>
     <use xlink:href="#TimesNewRomanPSMT-30" transform="translate(175 0)"/>
    </g>
   </g>
   <g id="text_20">
    <!-- 1.000 -->
    <g transform="translate(251.484337 50.224344) scale(0.09 -0.09)">
     <use xlink:href="#TimesNewRomanPSMT-31"/>
     <use xlink:href="#TimesNewRomanPSMT-2e" transform="translate(50 0)"/>
     <use xlink:href="#TimesNewRomanPSMT-30" transform="translate(75 0)"/>
     <use xlink:href="#TimesNewRomanPSMT-30" transform="translate(125 0)"/>
     <use xlink:href="#TimesNewRomanPSMT-30" transform="translate(175 0)"/>
    </g>
   </g>
   <g id="text_21">
    <!-- 1.000 -->
    <g transform="translate(377.639742 50.224344) scale(0.09 -0.09)">
     <use xlink:href="#TimesNewRomanPSMT-31"/>
     <use xlink:href="#TimesNewRomanPSMT-2e" transform="translate(50 0)"/>
     <use xlink:href="#TimesNewRomanPSMT-30" transform="translate(75 0)"/>
     <use xlink:href="#TimesNewRomanPSMT-30" transform="translate(125 0)"/>
     <use xlink:href="#TimesNewRomanPSMT-30" transform="translate(175 0)"/>
    </g>
   </g>
   <g id="text_22">
    <!-- 1.000 -->
    <g transform="translate(503.795148 50.224344) scale(0.09 -0.09)">
     <use xlink:href="#TimesNewRomanPSMT-31"/>
     <use xlink:href="#TimesNewRomanPSMT-2e" transform="translate(50 0)"/>
     <use xlink:href="#TimesNewRomanPSMT-30" transform="translate(75 0)"/>
     <use xlink:href="#TimesNewRomanPSMT-30" transform="translate(125 0)"/>
     <use xlink:href="#TimesNewRomanPSMT-30" transform="translate(175 0)"/>
    </g>
   </g>
   <g id="text_23">
    <!-- 两数据集分类性能指标对比 -->
    <g transform="translate(230.609844 15.7425) scale(0.12 -0.12)">
     <defs>
      <path id="SimSun-4e24" d="M 1200 3200 
L 1200 -425 
L 825 -625 
Q 850 150 850 1625 
Q 850 3100 825 3550 
L 1200 3350 
L 2225 3350 
L 2225 4525 
L 1100 4525 
Q 775 4525 500 4450 
L 275 4675 
L 5200 4675 
L 5575 5050 
L 6100 4525 
L 4025 4525 
L 4025 3350 
L 5075 3350 
L 5275 3600 
L 5700 3275 
L 5475 3125 
L 5475 125 
Q 5475 -350 4925 -575 
Q 4875 -225 4075 -25 
L 4075 100 
Q 4675 0 4900 12 
Q 5125 25 5125 375 
L 5125 3200 
L 4025 3200 
Q 4000 2625 3925 2250 
Q 4775 1825 4837 1675 
Q 4900 1525 4900 1425 
Q 4900 1300 4825 1162 
Q 4750 1025 4725 1025 
Q 4650 1025 4550 1300 
Q 4375 1700 3900 2125 
Q 3575 1100 2600 425 
L 2550 500 
Q 3725 1600 3675 3200 
L 2575 3200 
Q 2550 2850 2500 2450 
Q 3075 2100 3125 1887 
Q 3175 1675 3087 1562 
Q 3000 1450 2950 1450 
Q 2875 1450 2800 1700 
Q 2700 2050 2475 2325 
Q 2175 1300 1325 650 
L 1275 725 
Q 2200 1700 2225 3200 
L 1200 3200 
z
M 2575 4525 
L 2575 3350 
L 3675 3350 
L 3675 4525 
L 2575 4525 
z
" transform="scale(0.015625)"/>
      <path id="SimSun-6570" d="M 1875 1525 
Q 1675 1200 1500 900 
Q 1825 825 2275 725 
Q 2500 975 2725 1525 
L 1875 1525 
z
M 850 4900 
Q 1325 4600 1425 4450 
Q 1525 4300 1525 4225 
Q 1525 4100 1437 3975 
Q 1350 3850 1300 3850 
Q 1225 3850 1150 4100 
Q 1050 4450 775 4850 
L 850 4900 
z
M 3000 4975 
L 3450 4675 
Q 3250 4625 3100 4425 
Q 2925 4225 2525 3825 
L 2450 3875 
Q 2925 4625 3000 4975 
z
M 1875 5250 
L 2425 5000 
L 2225 4825 
L 2225 3675 
L 2850 3675 
L 3125 3950 
L 3550 3525 
L 2225 3525 
L 2225 3300 
Q 2800 3175 2937 3062 
Q 3075 2950 3075 2775 
Q 3075 2700 3050 2587 
Q 3025 2475 2975 2475 
Q 2925 2475 2800 2650 
Q 2600 2925 2225 3175 
L 2225 2400 
L 1925 2200 
L 2275 2050 
Q 2150 2000 1950 1675 
L 2725 1675 
L 2900 1900 
L 3275 1575 
L 3050 1450 
Q 2800 875 2600 650 
Q 3000 550 3137 437 
Q 3275 325 3275 150 
Q 3275 -25 3200 -25 
Q 3125 -25 3025 75 
Q 2750 275 2400 425 
Q 1525 -275 325 -500 
L 300 -425 
Q 1450 -50 2100 550 
Q 1600 725 1125 800 
Q 1225 950 1525 1525 
L 1200 1525 
Q 875 1525 600 1450 
L 375 1675 
L 1575 1675 
Q 1675 1925 1775 2275 
L 1900 2225 
L 1900 3250 
Q 1225 2475 350 2050 
L 300 2125 
Q 1225 2775 1700 3525 
L 1250 3525 
Q 925 3525 650 3450 
L 425 3675 
L 1900 3675 
Q 1900 4575 1875 5250 
z
M 3925 3525 
Q 4050 2075 4525 1100 
Q 4925 1950 5025 3525 
L 3925 3525 
z
M 4050 5250 
L 4625 4925 
Q 4425 4850 4325 4625 
Q 4225 4400 3950 3675 
L 5375 3675 
L 5675 3975 
L 6125 3525 
L 5400 3525 
Q 5250 1675 4750 775 
Q 5325 75 6100 -100 
L 6100 -200 
Q 5625 -275 5600 -500 
Q 4950 -50 4525 525 
Q 3700 -275 2550 -650 
L 2500 -575 
Q 3650 -50 4325 800 
Q 3850 1975 3825 3375 
Q 3575 2725 3100 2150 
L 3025 2200 
Q 3625 3200 4050 5250 
z
" transform="scale(0.015625)"/>
      <path id="SimSun-636e" d="M 3125 -650 
Q 3150 -100 3150 512 
Q 3150 1125 3125 1600 
L 3475 1400 
L 4175 1400 
L 4175 2400 
L 3000 2400 
Q 2825 625 1675 -525 
L 1600 -450 
Q 2150 275 2437 1187 
Q 2725 2100 2737 3312 
Q 2750 4525 2725 5050 
L 3100 4825 
L 5150 4825 
L 5350 5025 
L 5700 4700 
L 5500 4575 
Q 5500 3825 5525 3475 
L 5175 3325 
L 5175 3625 
L 3075 3625 
Q 3075 3150 3025 2550 
L 4175 2550 
Q 4175 3025 4150 3475 
L 4700 3225 
L 4500 3075 
L 4500 2550 
L 5325 2550 
L 5600 2825 
L 6025 2400 
L 4500 2400 
L 4500 1400 
L 5150 1400 
L 5350 1625 
L 5700 1300 
L 5500 1150 
Q 5500 150 5525 -400 
L 5175 -600 
L 5175 -75 
L 3475 -75 
L 3475 -500 
L 3125 -650 
z
M 3075 4675 
L 3075 3775 
L 5175 3775 
L 5175 4675 
L 3075 4675 
z
M 3475 1250 
L 3475 75 
L 5175 75 
L 5175 1250 
L 3475 1250 
z
M 1675 2450 
L 2500 2925 
L 2550 2825 
L 1675 2175 
L 1675 150 
Q 1650 -300 1125 -500 
Q 1175 -250 500 25 
L 500 125 
Q 1050 25 1187 37 
Q 1325 50 1325 225 
L 1325 2000 
Q 625 1500 600 1350 
L 225 1800 
Q 375 1825 1325 2300 
L 1325 3575 
L 750 3575 
L 450 3525 
L 250 3725 
L 1325 3725 
Q 1325 4750 1300 5175 
L 1875 4875 
L 1675 4700 
L 1675 3725 
L 1950 3725 
L 2275 4000 
L 2650 3575 
L 1675 3575 
L 1675 2450 
z
" transform="scale(0.015625)"/>
      <path id="SimSun-96c6" d="M 1775 2650 
L 1775 2075 
L 3200 2075 
L 3200 2650 
L 1775 2650 
z
M 1425 1500 
Q 1450 2500 1450 3750 
Q 975 3200 300 2750 
L 250 2825 
Q 800 3300 1250 3962 
Q 1700 4625 1925 5275 
L 2425 4925 
L 2200 4850 
L 1825 4250 
L 4975 4250 
L 5275 4550 
L 5700 4100 
L 3525 4100 
L 3525 3500 
L 4700 3500 
L 4975 3775 
L 5375 3350 
L 3525 3350 
L 3525 2800 
L 4650 2800 
L 4925 3075 
L 5325 2650 
L 3525 2650 
L 3525 2075 
L 4925 2075 
L 5225 2375 
L 5650 1925 
L 1775 1925 
L 1775 1625 
L 1425 1500 
z
M 2975 5200 
Q 3450 5025 3575 4887 
Q 3700 4750 3700 4650 
Q 3700 4550 3612 4425 
Q 3525 4300 3500 4300 
Q 3400 4300 3325 4525 
Q 3200 4850 2925 5125 
L 2975 5200 
z
M 1775 4100 
L 1775 3500 
L 3200 3500 
L 3200 4100 
L 1775 4100 
z
M 1775 3350 
L 1775 2800 
L 3200 2800 
L 3200 3350 
L 1775 3350 
z
M 3075 1300 
Q 3075 1675 3050 1900 
L 3600 1700 
L 3400 1525 
L 3400 1300 
L 5400 1300 
L 5700 1600 
L 6125 1150 
L 3675 1150 
Q 4150 600 4750 300 
Q 5350 0 6150 -75 
L 6150 -150 
Q 5775 -225 5700 -475 
Q 5050 -275 4525 87 
Q 4000 450 3550 1150 
L 3400 1150 
Q 3400 -100 3425 -450 
L 3050 -650 
Q 3075 150 3075 1125 
Q 2550 550 1887 150 
Q 1225 -250 300 -575 
L 275 -475 
Q 1175 -75 1800 387 
Q 2425 850 2650 1150 
L 1100 1150 
Q 775 1150 500 1075 
L 275 1300 
L 3075 1300 
z
" transform="scale(0.015625)"/>
      <path id="SimSun-5206" d="M 2350 5050 
L 2850 4675 
L 2625 4550 
Q 2200 3750 1687 3125 
Q 1175 2500 375 2025 
L 325 2100 
Q 975 2625 1475 3337 
Q 1975 4050 2350 5050 
z
M 4100 4975 
L 3900 4850 
Q 4175 3850 4800 3300 
Q 5425 2750 6125 2625 
L 6125 2550 
Q 5750 2500 5600 2225 
Q 4775 2675 4287 3425 
Q 3800 4175 3625 5175 
L 4100 4975 
z
M 1375 2625 
L 4225 2625 
L 4475 2875 
L 4825 2525 
L 4625 2375 
Q 4575 400 4375 -12 
Q 4175 -425 3675 -600 
Q 3600 -200 2975 -25 
L 2975 75 
Q 3600 -25 3787 -12 
Q 3975 0 4075 275 
Q 4175 550 4275 2475 
L 2975 2475 
Q 2825 1400 2375 662 
Q 1925 -75 650 -625 
L 600 -525 
Q 1725 50 2112 837 
Q 2500 1625 2575 2475 
L 1800 2475 
L 1575 2425 
L 1375 2625 
z
" transform="scale(0.015625)"/>
      <path id="SimSun-7c7b" d="M 1375 4925 
L 1425 5000 
Q 1975 4775 2200 4612 
Q 2425 4450 2412 4287 
Q 2400 4125 2325 4012 
Q 2250 3900 2200 3900 
Q 2125 3900 2025 4150 
Q 1850 4500 1375 4925 
z
M 3075 3750 
L 3075 4825 
Q 3075 5000 3050 5225 
L 3700 4975 
L 3425 4775 
L 3425 3750 
L 3900 3750 
Q 4475 4525 4750 5075 
L 5250 4650 
L 4975 4575 
Q 4700 4375 4050 3750 
L 5275 3750 
L 5625 4075 
L 6075 3600 
L 3425 3600 
L 3425 3450 
Q 5000 3025 5300 2850 
Q 5600 2675 5625 2550 
Q 5650 2425 5650 2375 
Q 5650 2250 5612 2175 
Q 5575 2100 5550 2100 
Q 5425 2100 5150 2400 
Q 4775 2775 3425 3350 
Q 3425 2575 3450 2400 
L 3050 2250 
Q 3075 2575 3075 3575 
Q 2625 3000 2037 2575 
Q 1450 2150 400 1850 
L 375 1925 
Q 1300 2325 1812 2725 
Q 2325 3125 2675 3600 
L 1250 3600 
Q 925 3600 650 3525 
L 425 3750 
L 3075 3750 
z
M 3250 1775 
Q 3200 1625 3150 1500 
L 5300 1500 
L 5650 1850 
L 6100 1350 
L 3500 1350 
Q 3925 750 4550 375 
Q 5175 0 6125 -100 
L 6125 -200 
Q 5650 -225 5525 -550 
Q 4700 -225 4137 325 
Q 3575 875 3375 1350 
L 3125 1350 
Q 2825 375 2175 -37 
Q 1525 -450 300 -650 
L 275 -575 
Q 1175 -350 1825 62 
Q 2475 475 2750 1350 
L 1075 1350 
Q 750 1350 475 1275 
L 250 1500 
L 2775 1500 
Q 2825 1850 2850 2225 
L 3475 1925 
L 3250 1775 
z
" transform="scale(0.015625)"/>
      <path id="SimSun-6027" d="M 3975 3450 
Q 3975 4800 3950 5200 
L 4575 4925 
L 4325 4750 
L 4325 3450 
L 5050 3450 
L 5400 3800 
L 5900 3300 
L 4325 3300 
L 4325 1925 
L 4975 1925 
L 5300 2250 
L 5775 1775 
L 4325 1775 
L 4325 25 
L 5300 25 
L 5650 375 
L 6150 -125 
L 2875 -125 
Q 2550 -125 2275 -200 
L 2050 25 
L 3975 25 
L 3975 1775 
L 3450 1775 
Q 3125 1775 2850 1700 
L 2625 1925 
L 3975 1925 
L 3975 3300 
L 2950 3300 
Q 2625 2500 2225 2000 
L 2150 2050 
Q 2450 2650 2650 3387 
Q 2850 4125 2900 4600 
L 3475 4325 
L 3250 4175 
L 3000 3450 
L 3975 3450 
z
M 875 3625 
Q 950 2875 900 2687 
Q 850 2500 737 2437 
Q 625 2375 550 2375 
Q 500 2375 412 2412 
Q 325 2450 325 2475 
Q 325 2575 500 2775 
Q 725 3050 775 3625 
L 875 3625 
z
M 1575 3950 
Q 1975 3800 2150 3675 
Q 2325 3550 2300 3350 
Q 2275 3150 2175 3075 
Q 2075 3000 1975 3275 
Q 1850 3550 1575 3825 
L 1575 500 
Q 1575 75 1600 -425 
L 1200 -600 
Q 1225 125 1225 700 
L 1225 4225 
Q 1225 4650 1200 5250 
L 1800 4975 
L 1575 4800 
L 1575 3950 
z
" transform="scale(0.015625)"/>
      <path id="SimSun-80fd" d="M 1775 5250 
L 2225 4875 
Q 1950 4800 1550 4375 
Q 1150 3925 900 3700 
L 2800 3750 
Q 2575 4175 2375 4400 
L 2425 4475 
Q 2850 4225 3075 4012 
Q 3300 3800 3287 3612 
Q 3275 3425 3175 3337 
Q 3075 3250 3025 3250 
Q 2975 3250 2975 3325 
Q 2925 3450 2850 3650 
Q 2425 3600 1700 3525 
Q 975 3450 750 3275 
L 500 3750 
Q 750 3750 1175 4275 
Q 1600 4800 1775 5250 
z
M 825 -600 
Q 850 -75 850 1325 
Q 850 2725 825 3100 
L 1200 2900 
L 2475 2900 
L 2675 3150 
L 3050 2825 
L 2850 2650 
L 2850 100 
Q 2900 -375 2350 -600 
Q 2325 -275 1700 -100 
L 1700 0 
Q 2175 -50 2350 -50 
Q 2525 -50 2525 225 
L 2525 1100 
L 1200 1100 
L 1200 -400 
L 825 -600 
z
M 1200 2750 
L 1200 2125 
L 2525 2125 
L 2525 2750 
L 1200 2750 
z
M 1200 1975 
L 1200 1250 
L 2525 1250 
L 2525 1975 
L 1200 1975 
z
M 3700 3075 
Q 3700 4825 3675 5100 
L 4250 4850 
L 4025 4650 
L 4025 3775 
Q 4800 4175 5175 4675 
L 5550 4250 
L 5325 4225 
Q 4600 3850 4025 3650 
L 4025 3175 
Q 4025 2900 4400 2900 
L 5250 2900 
Q 5500 2925 5525 3162 
Q 5550 3400 5550 3800 
L 5650 3800 
Q 5675 3500 5725 3262 
Q 5775 3025 6000 2950 
Q 5850 2625 5275 2625 
L 4225 2625 
Q 3700 2600 3700 3075 
z
M 3625 50 
Q 3625 2000 3600 2300 
L 4175 2025 
L 3950 1850 
L 3950 1050 
Q 4825 1525 5250 2125 
L 5650 1650 
L 5425 1650 
Q 4600 1200 3950 900 
L 3950 275 
Q 3950 -125 4325 -100 
L 5300 -100 
Q 5575 -75 5600 250 
Q 5600 550 5625 925 
L 5725 925 
Q 5750 500 5812 262 
Q 5875 25 6075 -25 
Q 5950 -375 5325 -400 
L 4175 -400 
Q 3650 -400 3625 50 
z
" transform="scale(0.015625)"/>
      <path id="SimSun-5bf9" d="M 400 4250 
L 2375 4250 
L 2575 4500 
L 3000 4150 
L 2750 3950 
Q 2400 2850 2075 2100 
Q 2575 1375 2675 1062 
Q 2775 750 2762 537 
Q 2750 325 2662 237 
Q 2575 150 2550 150 
Q 2450 150 2375 575 
Q 2250 1075 1925 1800 
Q 1675 1350 1275 875 
Q 875 400 250 -100 
L 225 25 
Q 675 450 1087 1037 
Q 1500 1625 1725 2100 
Q 1000 3125 675 3550 
L 750 3625 
Q 1300 3025 1850 2400 
Q 2100 3050 2375 4100 
L 1225 4100 
Q 900 4100 625 4025 
L 400 4250 
z
M 3600 125 
Q 4375 0 4537 25 
Q 4700 50 4700 225 
L 4700 3350 
L 3525 3350 
Q 3200 3350 2925 3275 
L 2700 3500 
L 4700 3500 
L 4700 4350 
Q 4700 4800 4675 5125 
L 5275 4825 
L 5050 4625 
L 5050 3500 
L 5325 3500 
L 5650 3825 
L 6125 3350 
L 5050 3350 
L 5050 50 
Q 5050 -375 4500 -600 
Q 4500 -300 3600 0 
L 3600 125 
z
M 3100 2775 
L 3175 2825 
Q 3700 2400 3812 2175 
Q 3925 1950 3925 1800 
Q 3925 1625 3800 1462 
Q 3675 1300 3650 1300 
Q 3550 1300 3525 1650 
Q 3450 2125 3100 2775 
z
" transform="scale(0.015625)"/>
      <path id="SimSun-6bd4" d="M 1050 3400 
Q 1050 4525 1025 5075 
L 1625 4800 
L 1400 4600 
L 1400 2925 
L 2400 2925 
L 2700 3225 
L 3150 2775 
L 1400 2775 
L 1400 350 
L 3050 925 
L 3100 825 
Q 1625 150 1250 -250 
L 950 175 
Q 1050 275 1050 525 
L 1050 3400 
z
M 3425 3825 
Q 3425 4575 3400 5125 
L 4025 4825 
L 3775 4625 
L 3775 2525 
Q 4300 2925 4712 3400 
Q 5125 3875 5275 4175 
L 5775 3700 
Q 5475 3650 5025 3250 
Q 4550 2850 3775 2375 
L 3775 425 
Q 3775 125 4100 125 
L 5125 125 
Q 5325 125 5400 350 
Q 5475 575 5500 1425 
L 5625 1425 
Q 5625 825 5712 550 
Q 5800 275 6000 175 
Q 5875 -25 5712 -112 
Q 5550 -200 5275 -200 
L 3975 -200 
Q 3425 -200 3425 275 
L 3425 3825 
z
" transform="scale(0.015625)"/>
     </defs>
     <use xlink:href="#SimSun-4e24"/>
     <use xlink:href="#SimSun-6570" transform="translate(100 0)"/>
     <use xlink:href="#SimSun-636e" transform="translate(200 0)"/>
     <use xlink:href="#SimSun-96c6" transform="translate(300 0)"/>
     <use xlink:href="#SimSun-5206" transform="translate(400 0)"/>
     <use xlink:href="#SimSun-7c7b" transform="translate(500 0)"/>
     <use xlink:href="#SimSun-6027" transform="translate(600 0)"/>
     <use xlink:href="#SimSun-80fd" transform="translate(700 0)"/>
     <use xlink:href="#SimSun-6307" transform="translate(800 0)"/>
     <use xlink:href="#SimSun-6807" transform="translate(900 0)"/>
     <use xlink:href="#SimSun-5bf9" transform="translate(1000 0)"/>
     <use xlink:href="#SimSun-6bd4" transform="translate(1100 0)"/>
    </g>
   </g>
   <g id="legend_1">
    <g id="patch_13">
     <path d="M 430.334531 58.100313 
L 552.336094 58.100313 
Q 554.336094 58.100313 554.336094 56.100313 
L 554.336094 28.7425 
Q 554.336094 26.7425 552.336094 26.7425 
L 430.334531 26.7425 
Q 428.334531 26.7425 428.334531 28.7425 
L 428.334531 56.100313 
Q 428.334531 58.100313 430.334531 58.100313 
z
" style="fill: #ffffff; opacity: 0.8; stroke: #cccccc; stroke-linejoin: miter"/>
    </g>
    <g id="patch_14">
     <path d="M 432.334531 37.822188 
L 452.334531 37.822188 
L 452.334531 30.822188 
L 432.334531 30.822188 
z
" style="fill: #4878cf; stroke: #ffffff; stroke-linejoin: miter"/>
    </g>
    <g id="text_24">
     <!-- SST-2（教育场景） -->
     <g transform="translate(460.334531 37.822188) scale(0.1 -0.1)">
      <defs>
       <path id="TimesNewRomanPSMT-53" d="M 2934 4334 
L 2934 2869 
L 2819 2869 
Q 2763 3291 2617 3541 
Q 2472 3791 2203 3937 
Q 1934 4084 1647 4084 
Q 1322 4084 1109 3886 
Q 897 3688 897 3434 
Q 897 3241 1031 3081 
Q 1225 2847 1953 2456 
Q 2547 2138 2764 1967 
Q 2981 1797 3098 1565 
Q 3216 1334 3216 1081 
Q 3216 600 2842 251 
Q 2469 -97 1881 -97 
Q 1697 -97 1534 -69 
Q 1438 -53 1133 45 
Q 828 144 747 144 
Q 669 144 623 97 
Q 578 50 556 -97 
L 441 -97 
L 441 1356 
L 556 1356 
Q 638 900 775 673 
Q 913 447 1195 297 
Q 1478 147 1816 147 
Q 2206 147 2432 353 
Q 2659 559 2659 841 
Q 2659 997 2573 1156 
Q 2488 1316 2306 1453 
Q 2184 1547 1640 1851 
Q 1097 2156 867 2337 
Q 638 2519 519 2737 
Q 400 2956 400 3219 
Q 400 3675 750 4004 
Q 1100 4334 1641 4334 
Q 1978 4334 2356 4169 
Q 2531 4091 2603 4091 
Q 2684 4091 2736 4139 
Q 2788 4188 2819 4334 
L 2934 4334 
z
" transform="scale(0.015625)"/>
       <path id="TimesNewRomanPSMT-54" d="M 3703 4238 
L 3750 3244 
L 3631 3244 
Q 3597 3506 3538 3619 
Q 3441 3800 3280 3886 
Q 3119 3972 2856 3972 
L 2259 3972 
L 2259 734 
Q 2259 344 2344 247 
Q 2463 116 2709 116 
L 2856 116 
L 2856 0 
L 1059 0 
L 1059 116 
L 1209 116 
Q 1478 116 1591 278 
Q 1659 378 1659 734 
L 1659 3972 
L 1150 3972 
Q 853 3972 728 3928 
Q 566 3869 450 3700 
Q 334 3531 313 3244 
L 194 3244 
L 244 4238 
L 3703 4238 
z
" transform="scale(0.015625)"/>
       <path id="TimesNewRomanPSMT-2d" d="M 259 1672 
L 1875 1672 
L 1875 1200 
L 259 1200 
L 259 1672 
z
" transform="scale(0.015625)"/>
       <path id="SimSun-ff08" d="M 5087 200 
Q 5475 -100 5425 -150 
Q 5375 -200 4950 87 
Q 4525 375 4137 850 
Q 3750 1325 3687 2100 
Q 3625 2875 4000 3487 
Q 4375 4100 4887 4462 
Q 5400 4825 5412 4762 
Q 5425 4700 5075 4425 
Q 4725 4125 4387 3600 
Q 4050 3075 4050 2250 
Q 4050 1425 4375 962 
Q 4700 500 5087 200 
z
" transform="scale(0.015625)"/>
       <path id="SimSun-6559" d="M 1725 4175 
Q 1725 4750 1700 5225 
L 2250 4950 
L 2050 4775 
L 2050 4175 
L 2250 4175 
L 2475 4400 
L 2850 4025 
L 2050 4025 
L 2050 3325 
L 2375 3325 
Q 2675 3750 2887 4112 
Q 3100 4475 3175 4675 
L 3625 4300 
L 3400 4225 
Q 3050 3725 2725 3325 
L 3025 3325 
L 3300 3600 
L 3725 3175 
L 2650 3175 
Q 2350 2850 2100 2575 
L 2700 2575 
L 2925 2800 
L 3300 2400 
Q 2825 2325 2225 1775 
L 2475 1600 
L 2275 1450 
L 2275 1225 
L 3550 1475 
L 3575 1375 
L 2275 1025 
L 2275 -75 
Q 2275 -500 1775 -650 
Q 1750 -350 1150 -175 
L 1150 -75 
Q 1750 -175 1850 -150 
Q 1950 -125 1950 25 
L 1950 950 
Q 825 650 750 500 
L 500 950 
Q 775 950 1950 1175 
Q 1950 1500 1925 1950 
L 2125 1825 
L 2675 2425 
L 1975 2425 
Q 1350 1850 425 1375 
L 350 1450 
Q 975 1800 1625 2425 
L 1150 2425 
L 925 2375 
L 725 2575 
L 1750 2575 
Q 2000 2825 2275 3175 
L 750 3175 
L 525 3125 
L 325 3325 
L 1725 3325 
L 1725 4025 
L 1125 4025 
L 900 3975 
L 700 4175 
L 1725 4175 
z
M 4200 3525 
L 4075 3225 
Q 4300 1850 4625 1200 
Q 5050 2125 5150 3525 
L 4200 3525 
z
M 4850 4975 
L 4625 4825 
Q 4425 4150 4250 3675 
L 5375 3675 
L 5675 3975 
L 6125 3525 
L 5500 3525 
Q 5325 1775 4800 900 
Q 5425 0 6150 -175 
L 6150 -275 
Q 5775 -275 5675 -525 
Q 5075 -100 4600 650 
Q 3775 -225 2575 -625 
L 2525 -550 
Q 3675 -75 4450 925 
Q 4050 1925 4000 3100 
Q 3750 2475 3350 1950 
L 3275 2000 
Q 3950 3250 4275 5250 
L 4850 4975 
z
" transform="scale(0.015625)"/>
       <path id="SimSun-80b2" d="M 2800 5200 
Q 3350 5000 3425 4887 
Q 3500 4775 3500 4700 
Q 3500 4575 3350 4400 
L 5075 4400 
L 5425 4750 
L 5875 4250 
L 2825 4250 
L 3175 4000 
Q 2925 3975 2525 3725 
Q 2100 3475 1600 3225 
L 4625 3275 
Q 4275 3600 3850 3825 
L 3900 3900 
Q 4325 3775 4775 3587 
Q 5225 3400 5275 3250 
Q 5325 3100 5325 3050 
Q 5325 2975 5275 2837 
Q 5225 2700 5150 2700 
Q 5100 2700 5050 2775 
Q 4925 2950 4725 3175 
Q 3900 3125 2812 3025 
Q 1725 2925 1475 2825 
L 1225 3300 
Q 1575 3350 2000 3675 
Q 2425 4000 2650 4250 
L 1325 4250 
Q 1000 4250 725 4175 
L 500 4400 
L 3175 4400 
Q 3125 4750 2750 5150 
L 2800 5200 
z
M 1975 2375 
L 1975 1700 
L 4475 1700 
L 4475 2375 
L 1975 2375 
z
M 1975 1550 
L 1975 900 
L 4475 900 
L 4475 1550 
L 1975 1550 
z
M 3500 25 
Q 4150 -25 4312 -12 
Q 4475 0 4475 225 
L 4475 750 
L 1975 750 
L 1975 -475 
L 1600 -650 
Q 1625 150 1625 1287 
Q 1625 2425 1600 2750 
L 1975 2525 
L 4450 2525 
L 4600 2775 
L 5000 2500 
L 4825 2325 
L 4825 25 
Q 4850 -425 4300 -600 
Q 4300 -200 3500 -75 
L 3500 25 
z
" transform="scale(0.015625)"/>
       <path id="SimSun-573a" d="M 5375 2775 
L 5625 3025 
L 6000 2650 
L 5775 2500 
Q 5675 775 5575 300 
Q 5475 -175 5237 -362 
Q 5000 -550 4775 -625 
Q 4675 -225 3975 0 
L 4000 100 
Q 4450 0 4787 -37 
Q 5125 -75 5225 450 
Q 5325 975 5425 2625 
L 4900 2625 
Q 4600 1225 3850 500 
Q 3100 -225 2025 -575 
L 2000 -475 
Q 3000 -25 3637 725 
Q 4275 1475 4500 2625 
L 3950 2625 
Q 3750 1975 3350 1387 
Q 2950 800 1975 300 
L 1925 400 
Q 2525 775 2950 1350 
Q 3375 1925 3550 2625 
L 2975 2625 
L 2750 2475 
L 2475 2825 
L 2750 2925 
Q 3725 3750 4550 4625 
L 2975 4625 
L 2700 4575 
L 2500 4775 
L 4550 4775 
L 4800 5025 
L 5200 4675 
L 4950 4550 
Q 3975 3550 3025 2775 
L 5375 2775 
z
M 1675 1250 
L 2725 1725 
L 2750 1625 
Q 925 600 550 250 
L 225 700 
Q 625 825 1300 1100 
L 1300 3250 
L 1100 3250 
Q 775 3250 500 3175 
L 275 3400 
L 1300 3400 
L 1300 4225 
Q 1300 4650 1275 5175 
L 1900 4875 
L 1675 4650 
L 1675 3400 
L 2050 3400 
L 2325 3675 
L 2750 3250 
L 1675 3250 
L 1675 1250 
z
" transform="scale(0.015625)"/>
       <path id="SimSun-666f" d="M 4075 900 
Q 4950 550 5387 300 
Q 5825 50 5775 -187 
Q 5725 -425 5625 -425 
Q 5525 -425 5350 -225 
Q 5025 175 4025 825 
L 4075 900 
z
M 2900 3425 
L 2950 3475 
Q 3350 3350 3487 3250 
Q 3625 3150 3625 3075 
Q 3625 2975 3500 2825 
L 5200 2825 
L 5625 3175 
L 6075 2675 
L 1175 2675 
Q 850 2675 575 2600 
L 350 2825 
L 3300 2825 
Q 3250 3125 2900 3425 
z
M 2000 2125 
L 2000 1425 
L 4500 1425 
L 4500 2125 
L 2000 2125 
z
M 2250 -25 
Q 2875 -150 3000 -112 
Q 3125 -75 3125 75 
L 3125 1275 
L 2000 1275 
L 2000 1175 
L 1650 1025 
Q 1675 1725 1650 2475 
L 2025 2275 
L 4450 2275 
L 4675 2500 
L 5050 2200 
L 4825 2050 
Q 4825 1475 4850 1175 
L 4500 1050 
L 4500 1275 
L 3475 1275 
L 3475 -75 
Q 3425 -500 2925 -650 
Q 2925 -350 2250 -125 
L 2250 -25 
z
M 2100 1025 
L 2525 600 
L 2250 575 
Q 2125 475 1587 175 
Q 1050 -125 400 -350 
L 350 -250 
Q 950 0 1475 412 
Q 2000 825 2100 1025 
z
M 1900 4725 
L 1900 4275 
L 4625 4275 
L 4625 4725 
L 1900 4725 
z
M 1900 4125 
L 1900 3650 
L 4625 3650 
L 4625 4125 
L 1900 4125 
z
M 1525 3150 
Q 1550 3675 1550 4162 
Q 1550 4650 1525 5100 
L 1925 4875 
L 4575 4875 
L 4775 5125 
L 5150 4800 
L 4975 4650 
Q 4975 4325 4975 4050 
Q 4975 3775 5000 3400 
L 4625 3250 
L 4625 3500 
L 1900 3500 
L 1900 3325 
L 1525 3150 
z
" transform="scale(0.015625)"/>
       <path id="SimSun-ff09" d="M 2337 875 
Q 1925 350 1437 62 
Q 950 -225 937 -162 
Q 925 -100 1300 175 
Q 1650 425 2037 1012 
Q 2425 1600 2375 2375 
Q 2325 3150 1987 3662 
Q 1650 4175 1300 4475 
Q 925 4775 937 4837 
Q 950 4900 1412 4587 
Q 1875 4275 2325 3662 
Q 2775 3050 2762 2225 
Q 2750 1400 2337 875 
z
" transform="scale(0.015625)"/>
      </defs>
      <use xlink:href="#TimesNewRomanPSMT-53"/>
      <use xlink:href="#TimesNewRomanPSMT-53" transform="translate(55.615234 0)"/>
      <use xlink:href="#TimesNewRomanPSMT-54" transform="translate(111.230469 0)"/>
      <use xlink:href="#TimesNewRomanPSMT-2d" transform="translate(163.189453 0)"/>
      <use xlink:href="#TimesNewRomanPSMT-32" transform="translate(196.490234 0)"/>
      <use xlink:href="#SimSun-ff08" transform="translate(246.490234 0)"/>
      <use xlink:href="#SimSun-6559" transform="translate(346.490234 0)"/>
      <use xlink:href="#SimSun-80b2" transform="translate(446.490234 0)"/>
      <use xlink:href="#SimSun-573a" transform="translate(546.490234 0)"/>
      <use xlink:href="#SimSun-666f" transform="translate(646.490234 0)"/>
      <use xlink:href="#SimSun-ff09" transform="translate(746.490234 0)"/>
     </g>
    </g>
    <g id="patch_15">
     <path d="M 432.334531 51.96125 
L 452.334531 51.96125 
L 452.334531 44.96125 
L 432.334531 44.96125 
z
" style="fill: #e07b39; stroke: #ffffff; stroke-linejoin: miter"/>
    </g>
    <g id="text_25">
     <!-- CWRU（工程场景） -->
     <g transform="translate(460.334531 51.96125) scale(0.1 -0.1)">
      <defs>
       <path id="TimesNewRomanPSMT-43" d="M 3853 4334 
L 3950 2894 
L 3853 2894 
Q 3659 3541 3300 3825 
Q 2941 4109 2438 4109 
Q 2016 4109 1675 3895 
Q 1334 3681 1139 3212 
Q 944 2744 944 2047 
Q 944 1472 1128 1050 
Q 1313 628 1683 403 
Q 2053 178 2528 178 
Q 2941 178 3256 354 
Q 3572 531 3950 1056 
L 4047 994 
Q 3728 428 3303 165 
Q 2878 -97 2294 -97 
Q 1241 -97 663 684 
Q 231 1266 231 2053 
Q 231 2688 515 3219 
Q 800 3750 1298 4042 
Q 1797 4334 2388 4334 
Q 2847 4334 3294 4109 
Q 3425 4041 3481 4041 
Q 3566 4041 3628 4100 
Q 3709 4184 3744 4334 
L 3853 4334 
z
" transform="scale(0.015625)"/>
       <path id="TimesNewRomanPSMT-57" d="M 5991 4238 
L 5991 4122 
Q 5825 4122 5722 4062 
Q 5619 4003 5525 3841 
Q 5463 3731 5328 3319 
L 4147 -97 
L 4022 -97 
L 3056 2613 
L 2097 -97 
L 1984 -97 
L 725 3422 
Q 584 3816 547 3888 
Q 484 4006 376 4064 
Q 269 4122 84 4122 
L 84 4238 
L 1653 4238 
L 1653 4122 
L 1578 4122 
Q 1413 4122 1325 4047 
Q 1238 3972 1238 3866 
Q 1238 3756 1375 3363 
L 2209 984 
L 2913 3006 
L 2788 3363 
L 2688 3647 
Q 2622 3803 2541 3922 
Q 2500 3981 2441 4022 
Q 2363 4078 2284 4103 
Q 2225 4122 2097 4122 
L 2097 4238 
L 3747 4238 
L 3747 4122 
L 3634 4122 
Q 3459 4122 3378 4047 
Q 3297 3972 3297 3844 
Q 3297 3684 3438 3288 
L 4250 984 
L 5056 3319 
Q 5194 3706 5194 3856 
Q 5194 3928 5148 3990 
Q 5103 4053 5034 4078 
Q 4916 4122 4725 4122 
L 4725 4238 
L 5991 4238 
z
" transform="scale(0.015625)"/>
       <path id="TimesNewRomanPSMT-52" d="M 4325 0 
L 3194 0 
L 1759 1981 
Q 1600 1975 1500 1975 
Q 1459 1975 1412 1976 
Q 1366 1978 1316 1981 
L 1316 750 
Q 1316 350 1403 253 
Q 1522 116 1759 116 
L 1925 116 
L 1925 0 
L 109 0 
L 109 116 
L 269 116 
Q 538 116 653 291 
Q 719 388 719 750 
L 719 3488 
Q 719 3888 631 3984 
Q 509 4122 269 4122 
L 109 4122 
L 109 4238 
L 1653 4238 
Q 2328 4238 2648 4139 
Q 2969 4041 3192 3777 
Q 3416 3513 3416 3147 
Q 3416 2756 3161 2468 
Q 2906 2181 2372 2063 
L 3247 847 
Q 3547 428 3762 290 
Q 3978 153 4325 116 
L 4325 0 
z
M 1316 2178 
Q 1375 2178 1419 2176 
Q 1463 2175 1491 2175 
Q 2097 2175 2405 2437 
Q 2713 2700 2713 3106 
Q 2713 3503 2464 3751 
Q 2216 4000 1806 4000 
Q 1625 4000 1316 3941 
L 1316 2178 
z
" transform="scale(0.015625)"/>
       <path id="TimesNewRomanPSMT-55" d="M 3053 4122 
L 3053 4238 
L 4553 4238 
L 4553 4122 
L 4394 4122 
Q 4144 4122 4009 3913 
Q 3944 3816 3944 3463 
L 3944 1744 
Q 3944 1106 3817 754 
Q 3691 403 3320 151 
Q 2950 -100 2313 -100 
Q 1619 -100 1259 140 
Q 900 381 750 788 
Q 650 1066 650 1831 
L 650 3488 
Q 650 3878 542 4000 
Q 434 4122 194 4122 
L 34 4122 
L 34 4238 
L 1866 4238 
L 1866 4122 
L 1703 4122 
Q 1441 4122 1328 3956 
Q 1250 3844 1250 3488 
L 1250 1641 
Q 1250 1394 1295 1075 
Q 1341 756 1459 578 
Q 1578 400 1801 284 
Q 2025 169 2350 169 
Q 2766 169 3094 350 
Q 3422 531 3542 814 
Q 3663 1097 3663 1772 
L 3663 3488 
Q 3663 3884 3575 3984 
Q 3453 4122 3213 4122 
L 3053 4122 
z
" transform="scale(0.015625)"/>
       <path id="SimSun-5de5" d="M 675 4350 
L 4825 4350 
L 5200 4725 
L 5725 4200 
L 3375 4200 
L 3375 125 
L 5050 125 
L 5475 550 
L 6050 -25 
L 1150 -25 
Q 825 -25 550 -100 
L 325 125 
L 3000 125 
L 3000 4200 
L 1500 4200 
Q 1175 4200 900 4125 
L 675 4350 
z
" transform="scale(0.015625)"/>
       <path id="SimSun-7a0b" d="M 3050 2750 
Q 3075 3325 3075 3887 
Q 3075 4450 3050 5000 
L 3425 4775 
L 5250 4775 
L 5475 5000 
L 5825 4650 
L 5600 4500 
Q 5600 3350 5625 3000 
L 5275 2875 
L 5275 3175 
L 3400 3175 
L 3400 2900 
L 3050 2750 
z
M 3400 4625 
L 3400 3325 
L 5275 3325 
L 5275 4625 
L 3400 4625 
z
M 2725 2425 
L 5325 2425 
L 5600 2700 
L 6000 2275 
L 4475 2275 
L 4475 1200 
L 5200 1200 
L 5475 1475 
L 5875 1050 
L 4475 1050 
L 4475 -100 
L 5450 -100 
L 5750 200 
L 6175 -250 
L 3175 -250 
Q 2850 -250 2575 -325 
L 2350 -100 
L 4150 -100 
L 4150 1050 
L 3700 1050 
Q 3375 1050 3100 975 
L 2875 1200 
L 4150 1200 
L 4150 2275 
L 3550 2275 
Q 3225 2275 2950 2200 
L 2725 2425 
z
M 1475 4525 
Q 1150 4475 425 4400 
L 425 4500 
Q 900 4575 1537 4775 
Q 2175 4975 2375 5150 
L 2700 4700 
Q 2475 4700 1800 4575 
L 1800 3325 
L 2175 3325 
L 2450 3600 
L 2850 3175 
L 1800 3175 
L 1800 2700 
Q 2325 2475 2487 2312 
Q 2650 2150 2650 2000 
Q 2650 1875 2587 1762 
Q 2525 1650 2475 1650 
Q 2400 1650 2300 1900 
Q 2150 2275 1800 2600 
Q 1800 0 1825 -450 
L 1450 -625 
Q 1475 325 1475 2275 
Q 1025 1125 300 350 
L 250 425 
Q 750 1200 1025 1925 
Q 1300 2650 1400 3175 
L 1050 3175 
Q 725 3175 450 3100 
L 225 3325 
L 1475 3325 
L 1475 4525 
z
" transform="scale(0.015625)"/>
      </defs>
      <use xlink:href="#TimesNewRomanPSMT-43"/>
      <use xlink:href="#TimesNewRomanPSMT-57" transform="translate(66.699219 0)"/>
      <use xlink:href="#TimesNewRomanPSMT-52" transform="translate(161.083984 0)"/>
      <use xlink:href="#TimesNewRomanPSMT-55" transform="translate(227.783203 0)"/>
      <use xlink:href="#SimSun-ff08" transform="translate(300 0)"/>
      <use xlink:href="#SimSun-5de5" transform="translate(400 0)"/>
      <use xlink:href="#SimSun-7a0b" transform="translate(500 0)"/>
      <use xlink:href="#SimSun-573a" transform="translate(600 0)"/>
      <use xlink:href="#SimSun-666f" transform="translate(700 0)"/>
      <use xlink:href="#SimSun-ff09" transform="translate(800 0)"/>
     </g>
    </g>
   </g>
  </g>
 </g>
 <defs>
  <clipPath id="pbf788a2799">
   <rect x="45.883594" y="21.7425" width="513.4525" height="304.07"/>
  </clipPath>
 </defs>
</svg>
