<?xml version="1.0" encoding="utf-8" standalone="no"?>
<!DOCTYPE svg PUBLIC "-//W3C//DTD SVG 1.1//EN"
  "http://www.w3.org/Graphics/SVG/1.1/DTD/svg11.dtd">
<svg xmlns:xlink="http://www.w3.org/1999/xlink" width="494.212031pt" height="348.874687pt" viewBox="0 0 494.212031 348.874687" xmlns="http://www.w3.org/2000/svg" version="1.1">
 <metadata>
  <rdf:RDF xmlns:dc="http://purl.org/dc/elements/1.1/" xmlns:cc="http://creativecommons.org/ns#" xmlns:rdf="http://www.w3.org/1999/02/22-rdf-syntax-ns#">
   <cc:Work>
    <dc:type rdf:resource="http://purl.org/dc/dcmitype/StillImage"/>
    <dc:date>2026-03-10T20:16:59.555782</dc:date>
    <dc:format>image/svg+xml</dc:format>
    <dc:creator>
     <cc:Agent>
      <dc:title>Matplotlib v3.10.3, https://matplotlib.org/</dc:title>
     </cc:Agent>
    </dc:creator>
   </cc:Work>
  </rdf:RDF>
 </metadata>
 <defs>
  <style type="text/css">*{stroke-linejoin: round; stroke-linecap: butt}</style>
 </defs>
 <g id="figure_1">
  <g id="patch_1">
   <path d="M 0 348.874687 
L 494.212031 348.874687 
L 494.212031 0 
L 0 0 
z
" style="fill: #ffffff"/>
  </g>
  <g id="axes_1">
   <g id="patch_2">
    <path d="M 40.969531 311.45125 
L 487.012031 311.45125 
L 487.012031 21.7425 
L 40.969531 21.7425 
z
" style="fill: #ffffff"/>
   </g>
   <g id="matplotlib.axis_1">
    <g id="xtick_1">
     <g id="line2d_1">
      <defs>
       <path id="mf0b3f5a545" d="M 0 0 
L 0 3.5 
" style="stroke: #000000; stroke-width: 0.8"/>
      </defs>
      <g>
       <use xlink:href="#mf0b3f5a545" x="61.24419" y="311.45125" style="stroke: #000000; stroke-width: 0.8"/>
      </g>
     </g>
     <g id="text_1">
      <!-- 10% -->
      <g transform="translate(52.079347 325.395) scale(0.1 -0.1)">
       <defs>
        <path id="TimesNewRomanPSMT-31" d="M 750 3822 
L 1781 4325 
L 1884 4325 
L 1884 747 
Q 1884 391 1914 303 
Q 1944 216 2037 169 
Q 2131 122 2419 116 
L 2419 0 
L 825 0 
L 825 116 
Q 1125 122 1212 167 
Q 1300 213 1334 289 
Q 1369 366 1369 747 
L 1369 3034 
Q 1369 3497 1338 3628 
Q 1316 3728 1258 3775 
Q 1200 3822 1119 3822 
Q 1003 3822 797 3725 
L 750 3822 
z
" transform="scale(0.015625)"/>
        <path id="TimesNewRomanPSMT-30" d="M 231 2094 
Q 231 2819 450 3342 
Q 669 3866 1031 4122 
Q 1313 4325 1613 4325 
Q 2100 4325 2488 3828 
Q 2972 3213 2972 2159 
Q 2972 1422 2759 906 
Q 2547 391 2217 158 
Q 1888 -75 1581 -75 
Q 975 -75 572 641 
Q 231 1244 231 2094 
z
M 844 2016 
Q 844 1141 1059 588 
Q 1238 122 1591 122 
Q 1759 122 1940 273 
Q 2122 425 2216 781 
Q 2359 1319 2359 2297 
Q 2359 3022 2209 3506 
Q 2097 3866 1919 4016 
Q 1791 4119 1609 4119 
Q 1397 4119 1231 3928 
Q 1006 3669 925 3112 
Q 844 2556 844 2016 
z
" transform="scale(0.015625)"/>
        <path id="TimesNewRomanPSMT-25" d="M 4350 4334 
L 1263 -175 
L 984 -175 
L 4072 4334 
L 4350 4334 
z
M 1138 4334 
Q 1559 4334 1792 3984 
Q 2025 3634 2025 3181 
Q 2025 2638 1762 2341 
Q 1500 2044 1131 2044 
Q 884 2044 678 2180 
Q 472 2316 348 2584 
Q 225 2853 225 3181 
Q 225 3509 350 3786 
Q 475 4063 692 4198 
Q 909 4334 1138 4334 
z
M 1128 4159 
Q 969 4159 845 3971 
Q 722 3784 722 3184 
Q 722 2750 791 2522 
Q 844 2350 956 2256 
Q 1022 2200 1119 2200 
Q 1269 2200 1375 2363 
Q 1531 2603 1531 3166 
Q 1531 3759 1378 4000 
Q 1278 4159 1128 4159 
z
M 4206 2103 
Q 4428 2103 4648 1962 
Q 4869 1822 4989 1553 
Q 5109 1284 5109 963 
Q 5109 409 4843 117 
Q 4578 -175 4216 -175 
Q 3988 -175 3773 -34 
Q 3559 106 3436 367 
Q 3313 628 3313 963 
Q 3313 1291 3436 1562 
Q 3559 1834 3773 1968 
Q 3988 2103 4206 2103 
z
M 4209 1938 
Q 4059 1938 3950 1769 
Q 3809 1550 3809 941 
Q 3809 381 3953 159 
Q 4059 0 4209 0 
Q 4353 0 4466 172 
Q 4616 400 4616 956 
Q 4616 1544 4466 1778 
Q 4363 1938 4209 1938 
z
" transform="scale(0.015625)"/>
       </defs>
       <use xlink:href="#TimesNewRomanPSMT-31"/>
       <use xlink:href="#TimesNewRomanPSMT-30" transform="translate(50 0)"/>
       <use xlink:href="#TimesNewRomanPSMT-25" transform="translate(100 0)"/>
      </g>
     </g>
    </g>
    <g id="xtick_2">
     <g id="line2d_2">
      <g>
       <use xlink:href="#mf0b3f5a545" x="106.298988" y="311.45125" style="stroke: #000000; stroke-width: 0.8"/>
      </g>
     </g>
     <g id="text_2">
      <!-- 20% -->
      <g transform="translate(97.134145 325.395) scale(0.1 -0.1)">
       <defs>
        <path id="TimesNewRomanPSMT-32" d="M 2934 816 
L 2638 0 
L 138 0 
L 138 116 
Q 1241 1122 1691 1759 
Q 2141 2397 2141 2925 
Q 2141 3328 1894 3587 
Q 1647 3847 1303 3847 
Q 991 3847 742 3664 
Q 494 3481 375 3128 
L 259 3128 
Q 338 3706 661 4015 
Q 984 4325 1469 4325 
Q 1984 4325 2329 3994 
Q 2675 3663 2675 3213 
Q 2675 2891 2525 2569 
Q 2294 2063 1775 1497 
Q 997 647 803 472 
L 1909 472 
Q 2247 472 2383 497 
Q 2519 522 2628 598 
Q 2738 675 2819 816 
L 2934 816 
z
" transform="scale(0.015625)"/>
       </defs>
       <use xlink:href="#TimesNewRomanPSMT-32"/>
       <use xlink:href="#TimesNewRomanPSMT-30" transform="translate(50 0)"/>
       <use xlink:href="#TimesNewRomanPSMT-25" transform="translate(100 0)"/>
      </g>
     </g>
    </g>
    <g id="xtick_3">
     <g id="line2d_3">
      <g>
       <use xlink:href="#mf0b3f5a545" x="151.353786" y="311.45125" style="stroke: #000000; stroke-width: 0.8"/>
      </g>
     </g>
     <g id="text_3">
      <!-- 30% -->
      <g transform="translate(142.188943 325.395) scale(0.1 -0.1)">
       <defs>
        <path id="TimesNewRomanPSMT-33" d="M 325 3431 
Q 506 3859 782 4092 
Q 1059 4325 1472 4325 
Q 1981 4325 2253 3994 
Q 2459 3747 2459 3466 
Q 2459 3003 1878 2509 
Q 2269 2356 2469 2072 
Q 2669 1788 2669 1403 
Q 2669 853 2319 450 
Q 1863 -75 997 -75 
Q 569 -75 414 31 
Q 259 138 259 259 
Q 259 350 332 419 
Q 406 488 509 488 
Q 588 488 669 463 
Q 722 447 909 348 
Q 1097 250 1169 231 
Q 1284 197 1416 197 
Q 1734 197 1970 444 
Q 2206 691 2206 1028 
Q 2206 1275 2097 1509 
Q 2016 1684 1919 1775 
Q 1784 1900 1550 2001 
Q 1316 2103 1072 2103 
L 972 2103 
L 972 2197 
Q 1219 2228 1467 2375 
Q 1716 2522 1828 2728 
Q 1941 2934 1941 3181 
Q 1941 3503 1739 3701 
Q 1538 3900 1238 3900 
Q 753 3900 428 3381 
L 325 3431 
z
" transform="scale(0.015625)"/>
       </defs>
       <use xlink:href="#TimesNewRomanPSMT-33"/>
       <use xlink:href="#TimesNewRomanPSMT-30" transform="translate(50 0)"/>
       <use xlink:href="#TimesNewRomanPSMT-25" transform="translate(100 0)"/>
      </g>
     </g>
    </g>
    <g id="xtick_4">
     <g id="line2d_4">
      <g>
       <use xlink:href="#mf0b3f5a545" x="196.408584" y="311.45125" style="stroke: #000000; stroke-width: 0.8"/>
      </g>
     </g>
     <g id="text_4">
      <!-- 40% -->
      <g transform="translate(187.243741 325.395) scale(0.1 -0.1)">
       <defs>
        <path id="TimesNewRomanPSMT-34" d="M 2978 1563 
L 2978 1119 
L 2409 1119 
L 2409 0 
L 1894 0 
L 1894 1119 
L 100 1119 
L 100 1519 
L 2066 4325 
L 2409 4325 
L 2409 1563 
L 2978 1563 
z
M 1894 1563 
L 1894 3666 
L 406 1563 
L 1894 1563 
z
" transform="scale(0.015625)"/>
       </defs>
       <use xlink:href="#TimesNewRomanPSMT-34"/>
       <use xlink:href="#TimesNewRomanPSMT-30" transform="translate(50 0)"/>
       <use xlink:href="#TimesNewRomanPSMT-25" transform="translate(100 0)"/>
      </g>
     </g>
    </g>
    <g id="xtick_5">
     <g id="line2d_5">
      <g>
       <use xlink:href="#mf0b3f5a545" x="241.463382" y="311.45125" style="stroke: #000000; stroke-width: 0.8"/>
      </g>
     </g>
     <g id="text_5">
      <!-- 50% -->
      <g transform="translate(232.298539 325.395) scale(0.1 -0.1)">
       <defs>
        <path id="TimesNewRomanPSMT-35" d="M 2778 4238 
L 2534 3706 
L 1259 3706 
L 981 3138 
Q 1809 3016 2294 2522 
Q 2709 2097 2709 1522 
Q 2709 1188 2573 903 
Q 2438 619 2231 419 
Q 2025 219 1772 97 
Q 1413 -75 1034 -75 
Q 653 -75 479 54 
Q 306 184 306 341 
Q 306 428 378 495 
Q 450 563 559 563 
Q 641 563 702 538 
Q 763 513 909 409 
Q 1144 247 1384 247 
Q 1750 247 2026 523 
Q 2303 800 2303 1197 
Q 2303 1581 2056 1914 
Q 1809 2247 1375 2428 
Q 1034 2569 447 2591 
L 1259 4238 
L 2778 4238 
z
" transform="scale(0.015625)"/>
       </defs>
       <use xlink:href="#TimesNewRomanPSMT-35"/>
       <use xlink:href="#TimesNewRomanPSMT-30" transform="translate(50 0)"/>
       <use xlink:href="#TimesNewRomanPSMT-25" transform="translate(100 0)"/>
      </g>
     </g>
    </g>
    <g id="xtick_6">
     <g id="line2d_6">
      <g>
       <use xlink:href="#mf0b3f5a545" x="286.51818" y="311.45125" style="stroke: #000000; stroke-width: 0.8"/>
      </g>
     </g>
     <g id="text_6">
      <!-- 60% -->
      <g transform="translate(277.353336 325.395) scale(0.1 -0.1)">
       <defs>
        <path id="TimesNewRomanPSMT-36" d="M 2869 4325 
L 2869 4209 
Q 2456 4169 2195 4045 
Q 1934 3922 1679 3669 
Q 1425 3416 1258 3105 
Q 1091 2794 978 2366 
Q 1428 2675 1881 2675 
Q 2316 2675 2634 2325 
Q 2953 1975 2953 1425 
Q 2953 894 2631 456 
Q 2244 -75 1606 -75 
Q 1172 -75 869 213 
Q 275 772 275 1663 
Q 275 2231 503 2743 
Q 731 3256 1154 3653 
Q 1578 4050 1965 4187 
Q 2353 4325 2688 4325 
L 2869 4325 
z
M 925 2138 
Q 869 1716 869 1456 
Q 869 1156 980 804 
Q 1091 453 1309 247 
Q 1469 100 1697 100 
Q 1969 100 2183 356 
Q 2397 613 2397 1088 
Q 2397 1622 2184 2012 
Q 1972 2403 1581 2403 
Q 1463 2403 1327 2353 
Q 1191 2303 925 2138 
z
" transform="scale(0.015625)"/>
       </defs>
       <use xlink:href="#TimesNewRomanPSMT-36"/>
       <use xlink:href="#TimesNewRomanPSMT-30" transform="translate(50 0)"/>
       <use xlink:href="#TimesNewRomanPSMT-25" transform="translate(100 0)"/>
      </g>
     </g>
    </g>
    <g id="xtick_7">
     <g id="line2d_7">
      <g>
       <use xlink:href="#mf0b3f5a545" x="331.572978" y="311.45125" style="stroke: #000000; stroke-width: 0.8"/>
      </g>
     </g>
     <g id="text_7">
      <!-- 70% -->
      <g transform="translate(322.408134 325.395) scale(0.1 -0.1)">
       <defs>
        <path id="TimesNewRomanPSMT-37" d="M 644 4238 
L 2916 4238 
L 2916 4119 
L 1503 -88 
L 1153 -88 
L 2419 3728 
L 1253 3728 
Q 900 3728 750 3644 
Q 488 3500 328 3200 
L 238 3234 
L 644 4238 
z
" transform="scale(0.015625)"/>
       </defs>
       <use xlink:href="#TimesNewRomanPSMT-37"/>
       <use xlink:href="#TimesNewRomanPSMT-30" transform="translate(50 0)"/>
       <use xlink:href="#TimesNewRomanPSMT-25" transform="translate(100 0)"/>
      </g>
     </g>
    </g>
    <g id="xtick_8">
     <g id="line2d_8">
      <g>
       <use xlink:href="#mf0b3f5a545" x="376.627776" y="311.45125" style="stroke: #000000; stroke-width: 0.8"/>
      </g>
     </g>
     <g id="text_8">
      <!-- 80% -->
      <g transform="translate(367.462932 325.395) scale(0.1 -0.1)">
       <defs>
        <path id="TimesNewRomanPSMT-38" d="M 1228 2134 
Q 725 2547 579 2797 
Q 434 3047 434 3316 
Q 434 3728 753 4026 
Q 1072 4325 1600 4325 
Q 2113 4325 2425 4047 
Q 2738 3769 2738 3413 
Q 2738 3175 2569 2928 
Q 2400 2681 1866 2347 
Q 2416 1922 2594 1678 
Q 2831 1359 2831 1006 
Q 2831 559 2490 242 
Q 2150 -75 1597 -75 
Q 994 -75 656 303 
Q 388 606 388 966 
Q 388 1247 577 1523 
Q 766 1800 1228 2134 
z
M 1719 2469 
Q 2094 2806 2194 3001 
Q 2294 3197 2294 3444 
Q 2294 3772 2109 3958 
Q 1925 4144 1606 4144 
Q 1288 4144 1088 3959 
Q 888 3775 888 3528 
Q 888 3366 970 3203 
Q 1053 3041 1206 2894 
L 1719 2469 
z
M 1375 2016 
Q 1116 1797 991 1539 
Q 866 1281 866 981 
Q 866 578 1086 336 
Q 1306 94 1647 94 
Q 1984 94 2187 284 
Q 2391 475 2391 747 
Q 2391 972 2272 1150 
Q 2050 1481 1375 2016 
z
" transform="scale(0.015625)"/>
       </defs>
       <use xlink:href="#TimesNewRomanPSMT-38"/>
       <use xlink:href="#TimesNewRomanPSMT-30" transform="translate(50 0)"/>
       <use xlink:href="#TimesNewRomanPSMT-25" transform="translate(100 0)"/>
      </g>
     </g>
    </g>
    <g id="xtick_9">
     <g id="line2d_9">
      <g>
       <use xlink:href="#mf0b3f5a545" x="421.682574" y="311.45125" style="stroke: #000000; stroke-width: 0.8"/>
      </g>
     </g>
     <g id="text_9">
      <!-- 90% -->
      <g transform="translate(412.51773 325.395) scale(0.1 -0.1)">
       <defs>
        <path id="TimesNewRomanPSMT-39" d="M 338 -88 
L 338 28 
Q 744 34 1094 217 
Q 1444 400 1770 856 
Q 2097 1313 2225 1859 
Q 1734 1544 1338 1544 
Q 891 1544 572 1889 
Q 253 2234 253 2806 
Q 253 3363 572 3797 
Q 956 4325 1575 4325 
Q 2097 4325 2469 3894 
Q 2925 3359 2925 2575 
Q 2925 1869 2578 1258 
Q 2231 647 1613 244 
Q 1109 -88 516 -88 
L 338 -88 
z
M 2275 2091 
Q 2331 2497 2331 2741 
Q 2331 3044 2228 3395 
Q 2125 3747 1936 3934 
Q 1747 4122 1506 4122 
Q 1228 4122 1018 3872 
Q 809 3622 809 3128 
Q 809 2469 1088 2097 
Q 1291 1828 1588 1828 
Q 1731 1828 1928 1897 
Q 2125 1966 2275 2091 
z
" transform="scale(0.015625)"/>
       </defs>
       <use xlink:href="#TimesNewRomanPSMT-39"/>
       <use xlink:href="#TimesNewRomanPSMT-30" transform="translate(50 0)"/>
       <use xlink:href="#TimesNewRomanPSMT-25" transform="translate(100 0)"/>
      </g>
     </g>
    </g>
    <g id="xtick_10">
     <g id="line2d_10">
      <g>
       <use xlink:href="#mf0b3f5a545" x="466.737372" y="311.45125" style="stroke: #000000; stroke-width: 0.8"/>
      </g>
     </g>
     <g id="text_10">
      <!-- 100% -->
      <g transform="translate(455.072528 325.395) scale(0.1 -0.1)">
       <use xlink:href="#TimesNewRomanPSMT-31"/>
       <use xlink:href="#TimesNewRomanPSMT-30" transform="translate(50 0)"/>
       <use xlink:href="#TimesNewRomanPSMT-30" transform="translate(100 0)"/>
       <use xlink:href="#TimesNewRomanPSMT-25" transform="translate(150 0)"/>
      </g>
     </g>
    </g>
    <g id="text_11">
     <!-- 遮蔽比例 -->
     <g transform="translate(241.990781 339.321719) scale(0.11 -0.11)">
      <defs>
       <path id="SimSun-906e" d="M 3775 3075 
L 3775 2100 
L 4600 2100 
L 4600 3075 
L 3775 3075 
z
M 2725 4150 
L 2725 3225 
L 3475 3225 
L 3475 4150 
L 2725 4150 
z
M 3050 1475 
Q 3025 975 2937 737 
Q 2850 500 2675 462 
Q 2500 425 2412 475 
Q 2325 525 2325 600 
Q 2325 675 2475 800 
Q 2725 1000 2975 1500 
L 3050 1475 
z
M 3425 1425 
L 3475 1475 
Q 3875 1125 3937 1000 
Q 4000 875 4000 775 
Q 4000 675 3950 587 
Q 3900 500 3775 450 
Q 3650 400 3625 725 
Q 3600 1025 3425 1425 
z
M 4350 1475 
Q 4875 1125 4912 912 
Q 4950 700 4837 587 
Q 4725 475 4675 475 
Q 4600 475 4575 675 
Q 4525 975 4300 1425 
L 4350 1475 
z
M 5100 1475 
L 5150 1525 
Q 5725 1175 5800 1037 
Q 5875 900 5875 800 
Q 5875 650 5775 537 
Q 5675 425 5625 425 
Q 5550 425 5525 625 
Q 5450 925 5100 1475 
z
M 1750 700 
Q 2400 1575 2425 2950 
Q 2425 3975 2400 4550 
L 2725 4300 
L 4025 4300 
Q 4025 4625 3675 5100 
L 3725 5150 
Q 4225 4925 4312 4787 
Q 4400 4650 4400 4600 
Q 4400 4475 4250 4300 
L 5125 4300 
L 5475 4675 
L 5900 4150 
L 3500 4150 
L 3950 3925 
L 3775 3775 
L 3775 3225 
L 4600 3225 
Q 4600 3725 4575 4125 
L 5100 3875 
L 4900 3750 
L 4900 3225 
L 5300 3225 
L 5600 3525 
L 5975 3075 
L 4900 3075 
Q 4900 2250 4925 1825 
L 4600 1700 
L 4600 1950 
L 3775 1950 
L 3775 1750 
L 3450 1650 
Q 3475 2150 3475 3075 
L 2725 3075 
L 2725 2700 
Q 2625 1400 1825 650 
L 1750 700 
z
M 775 5000 
L 850 5050 
Q 1275 4800 1487 4600 
Q 1700 4400 1675 4212 
Q 1650 4025 1537 3925 
Q 1425 3825 1400 3825 
Q 1300 3825 1225 4125 
Q 1125 4525 775 5000 
z
M 1550 725 
Q 1750 500 2150 287 
Q 2550 75 3650 25 
Q 4750 -25 6125 125 
L 6125 25 
Q 5625 -100 5650 -425 
Q 4450 -425 3725 -400 
Q 3000 -375 2512 -187 
Q 2025 0 1775 275 
Q 1500 550 1375 575 
Q 1250 600 962 300 
Q 675 0 600 -175 
L 225 150 
Q 625 475 1225 750 
L 1225 2875 
L 1075 2875 
Q 750 2875 475 2800 
L 250 3025 
L 1200 3025 
L 1375 3300 
L 1800 2975 
L 1550 2775 
L 1550 725 
z
" transform="scale(0.015625)"/>
       <path id="SimSun-853d" d="M 850 3700 
L 900 3750 
Q 1375 3475 1450 3337 
Q 1525 3200 1525 3150 
Q 1525 3050 1450 2950 
Q 1375 2850 1350 2850 
Q 1275 2850 1200 3075 
Q 1100 3400 850 3700 
z
M 650 -600 
Q 675 -25 675 1137 
Q 675 2300 650 2950 
L 1050 2725 
L 1825 2725 
L 1825 3950 
L 2350 3650 
L 2125 3525 
L 2125 2725 
L 2875 2725 
L 3100 2950 
L 3400 2650 
L 3225 2500 
L 3225 125 
Q 3225 -125 3125 -237 
Q 3025 -350 2800 -450 
Q 2700 -150 2250 25 
L 2250 125 
Q 2650 50 2787 37 
Q 2925 25 2925 250 
L 2925 2575 
L 2125 2575 
L 2125 -275 
L 1825 -500 
L 1825 2575 
L 1000 2575 
L 1000 -350 
L 650 -600 
z
M 2825 3775 
L 3225 3475 
Q 3025 3450 2875 3275 
Q 2700 3100 2375 2800 
L 2300 2850 
Q 2625 3300 2825 3775 
z
M 2250 2050 
Q 2725 1475 2762 1350 
Q 2800 1225 2800 1150 
Q 2800 975 2725 862 
Q 2650 750 2600 750 
Q 2525 750 2475 1075 
Q 2400 1525 2175 2025 
L 2250 2050 
z
M 3850 2425 
Q 3625 1950 3350 1600 
L 3250 1625 
Q 3500 2050 3712 2750 
Q 3925 3450 3975 3825 
L 4500 3550 
Q 4325 3475 4250 3312 
Q 4175 3150 4025 2825 
L 5400 2825 
L 5675 3100 
L 6075 2700 
L 5450 2700 
Q 5175 1175 4750 550 
Q 5350 -75 6125 -175 
L 6125 -250 
Q 5800 -325 5700 -525 
Q 5000 -150 4575 350 
Q 3975 -275 3100 -650 
L 3075 -550 
Q 3925 -75 4400 575 
Q 4075 1175 3850 2425 
z
M 2175 3800 
L 2175 4275 
L 1175 4275 
Q 850 4275 575 4200 
L 350 4425 
L 2175 4425 
Q 2175 4825 2150 5250 
L 2700 4975 
L 2500 4850 
L 2500 4425 
L 3850 4425 
Q 3850 4825 3825 5225 
L 4350 5000 
L 4175 4850 
L 4175 4425 
L 5150 4425 
L 5575 4775 
L 6075 4275 
L 4175 4275 
L 4175 4000 
L 3850 3825 
L 3850 4275 
L 2500 4275 
L 2500 3925 
L 2175 3800 
z
M 1100 625 
L 1025 650 
Q 1350 1725 1375 2175 
L 1800 1950 
Q 1675 1800 1500 1425 
Q 1325 1050 1100 625 
z
M 3975 2675 
L 3925 2575 
Q 4150 1525 4575 800 
Q 4925 1475 5125 2675 
L 3975 2675 
z
" transform="scale(0.015625)"/>
       <path id="SimSun-6bd4" d="M 1050 3400 
Q 1050 4525 1025 5075 
L 1625 4800 
L 1400 4600 
L 1400 2925 
L 2400 2925 
L 2700 3225 
L 3150 2775 
L 1400 2775 
L 1400 350 
L 3050 925 
L 3100 825 
Q 1625 150 1250 -250 
L 950 175 
Q 1050 275 1050 525 
L 1050 3400 
z
M 3425 3825 
Q 3425 4575 3400 5125 
L 4025 4825 
L 3775 4625 
L 3775 2525 
Q 4300 2925 4712 3400 
Q 5125 3875 5275 4175 
L 5775 3700 
Q 5475 3650 5025 3250 
Q 4550 2850 3775 2375 
L 3775 425 
Q 3775 125 4100 125 
L 5125 125 
Q 5325 125 5400 350 
Q 5475 575 5500 1425 
L 5625 1425 
Q 5625 825 5712 550 
Q 5800 275 6000 175 
Q 5875 -25 5712 -112 
Q 5550 -200 5275 -200 
L 3975 -200 
Q 3425 -200 3425 275 
L 3425 3825 
z
" transform="scale(0.015625)"/>
       <path id="SimSun-4f8b" d="M 3900 3000 
Q 3625 1850 3300 1250 
Q 2975 650 2550 250 
Q 2125 -150 1625 -400 
L 1575 -325 
Q 2175 100 2525 575 
Q 2875 1050 3112 1625 
Q 3350 2200 3550 3075 
L 2700 3075 
Q 2550 2725 2400 2450 
Q 2775 2200 2875 2050 
Q 2975 1900 2975 1825 
Q 2975 1700 2887 1587 
Q 2800 1475 2775 1475 
Q 2700 1475 2650 1725 
Q 2575 2050 2350 2350 
Q 2125 1950 1750 1550 
L 1675 1625 
Q 2100 2200 2362 3012 
Q 2625 3825 2675 4250 
L 2325 4250 
L 2050 4200 
L 1825 4400 
L 3600 4400 
L 3875 4675 
L 4300 4250 
L 3075 4250 
Q 3000 3975 2750 3225 
L 3525 3225 
L 3725 3475 
L 4150 3150 
L 3900 3000 
z
M 4725 2000 
Q 4725 1750 4750 975 
L 4375 800 
Q 4400 1625 4400 1900 
L 4400 3300 
Q 4400 3725 4375 4075 
L 4925 3825 
L 4725 3625 
L 4725 2000 
z
M 5350 3950 
Q 5350 4375 5325 5125 
L 5875 4850 
L 5675 4700 
L 5675 -25 
Q 5700 -425 5175 -600 
Q 5150 -275 4400 -125 
L 4425 0 
Q 5050 -100 5200 -62 
Q 5350 -25 5350 225 
L 5350 3950 
z
M 1100 -600 
Q 1125 225 1125 575 
L 1125 3150 
Q 625 2375 325 2050 
L 250 2100 
Q 800 3025 1075 3800 
Q 1350 4575 1475 5200 
L 2025 4900 
L 1825 4775 
Q 1425 3825 1300 3525 
L 1650 3375 
L 1450 3200 
L 1450 525 
Q 1450 100 1475 -425 
L 1100 -600 
z
" transform="scale(0.015625)"/>
      </defs>
      <use xlink:href="#SimSun-906e"/>
      <use xlink:href="#SimSun-853d" transform="translate(100 0)"/>
      <use xlink:href="#SimSun-6bd4" transform="translate(200 0)"/>
      <use xlink:href="#SimSun-4f8b" transform="translate(300 0)"/>
     </g>
    </g>
   </g>
   <g id="matplotlib.axis_2">
    <g id="ytick_1">
     <g id="line2d_11">
      <path d="M 40.969531 311.45125 
L 487.012031 311.45125 
" clip-path="url(#pcbd44a510c)" style="fill: none; stroke: #cccccc; stroke-opacity: 0.4; stroke-width: 0.6; stroke-linecap: square"/>
     </g>
     <g id="line2d_12">
      <defs>
       <path id="m1071b3cf41" d="M 0 0 
L -3.5 0 
" style="stroke: #000000; stroke-width: 0.8"/>
      </defs>
      <g>
       <use xlink:href="#m1071b3cf41" x="40.969531" y="311.45125" style="stroke: #000000; stroke-width: 0.8"/>
      </g>
     </g>
     <g id="text_12">
      <!-- 0.0 -->
      <g transform="translate(21.469531 314.923125) scale(0.1 -0.1)">
       <defs>
        <path id="TimesNewRomanPSMT-2e" d="M 800 606 
Q 947 606 1047 504 
Q 1147 403 1147 259 
Q 1147 116 1045 14 
Q 944 -88 800 -88 
Q 656 -88 554 14 
Q 453 116 453 259 
Q 453 406 554 506 
Q 656 606 800 606 
z
" transform="scale(0.015625)"/>
       </defs>
       <use xlink:href="#TimesNewRomanPSMT-30"/>
       <use xlink:href="#TimesNewRomanPSMT-2e" transform="translate(50 0)"/>
       <use xlink:href="#TimesNewRomanPSMT-30" transform="translate(75 0)"/>
      </g>
     </g>
    </g>
    <g id="ytick_2">
     <g id="line2d_13">
      <path d="M 40.969531 276.151321 
L 487.012031 276.151321 
" clip-path="url(#pcbd44a510c)" style="fill: none; stroke: #cccccc; stroke-opacity: 0.4; stroke-width: 0.6; stroke-linecap: square"/>
     </g>
     <g id="line2d_14">
      <g>
       <use xlink:href="#m1071b3cf41" x="40.969531" y="276.151321" style="stroke: #000000; stroke-width: 0.8"/>
      </g>
     </g>
     <g id="text_13">
      <!-- 0.1 -->
      <g transform="translate(21.469531 279.623196) scale(0.1 -0.1)">
       <use xlink:href="#TimesNewRomanPSMT-30"/>
       <use xlink:href="#TimesNewRomanPSMT-2e" transform="translate(50 0)"/>
       <use xlink:href="#TimesNewRomanPSMT-31" transform="translate(75 0)"/>
      </g>
     </g>
    </g>
    <g id="ytick_3">
     <g id="line2d_15">
      <path d="M 40.969531 240.851392 
L 487.012031 240.851392 
" clip-path="url(#pcbd44a510c)" style="fill: none; stroke: #cccccc; stroke-opacity: 0.4; stroke-width: 0.6; stroke-linecap: square"/>
     </g>
     <g id="line2d_16">
      <g>
       <use xlink:href="#m1071b3cf41" x="40.969531" y="240.851392" style="stroke: #000000; stroke-width: 0.8"/>
      </g>
     </g>
     <g id="text_14">
      <!-- 0.2 -->
      <g transform="translate(21.469531 244.323267) scale(0.1 -0.1)">
       <use xlink:href="#TimesNewRomanPSMT-30"/>
       <use xlink:href="#TimesNewRomanPSMT-2e" transform="translate(50 0)"/>
       <use xlink:href="#TimesNewRomanPSMT-32" transform="translate(75 0)"/>
      </g>
     </g>
    </g>
    <g id="ytick_4">
     <g id="line2d_17">
      <path d="M 40.969531 205.551463 
L 487.012031 205.551463 
" clip-path="url(#pcbd44a510c)" style="fill: none; stroke: #cccccc; stroke-opacity: 0.4; stroke-width: 0.6; stroke-linecap: square"/>
     </g>
     <g id="line2d_18">
      <g>
       <use xlink:href="#m1071b3cf41" x="40.969531" y="205.551463" style="stroke: #000000; stroke-width: 0.8"/>
      </g>
     </g>
     <g id="text_15">
      <!-- 0.3 -->
      <g transform="translate(21.469531 209.023338) scale(0.1 -0.1)">
       <use xlink:href="#TimesNewRomanPSMT-30"/>
       <use xlink:href="#TimesNewRomanPSMT-2e" transform="translate(50 0)"/>
       <use xlink:href="#TimesNewRomanPSMT-33" transform="translate(75 0)"/>
      </g>
     </g>
    </g>
    <g id="ytick_5">
     <g id="line2d_19">
      <path d="M 40.969531 170.251535 
L 487.012031 170.251535 
" clip-path="url(#pcbd44a510c)" style="fill: none; stroke: #cccccc; stroke-opacity: 0.4; stroke-width: 0.6; stroke-linecap: square"/>
     </g>
     <g id="line2d_20">
      <g>
       <use xlink:href="#m1071b3cf41" x="40.969531" y="170.251535" style="stroke: #000000; stroke-width: 0.8"/>
      </g>
     </g>
     <g id="text_16">
      <!-- 0.4 -->
      <g transform="translate(21.469531 173.72341) scale(0.1 -0.1)">
       <use xlink:href="#TimesNewRomanPSMT-30"/>
       <use xlink:href="#TimesNewRomanPSMT-2e" transform="translate(50 0)"/>
       <use xlink:href="#TimesNewRomanPSMT-34" transform="translate(75 0)"/>
      </g>
     </g>
    </g>
    <g id="ytick_6">
     <g id="line2d_21">
      <path d="M 40.969531 134.951606 
L 487.012031 134.951606 
" clip-path="url(#pcbd44a510c)" style="fill: none; stroke: #cccccc; stroke-opacity: 0.4; stroke-width: 0.6; stroke-linecap: square"/>
     </g>
     <g id="line2d_22">
      <g>
       <use xlink:href="#m1071b3cf41" x="40.969531" y="134.951606" style="stroke: #000000; stroke-width: 0.8"/>
      </g>
     </g>
     <g id="text_17">
      <!-- 0.5 -->
      <g transform="translate(21.469531 138.423481) scale(0.1 -0.1)">
       <use xlink:href="#TimesNewRomanPSMT-30"/>
       <use xlink:href="#TimesNewRomanPSMT-2e" transform="translate(50 0)"/>
       <use xlink:href="#TimesNewRomanPSMT-35" transform="translate(75 0)"/>
      </g>
     </g>
    </g>
    <g id="ytick_7">
     <g id="line2d_23">
      <path d="M 40.969531 99.651677 
L 487.012031 99.651677 
" clip-path="url(#pcbd44a510c)" style="fill: none; stroke: #cccccc; stroke-opacity: 0.4; stroke-width: 0.6; stroke-linecap: square"/>
     </g>
     <g id="line2d_24">
      <g>
       <use xlink:href="#m1071b3cf41" x="40.969531" y="99.651677" style="stroke: #000000; stroke-width: 0.8"/>
      </g>
     </g>
     <g id="text_18">
      <!-- 0.6 -->
      <g transform="translate(21.469531 103.123552) scale(0.1 -0.1)">
       <use xlink:href="#TimesNewRomanPSMT-30"/>
       <use xlink:href="#TimesNewRomanPSMT-2e" transform="translate(50 0)"/>
       <use xlink:href="#TimesNewRomanPSMT-36" transform="translate(75 0)"/>
      </g>
     </g>
    </g>
    <g id="ytick_8">
     <g id="line2d_25">
      <path d="M 40.969531 64.351748 
L 487.012031 64.351748 
" clip-path="url(#pcbd44a510c)" style="fill: none; stroke: #cccccc; stroke-opacity: 0.4; stroke-width: 0.6; stroke-linecap: square"/>
     </g>
     <g id="line2d_26">
      <g>
       <use xlink:href="#m1071b3cf41" x="40.969531" y="64.351748" style="stroke: #000000; stroke-width: 0.8"/>
      </g>
     </g>
     <g id="text_19">
      <!-- 0.7 -->
      <g transform="translate(21.469531 67.823623) scale(0.1 -0.1)">
       <use xlink:href="#TimesNewRomanPSMT-30"/>
       <use xlink:href="#TimesNewRomanPSMT-2e" transform="translate(50 0)"/>
       <use xlink:href="#TimesNewRomanPSMT-37" transform="translate(75 0)"/>
      </g>
     </g>
    </g>
    <g id="ytick_9">
     <g id="line2d_27">
      <path d="M 40.969531 29.051819 
L 487.012031 29.051819 
" clip-path="url(#pcbd44a510c)" style="fill: none; stroke: #cccccc; stroke-opacity: 0.4; stroke-width: 0.6; stroke-linecap: square"/>
     </g>
     <g id="line2d_28">
      <g>
       <use xlink:href="#m1071b3cf41" x="40.969531" y="29.051819" style="stroke: #000000; stroke-width: 0.8"/>
      </g>
     </g>
     <g id="text_20">
      <!-- 0.8 -->
      <g transform="translate(21.469531 32.523694) scale(0.1 -0.1)">
       <use xlink:href="#TimesNewRomanPSMT-30"/>
       <use xlink:href="#TimesNewRomanPSMT-2e" transform="translate(50 0)"/>
       <use xlink:href="#TimesNewRomanPSMT-38" transform="translate(75 0)"/>
      </g>
     </g>
    </g>
    <g id="text_21">
     <!-- 预测概率下降幅度 -->
     <g transform="translate(15.116562 210.596875) rotate(-90) scale(0.11 -0.11)">
      <defs>
       <path id="SimSun-9884" d="M 475 4825 
L 2225 4825 
L 2425 5075 
L 2825 4675 
Q 2600 4625 2387 4412 
Q 2175 4200 1800 3750 
Q 2050 3575 2037 3400 
Q 2025 3225 1937 3150 
Q 1850 3075 1825 3075 
Q 1725 3075 1650 3300 
Q 1525 3600 1050 4100 
L 1100 4150 
Q 1475 3975 1700 3825 
L 2225 4675 
L 1300 4675 
Q 975 4675 700 4600 
L 475 4825 
z
M 725 100 
Q 1175 50 1362 37 
Q 1550 25 1550 275 
L 1550 2875 
L 1125 2875 
Q 800 2875 525 2800 
L 300 3025 
L 2525 3025 
L 2725 3275 
L 3150 2875 
Q 2800 2825 2275 2075 
L 2200 2125 
L 2550 2875 
L 1875 2875 
L 1875 150 
Q 1875 -400 1350 -500 
Q 1325 -175 725 0 
L 725 100 
z
M 3250 775 
Q 3275 1425 3275 2287 
Q 3275 3150 3250 3900 
L 3600 3700 
L 4050 3700 
Q 4175 4400 4200 4675 
L 3650 4675 
Q 3325 4675 3050 4600 
L 2825 4825 
L 5325 4825 
L 5675 5150 
L 6125 4675 
L 4675 4675 
Q 4500 4425 4175 3700 
L 5300 3700 
L 5475 3975 
L 5875 3675 
L 5675 3475 
L 5675 1950 
Q 5675 1525 5700 1075 
L 5350 875 
L 5350 3550 
L 3600 3550 
L 3600 1000 
L 3250 775 
z
M 4850 2875 
L 4625 2675 
Q 4625 1475 4475 937 
Q 4325 400 3900 50 
Q 3475 -300 2425 -625 
L 2400 -550 
Q 3500 -50 3837 400 
Q 4175 850 4237 1587 
Q 4300 2325 4275 3175 
L 4850 2875 
z
M 4650 950 
Q 5725 375 5875 212 
Q 6025 50 6025 -125 
Q 6025 -225 5962 -387 
Q 5900 -550 5850 -550 
Q 5800 -550 5750 -450 
Q 5625 -250 5437 0 
Q 5250 250 4600 875 
L 4650 950 
z
" transform="scale(0.015625)"/>
       <path id="SimSun-6d4b" d="M 1975 1000 
Q 2000 1475 2000 2925 
Q 2000 4375 1975 5000 
L 2350 4775 
L 3575 4775 
L 3775 4975 
L 4100 4650 
L 3900 4500 
L 3900 2350 
Q 3900 1850 3925 1350 
L 3600 1200 
L 3600 4625 
L 2325 4625 
L 2325 1150 
L 1975 1000 
z
M 2775 3975 
L 3300 3700 
L 3125 3525 
Q 3150 1825 2875 937 
Q 2600 50 1375 -600 
L 1325 -500 
Q 2200 100 2475 725 
Q 2750 1350 2775 2187 
Q 2800 3025 2775 3975 
z
M 3100 950 
Q 3825 450 3937 262 
Q 4050 75 4050 -25 
Q 4050 -150 3975 -262 
Q 3900 -375 3850 -375 
Q 3750 -375 3650 -75 
Q 3500 375 3050 875 
L 3100 950 
z
M 4475 825 
Q 4500 1200 4500 1700 
L 4500 3400 
Q 4500 3950 4475 4300 
L 5025 4025 
L 4825 3825 
L 4825 1700 
Q 4825 1325 4850 950 
L 4475 825 
z
M 5375 150 
L 5375 4050 
Q 5375 4750 5350 5125 
L 5875 4875 
L 5700 4700 
L 5700 75 
Q 5700 -200 5600 -350 
Q 5500 -500 5200 -600 
Q 5025 -225 4450 -50 
L 4450 50 
Q 5125 -50 5250 -37 
Q 5375 -25 5375 150 
z
M 1850 3500 
Q 1375 1525 1300 1225 
Q 1200 900 1212 450 
Q 1225 0 1250 -175 
Q 1250 -275 1125 -275 
Q 1025 -275 875 -225 
Q 725 -175 725 0 
Q 725 125 800 375 
Q 875 625 875 775 
Q 875 950 762 1050 
Q 650 1150 275 1250 
L 275 1350 
Q 725 1300 837 1312 
Q 950 1325 1087 1537 
Q 1225 1750 1750 3525 
L 1850 3500 
z
M 375 3775 
Q 1075 3350 1112 3100 
Q 1150 2850 1050 2775 
Q 950 2700 900 2700 
Q 800 2700 725 2975 
Q 600 3350 325 3700 
L 375 3775 
z
M 800 5100 
Q 1475 4725 1550 4512 
Q 1625 4300 1525 4187 
Q 1425 4075 1350 4075 
Q 1275 4075 1200 4300 
Q 1075 4650 750 5025 
L 800 5100 
z
" transform="scale(0.015625)"/>
       <path id="SimSun-6982" d="M 2700 4500 
L 2700 3450 
L 3375 3450 
L 3375 4500 
L 2700 4500 
z
M 2700 3300 
L 2700 2300 
L 3375 2300 
L 3375 3300 
L 2700 3300 
z
M 2700 725 
L 3425 1200 
Q 3350 1375 3025 1775 
L 3050 1850 
Q 3550 1525 3712 1337 
Q 3875 1150 3875 1000 
Q 3875 875 3800 750 
Q 3725 625 3700 625 
Q 3650 625 3625 725 
Q 3550 900 3475 1100 
Q 2900 600 2575 150 
L 2325 475 
Q 2400 625 2400 950 
L 2400 3475 
Q 2400 3975 2375 4825 
L 2700 4650 
L 3350 4650 
L 3550 4850 
L 3875 4525 
L 3650 4400 
Q 3650 2825 3675 2150 
L 3375 1975 
L 3375 2150 
L 2700 2150 
L 2700 725 
z
M 5025 2400 
L 4950 2075 
L 5350 1850 
L 5175 1675 
L 5175 100 
Q 5175 -125 5350 -125 
L 5525 -125 
Q 5750 -125 5762 162 
Q 5775 450 5775 825 
L 5900 825 
Q 5900 450 5962 225 
Q 6025 0 6150 -75 
Q 6075 -250 5950 -325 
Q 5825 -400 5625 -400 
L 5225 -400 
Q 4875 -400 4875 0 
L 4875 1825 
Q 4350 75 2650 -650 
L 2625 -575 
Q 4275 350 4700 2400 
L 4225 2400 
L 4050 2250 
L 3775 2550 
Q 3925 2625 4012 2975 
Q 4100 3325 4225 4075 
L 4600 3850 
Q 4475 3800 4425 3575 
Q 4375 3325 4200 2550 
L 4725 2550 
Q 4800 3100 4850 4500 
L 4425 4500 
L 4200 4450 
L 4000 4650 
L 5400 4650 
L 5650 4900 
L 6050 4500 
L 5175 4500 
Q 5100 3100 5050 2550 
L 5400 2550 
L 5675 2825 
L 6100 2400 
L 5025 2400 
z
M 1550 775 
Q 1550 425 1575 -450 
L 1225 -625 
Q 1250 850 1250 2400 
Q 925 1525 300 750 
L 250 825 
Q 575 1400 825 2062 
Q 1075 2725 1225 3575 
L 775 3575 
L 550 3525 
L 350 3725 
L 1250 3725 
Q 1250 4400 1225 5275 
L 1750 5000 
L 1550 4850 
L 1550 3725 
L 1675 3725 
L 1925 3975 
L 2325 3575 
L 1550 3575 
L 1550 3000 
Q 2025 2800 2175 2650 
Q 2325 2500 2325 2350 
Q 2325 2250 2262 2100 
Q 2200 1950 2175 1950 
Q 2100 1950 2000 2200 
Q 1850 2550 1550 2850 
L 1550 775 
z
" transform="scale(0.015625)"/>
       <path id="SimSun-7387" d="M 875 3725 
L 925 3800 
Q 1375 3650 1550 3525 
Q 1725 3400 1725 3250 
Q 1725 3175 1662 3025 
Q 1600 2875 1550 2875 
Q 1500 2875 1425 3050 
Q 1275 3325 875 3725 
z
M 550 1850 
Q 875 1925 2000 2575 
L 2050 2500 
Q 1675 2225 1337 1937 
Q 1000 1650 875 1425 
L 550 1850 
z
M 5200 3450 
Q 4800 3150 4275 2800 
L 4225 2875 
Q 4775 3400 5050 3925 
L 5450 3525 
L 5200 3450 
z
M 4325 2500 
L 4350 2575 
Q 5225 2350 5375 2212 
Q 5525 2075 5525 1900 
Q 5525 1775 5487 1662 
Q 5450 1550 5400 1550 
Q 5325 1550 5200 1800 
Q 4975 2150 4325 2500 
z
M 3150 3900 
Q 2500 3300 2300 3150 
Q 2800 3150 3400 3175 
Q 3700 3500 3850 3825 
L 4250 3450 
Q 4050 3400 3450 2825 
Q 2850 2250 2475 1950 
Q 3150 1975 3850 2000 
Q 3750 2175 3550 2450 
L 3600 2500 
Q 4050 2250 4200 2100 
Q 4350 1950 4350 1850 
Q 4350 1775 4250 1625 
Q 4150 1475 4100 1475 
Q 4075 1475 4050 1550 
Q 4000 1700 3900 1900 
Q 3650 1875 3075 1800 
L 3500 1550 
L 3325 1425 
L 3325 975 
L 5325 975 
L 5650 1300 
L 6100 825 
L 3325 825 
Q 3325 -275 3350 -525 
L 2975 -650 
Q 3000 0 3000 825 
L 1125 825 
Q 800 825 525 750 
L 300 975 
L 3000 975 
L 3000 1775 
Q 2450 1700 2200 1525 
L 1950 1950 
Q 2275 1950 2675 2350 
Q 3075 2750 3325 3050 
Q 2400 2950 2150 2775 
L 1950 3175 
Q 2150 3150 2475 3575 
Q 2800 4000 2900 4225 
L 1450 4225 
Q 1125 4225 850 4150 
L 625 4375 
L 3100 4375 
Q 3050 4800 2675 5200 
L 2725 5250 
Q 3225 5050 3337 4912 
Q 3450 4775 3450 4700 
Q 3450 4550 3250 4375 
L 5025 4375 
L 5350 4675 
L 5775 4225 
L 3050 4225 
L 3375 3950 
L 3150 3900 
z
" transform="scale(0.015625)"/>
       <path id="SimSun-4e0b" d="M 450 4575 
L 5075 4575 
L 5450 4950 
L 5975 4425 
L 3250 4425 
L 3250 3125 
Q 4750 2675 4987 2412 
Q 5225 2150 5225 1950 
Q 5225 1875 5162 1737 
Q 5100 1600 5050 1600 
Q 4950 1600 4700 1925 
Q 4350 2400 3250 3000 
L 3250 450 
Q 3250 -75 3275 -425 
L 2850 -600 
Q 2875 325 2875 675 
L 2875 4425 
L 1275 4425 
Q 950 4425 675 4350 
L 450 4575 
z
" transform="scale(0.015625)"/>
       <path id="SimSun-964d" d="M 3650 4500 
Q 3600 4425 3550 4325 
Q 3850 3825 4200 3500 
Q 4600 3925 5000 4500 
L 3650 4500 
z
M 4000 5000 
L 3800 4875 
L 3700 4650 
L 5000 4650 
L 5225 4875 
L 5575 4525 
L 5350 4400 
Q 4825 3725 4400 3325 
Q 5000 2825 6075 2750 
L 6075 2675 
Q 5775 2650 5650 2375 
Q 4800 2650 4225 3125 
Q 3475 2525 2550 2225 
L 2500 2325 
Q 3300 2675 4025 3325 
Q 3700 3700 3475 4225 
Q 3100 3625 2550 3200 
L 2500 3275 
Q 2950 3775 3200 4337 
Q 3450 4900 3500 5250 
L 4000 5000 
z
M 4450 700 
Q 4450 -275 4475 -500 
L 4100 -625 
Q 4125 -200 4125 700 
L 2925 700 
L 2775 525 
L 2450 825 
L 2650 950 
Q 2925 1525 2950 1725 
L 3375 1425 
L 3200 1325 
Q 3125 1200 2950 850 
L 4125 850 
L 4125 1875 
L 3575 1875 
Q 3250 1875 2975 1800 
L 2750 2025 
L 4125 2025 
Q 4125 2500 4100 2750 
L 4650 2500 
L 4450 2325 
L 4450 2025 
L 5075 2025 
L 5350 2300 
L 5750 1875 
L 4450 1875 
L 4450 850 
L 5400 850 
L 5675 1125 
L 6075 700 
L 4450 700 
z
M 1100 1325 
Q 1100 125 1125 -475 
L 750 -650 
Q 775 525 775 2325 
Q 775 4125 750 5025 
L 1100 4800 
L 2000 4800 
L 2225 5025 
L 2575 4675 
L 2375 4550 
L 1675 3175 
Q 2050 2825 2275 2512 
Q 2500 2200 2512 1875 
Q 2525 1550 2387 1287 
Q 2250 1025 1750 800 
Q 1625 1100 1100 1325 
z
M 2000 4650 
L 1100 4650 
L 1100 1450 
Q 1475 1325 1750 1325 
Q 1950 1325 2050 1450 
Q 2150 1575 2150 1800 
Q 2150 1975 2112 2250 
Q 2075 2525 1550 3175 
L 2000 4650 
z
" transform="scale(0.015625)"/>
       <path id="SimSun-5e45" d="M 500 675 
Q 525 1425 525 2537 
Q 525 3650 500 4125 
L 825 3950 
L 1375 3950 
Q 1375 4900 1350 5200 
L 1900 4925 
L 1675 4750 
L 1675 3950 
L 2150 3950 
L 2375 4175 
L 2675 3875 
L 2500 3750 
L 2500 1350 
Q 2525 950 2100 775 
Q 2050 1050 1725 1150 
L 1725 1250 
Q 2000 1200 2100 1200 
Q 2200 1200 2200 1325 
L 2200 3800 
L 1675 3800 
L 1675 725 
Q 1675 75 1700 -550 
L 1350 -700 
Q 1375 250 1375 825 
L 1375 3800 
L 825 3800 
L 825 850 
L 500 675 
z
M 2550 4675 
L 5400 4675 
L 5675 4950 
L 6100 4525 
L 3375 4525 
Q 3000 4525 2775 4450 
L 2550 4675 
z
M 3250 2400 
Q 3275 2850 3275 3262 
Q 3275 3675 3250 4100 
L 3600 3900 
L 4950 3900 
L 5150 4125 
L 5500 3825 
L 5325 3650 
Q 5325 3000 5350 2675 
L 5000 2500 
L 5000 2825 
L 3600 2825 
L 3600 2525 
L 3250 2400 
z
M 2850 -650 
Q 2875 0 2875 962 
Q 2875 1925 2850 2325 
L 3200 2150 
L 5375 2150 
L 5575 2375 
L 5900 2025 
L 5750 1900 
L 5750 550 
Q 5750 50 5775 -375 
L 5425 -575 
L 5425 -50 
L 3200 -50 
L 3200 -500 
L 2850 -650 
z
M 3600 3750 
L 3600 2975 
L 5000 2975 
L 5000 3750 
L 3600 3750 
z
M 3200 2000 
L 3200 1150 
L 4125 1150 
L 4125 2000 
L 3200 2000 
z
M 4425 2000 
L 4425 1150 
L 5425 1150 
L 5425 2000 
L 4425 2000 
z
M 3200 1000 
L 3200 100 
L 4125 100 
L 4125 1000 
L 3200 1000 
z
M 4425 1000 
L 4425 100 
L 5425 100 
L 5425 1000 
L 4425 1000 
z
" transform="scale(0.015625)"/>
       <path id="SimSun-5ea6" d="M 2550 2025 
Q 2575 2525 2575 3175 
L 1925 3175 
L 1625 3125 
L 1425 3325 
L 2575 3325 
Q 2575 3700 2550 4150 
L 3100 3875 
L 2900 3750 
L 2900 3325 
L 4300 3325 
Q 4300 3750 4275 4125 
L 4850 3875 
L 4625 3725 
L 4625 3325 
L 5100 3325 
L 5425 3650 
L 5900 3175 
L 4625 3175 
Q 4625 2450 4650 2225 
L 4300 2075 
L 4300 2300 
L 2900 2300 
L 2900 2175 
L 2550 2025 
z
M 4875 1500 
Q 4300 775 3900 425 
Q 4700 -75 6025 -125 
L 6025 -225 
Q 5625 -300 5550 -550 
Q 4375 -325 3675 225 
Q 2475 -450 1075 -625 
L 1050 -525 
Q 2375 -275 3450 450 
Q 2975 925 2575 1625 
L 2325 1625 
L 2100 1575 
L 1900 1775 
L 4525 1775 
L 4750 2000 
L 5125 1625 
L 4875 1500 
z
M 2700 1625 
Q 3175 975 3650 625 
Q 4150 1100 4500 1625 
L 2700 1625 
z
M 2900 3175 
L 2900 2450 
L 4300 2450 
L 4300 3175 
L 2900 3175 
z
M 975 4650 
L 1400 4400 
L 3375 4400 
Q 3350 4550 3262 4725 
Q 3175 4900 2900 5225 
L 2975 5275 
Q 3550 5025 3637 4887 
Q 3725 4750 3725 4725 
Q 3725 4575 3525 4400 
L 5150 4400 
L 5500 4750 
L 6000 4250 
L 1375 4250 
Q 1400 2750 1287 1912 
Q 1175 1075 925 475 
Q 675 -125 300 -625 
L 225 -575 
Q 725 300 862 1250 
Q 1000 2200 1012 3187 
Q 1025 4175 975 4650 
z
" transform="scale(0.015625)"/>
      </defs>
      <use xlink:href="#SimSun-9884"/>
      <use xlink:href="#SimSun-6d4b" transform="translate(100 0)"/>
      <use xlink:href="#SimSun-6982" transform="translate(200 0)"/>
      <use xlink:href="#SimSun-7387" transform="translate(300 0)"/>
      <use xlink:href="#SimSun-4e0b" transform="translate(400 0)"/>
      <use xlink:href="#SimSun-964d" transform="translate(500 0)"/>
      <use xlink:href="#SimSun-5e45" transform="translate(600 0)"/>
      <use xlink:href="#SimSun-5ea6" transform="translate(700 0)"/>
     </g>
    </g>
   </g>
   <g id="line2d_29">
    <path d="M 61.24419 228.002895 
L 106.298988 147.114462 
L 151.353786 113.294391 
L 196.408584 94.844415 
L 241.463382 79.771417 
L 286.51818 58.859007 
L 331.572978 52.228292 
L 376.627776 48.079659 
L 421.682574 51.017213 
L 466.737372 50.187445 
" clip-path="url(#pcbd44a510c)" style="fill: none; stroke: #1f77b4; stroke-width: 1.8; stroke-linecap: square"/>
    <defs>
     <path id="m47288e38a1" d="M 0 3 
C 0.795609 3 1.55874 2.683901 2.12132 2.12132 
C 2.683901 1.55874 3 0.795609 3 0 
C 3 -0.795609 2.683901 -1.55874 2.12132 -2.12132 
C 1.55874 -2.683901 0.795609 -3 0 -3 
C -0.795609 -3 -1.55874 -2.683901 -2.12132 -2.12132 
C -2.683901 -1.55874 -3 -0.795609 -3 0 
C -3 0.795609 -2.683901 1.55874 -2.12132 2.12132 
C -1.55874 2.683901 -0.795609 3 0 3 
z
" style="stroke: #1f77b4"/>
    </defs>
    <g clip-path="url(#pcbd44a510c)">
     <use xlink:href="#m47288e38a1" x="61.24419" y="228.002895" style="fill: #1f77b4; stroke: #1f77b4"/>
     <use xlink:href="#m47288e38a1" x="106.298988" y="147.114462" style="fill: #1f77b4; stroke: #1f77b4"/>
     <use xlink:href="#m47288e38a1" x="151.353786" y="113.294391" style="fill: #1f77b4; stroke: #1f77b4"/>
     <use xlink:href="#m47288e38a1" x="196.408584" y="94.844415" style="fill: #1f77b4; stroke: #1f77b4"/>
     <use xlink:href="#m47288e38a1" x="241.463382" y="79.771417" style="fill: #1f77b4; stroke: #1f77b4"/>
     <use xlink:href="#m47288e38a1" x="286.51818" y="58.859007" style="fill: #1f77b4; stroke: #1f77b4"/>
     <use xlink:href="#m47288e38a1" x="331.572978" y="52.228292" style="fill: #1f77b4; stroke: #1f77b4"/>
     <use xlink:href="#m47288e38a1" x="376.627776" y="48.079659" style="fill: #1f77b4; stroke: #1f77b4"/>
     <use xlink:href="#m47288e38a1" x="421.682574" y="51.017213" style="fill: #1f77b4; stroke: #1f77b4"/>
     <use xlink:href="#m47288e38a1" x="466.737372" y="50.187445" style="fill: #1f77b4; stroke: #1f77b4"/>
    </g>
   </g>
   <g id="line2d_30">
    <path d="M 61.24419 272.096175 
L 106.298988 221.615786 
L 151.353786 200.153599 
L 196.408584 180.38646 
L 241.463382 141.577189 
L 286.51818 102.530274 
L 331.572978 77.038796 
L 376.627776 56.374726 
L 421.682574 50.192085 
L 466.737372 50.187445 
" clip-path="url(#pcbd44a510c)" style="fill: none; stroke-dasharray: 6.66,2.88; stroke-dashoffset: 0; stroke: #ff7f0e; stroke-width: 1.8"/>
    <defs>
     <path id="mc803a11748" d="M 0 -3 
L -3 3 
L 3 3 
z
" style="stroke: #ff7f0e; stroke-linejoin: miter"/>
    </defs>
    <g clip-path="url(#pcbd44a510c)">
     <use xlink:href="#mc803a11748" x="61.24419" y="272.096175" style="fill: #ff7f0e; stroke: #ff7f0e; stroke-linejoin: miter"/>
     <use xlink:href="#mc803a11748" x="106.298988" y="221.615786" style="fill: #ff7f0e; stroke: #ff7f0e; stroke-linejoin: miter"/>
     <use xlink:href="#mc803a11748" x="151.353786" y="200.153599" style="fill: #ff7f0e; stroke: #ff7f0e; stroke-linejoin: miter"/>
     <use xlink:href="#mc803a11748" x="196.408584" y="180.38646" style="fill: #ff7f0e; stroke: #ff7f0e; stroke-linejoin: miter"/>
     <use xlink:href="#mc803a11748" x="241.463382" y="141.577189" style="fill: #ff7f0e; stroke: #ff7f0e; stroke-linejoin: miter"/>
     <use xlink:href="#mc803a11748" x="286.51818" y="102.530274" style="fill: #ff7f0e; stroke: #ff7f0e; stroke-linejoin: miter"/>
     <use xlink:href="#mc803a11748" x="331.572978" y="77.038796" style="fill: #ff7f0e; stroke: #ff7f0e; stroke-linejoin: miter"/>
     <use xlink:href="#mc803a11748" x="376.627776" y="56.374726" style="fill: #ff7f0e; stroke: #ff7f0e; stroke-linejoin: miter"/>
     <use xlink:href="#mc803a11748" x="421.682574" y="50.192085" style="fill: #ff7f0e; stroke: #ff7f0e; stroke-linejoin: miter"/>
     <use xlink:href="#mc803a11748" x="466.737372" y="50.187445" style="fill: #ff7f0e; stroke: #ff7f0e; stroke-linejoin: miter"/>
    </g>
   </g>
   <g id="line2d_31">
    <path d="M 61.24419 306.150009 
L 106.298988 297.997054 
L 151.353786 284.249927 
L 196.408584 248.511624 
L 241.463382 211.701392 
L 286.51818 168.955698 
L 331.572978 128.388809 
L 376.627776 104.976808 
L 421.682574 90.915496 
L 466.737372 70.796303 
" clip-path="url(#pcbd44a510c)" style="fill: none; stroke-dasharray: 11.52,2.88,1.8,2.88; stroke-dashoffset: 0; stroke: #2ca02c; stroke-width: 1.8"/>
    <defs>
     <path id="m9101244c6d" d="M -3 3 
L 3 3 
L 3 -3 
L -3 -3 
z
" style="stroke: #2ca02c; stroke-linejoin: miter"/>
    </defs>
    <g clip-path="url(#pcbd44a510c)">
     <use xlink:href="#m9101244c6d" x="61.24419" y="306.150009" style="fill: #2ca02c; stroke: #2ca02c; stroke-linejoin: miter"/>
     <use xlink:href="#m9101244c6d" x="106.298988" y="297.997054" style="fill: #2ca02c; stroke: #2ca02c; stroke-linejoin: miter"/>
     <use xlink:href="#m9101244c6d" x="151.353786" y="284.249927" style="fill: #2ca02c; stroke: #2ca02c; stroke-linejoin: miter"/>
     <use xlink:href="#m9101244c6d" x="196.408584" y="248.511624" style="fill: #2ca02c; stroke: #2ca02c; stroke-linejoin: miter"/>
     <use xlink:href="#m9101244c6d" x="241.463382" y="211.701392" style="fill: #2ca02c; stroke: #2ca02c; stroke-linejoin: miter"/>
     <use xlink:href="#m9101244c6d" x="286.51818" y="168.955698" style="fill: #2ca02c; stroke: #2ca02c; stroke-linejoin: miter"/>
     <use xlink:href="#m9101244c6d" x="331.572978" y="128.388809" style="fill: #2ca02c; stroke: #2ca02c; stroke-linejoin: miter"/>
     <use xlink:href="#m9101244c6d" x="376.627776" y="104.976808" style="fill: #2ca02c; stroke: #2ca02c; stroke-linejoin: miter"/>
     <use xlink:href="#m9101244c6d" x="421.682574" y="90.915496" style="fill: #2ca02c; stroke: #2ca02c; stroke-linejoin: miter"/>
     <use xlink:href="#m9101244c6d" x="466.737372" y="70.796303" style="fill: #2ca02c; stroke: #2ca02c; stroke-linejoin: miter"/>
    </g>
   </g>
   <g id="line2d_32">
    <path d="M 61.24419 307.005057 
L 106.298988 296.257328 
L 151.353786 271.466487 
L 196.408584 253.444739 
L 241.463382 208.470796 
L 286.51818 166.338029 
L 331.572978 131.778057 
L 376.627776 106.698233 
L 421.682574 87.397802 
L 466.737372 70.796303 
" clip-path="url(#pcbd44a510c)" style="fill: none; stroke-dasharray: 9,5.4; stroke-dashoffset: 0; stroke: #d62728; stroke-width: 1.8"/>
    <defs>
     <path id="m6d8329738a" d="M 0 4.242641 
L 4.242641 0 
L 0 -4.242641 
L -4.242641 0 
z
" style="stroke: #d62728; stroke-linejoin: miter"/>
    </defs>
    <g clip-path="url(#pcbd44a510c)">
     <use xlink:href="#m6d8329738a" x="61.24419" y="307.005057" style="fill: #d62728; stroke: #d62728; stroke-linejoin: miter"/>
     <use xlink:href="#m6d8329738a" x="106.298988" y="296.257328" style="fill: #d62728; stroke: #d62728; stroke-linejoin: miter"/>
     <use xlink:href="#m6d8329738a" x="151.353786" y="271.466487" style="fill: #d62728; stroke: #d62728; stroke-linejoin: miter"/>
     <use xlink:href="#m6d8329738a" x="196.408584" y="253.444739" style="fill: #d62728; stroke: #d62728; stroke-linejoin: miter"/>
     <use xlink:href="#m6d8329738a" x="241.463382" y="208.470796" style="fill: #d62728; stroke: #d62728; stroke-linejoin: miter"/>
     <use xlink:href="#m6d8329738a" x="286.51818" y="166.338029" style="fill: #d62728; stroke: #d62728; stroke-linejoin: miter"/>
     <use xlink:href="#m6d8329738a" x="331.572978" y="131.778057" style="fill: #d62728; stroke: #d62728; stroke-linejoin: miter"/>
     <use xlink:href="#m6d8329738a" x="376.627776" y="106.698233" style="fill: #d62728; stroke: #d62728; stroke-linejoin: miter"/>
     <use xlink:href="#m6d8329738a" x="421.682574" y="87.397802" style="fill: #d62728; stroke: #d62728; stroke-linejoin: miter"/>
     <use xlink:href="#m6d8329738a" x="466.737372" y="70.796303" style="fill: #d62728; stroke: #d62728; stroke-linejoin: miter"/>
    </g>
   </g>
   <g id="patch_3">
    <path d="M 40.969531 311.45125 
L 40.969531 21.7425 
" style="fill: none; stroke: #000000; stroke-width: 0.8; stroke-linejoin: miter; stroke-linecap: square"/>
   </g>
   <g id="patch_4">
    <path d="M 40.969531 311.45125 
L 487.012031 311.45125 
" style="fill: none; stroke: #000000; stroke-width: 0.8; stroke-linejoin: miter; stroke-linecap: square"/>
   </g>
   <g id="text_22">
    <!-- CWRU 数据集忠实度 AUC 下降曲线 -->
    <g transform="translate(169.151406 15.7425) scale(0.12 -0.12)">
     <defs>
      <path id="TimesNewRomanPSMT-43" d="M 3853 4334 
L 3950 2894 
L 3853 2894 
Q 3659 3541 3300 3825 
Q 2941 4109 2438 4109 
Q 2016 4109 1675 3895 
Q 1334 3681 1139 3212 
Q 944 2744 944 2047 
Q 944 1472 1128 1050 
Q 1313 628 1683 403 
Q 2053 178 2528 178 
Q 2941 178 3256 354 
Q 3572 531 3950 1056 
L 4047 994 
Q 3728 428 3303 165 
Q 2878 -97 2294 -97 
Q 1241 -97 663 684 
Q 231 1266 231 2053 
Q 231 2688 515 3219 
Q 800 3750 1298 4042 
Q 1797 4334 2388 4334 
Q 2847 4334 3294 4109 
Q 3425 4041 3481 4041 
Q 3566 4041 3628 4100 
Q 3709 4184 3744 4334 
L 3853 4334 
z
" transform="scale(0.015625)"/>
      <path id="TimesNewRomanPSMT-57" d="M 5991 4238 
L 5991 4122 
Q 5825 4122 5722 4062 
Q 5619 4003 5525 3841 
Q 5463 3731 5328 3319 
L 4147 -97 
L 4022 -97 
L 3056 2613 
L 2097 -97 
L 1984 -97 
L 725 3422 
Q 584 3816 547 3888 
Q 484 4006 376 4064 
Q 269 4122 84 4122 
L 84 4238 
L 1653 4238 
L 1653 4122 
L 1578 4122 
Q 1413 4122 1325 4047 
Q 1238 3972 1238 3866 
Q 1238 3756 1375 3363 
L 2209 984 
L 2913 3006 
L 2788 3363 
L 2688 3647 
Q 2622 3803 2541 3922 
Q 2500 3981 2441 4022 
Q 2363 4078 2284 4103 
Q 2225 4122 2097 4122 
L 2097 4238 
L 3747 4238 
L 3747 4122 
L 3634 4122 
Q 3459 4122 3378 4047 
Q 3297 3972 3297 3844 
Q 3297 3684 3438 3288 
L 4250 984 
L 5056 3319 
Q 5194 3706 5194 3856 
Q 5194 3928 5148 3990 
Q 5103 4053 5034 4078 
Q 4916 4122 4725 4122 
L 4725 4238 
L 5991 4238 
z
" transform="scale(0.015625)"/>
      <path id="TimesNewRomanPSMT-52" d="M 4325 0 
L 3194 0 
L 1759 1981 
Q 1600 1975 1500 1975 
Q 1459 1975 1412 1976 
Q 1366 1978 1316 1981 
L 1316 750 
Q 1316 350 1403 253 
Q 1522 116 1759 116 
L 1925 116 
L 1925 0 
L 109 0 
L 109 116 
L 269 116 
Q 538 116 653 291 
Q 719 388 719 750 
L 719 3488 
Q 719 3888 631 3984 
Q 509 4122 269 4122 
L 109 4122 
L 109 4238 
L 1653 4238 
Q 2328 4238 2648 4139 
Q 2969 4041 3192 3777 
Q 3416 3513 3416 3147 
Q 3416 2756 3161 2468 
Q 2906 2181 2372 2063 
L 3247 847 
Q 3547 428 3762 290 
Q 3978 153 4325 116 
L 4325 0 
z
M 1316 2178 
Q 1375 2178 1419 2176 
Q 1463 2175 1491 2175 
Q 2097 2175 2405 2437 
Q 2713 2700 2713 3106 
Q 2713 3503 2464 3751 
Q 2216 4000 1806 4000 
Q 1625 4000 1316 3941 
L 1316 2178 
z
" transform="scale(0.015625)"/>
      <path id="TimesNewRomanPSMT-55" d="M 3053 4122 
L 3053 4238 
L 4553 4238 
L 4553 4122 
L 4394 4122 
Q 4144 4122 4009 3913 
Q 3944 3816 3944 3463 
L 3944 1744 
Q 3944 1106 3817 754 
Q 3691 403 3320 151 
Q 2950 -100 2313 -100 
Q 1619 -100 1259 140 
Q 900 381 750 788 
Q 650 1066 650 1831 
L 650 3488 
Q 650 3878 542 4000 
Q 434 4122 194 4122 
L 34 4122 
L 34 4238 
L 1866 4238 
L 1866 4122 
L 1703 4122 
Q 1441 4122 1328 3956 
Q 1250 3844 1250 3488 
L 1250 1641 
Q 1250 1394 1295 1075 
Q 1341 756 1459 578 
Q 1578 400 1801 284 
Q 2025 169 2350 169 
Q 2766 169 3094 350 
Q 3422 531 3542 814 
Q 3663 1097 3663 1772 
L 3663 3488 
Q 3663 3884 3575 3984 
Q 3453 4122 3213 4122 
L 3053 4122 
z
" transform="scale(0.015625)"/>
      <path id="TimesNewRomanPSMT-20" transform="scale(0.015625)"/>
      <path id="SimSun-6570" d="M 1875 1525 
Q 1675 1200 1500 900 
Q 1825 825 2275 725 
Q 2500 975 2725 1525 
L 1875 1525 
z
M 850 4900 
Q 1325 4600 1425 4450 
Q 1525 4300 1525 4225 
Q 1525 4100 1437 3975 
Q 1350 3850 1300 3850 
Q 1225 3850 1150 4100 
Q 1050 4450 775 4850 
L 850 4900 
z
M 3000 4975 
L 3450 4675 
Q 3250 4625 3100 4425 
Q 2925 4225 2525 3825 
L 2450 3875 
Q 2925 4625 3000 4975 
z
M 1875 5250 
L 2425 5000 
L 2225 4825 
L 2225 3675 
L 2850 3675 
L 3125 3950 
L 3550 3525 
L 2225 3525 
L 2225 3300 
Q 2800 3175 2937 3062 
Q 3075 2950 3075 2775 
Q 3075 2700 3050 2587 
Q 3025 2475 2975 2475 
Q 2925 2475 2800 2650 
Q 2600 2925 2225 3175 
L 2225 2400 
L 1925 2200 
L 2275 2050 
Q 2150 2000 1950 1675 
L 2725 1675 
L 2900 1900 
L 3275 1575 
L 3050 1450 
Q 2800 875 2600 650 
Q 3000 550 3137 437 
Q 3275 325 3275 150 
Q 3275 -25 3200 -25 
Q 3125 -25 3025 75 
Q 2750 275 2400 425 
Q 1525 -275 325 -500 
L 300 -425 
Q 1450 -50 2100 550 
Q 1600 725 1125 800 
Q 1225 950 1525 1525 
L 1200 1525 
Q 875 1525 600 1450 
L 375 1675 
L 1575 1675 
Q 1675 1925 1775 2275 
L 1900 2225 
L 1900 3250 
Q 1225 2475 350 2050 
L 300 2125 
Q 1225 2775 1700 3525 
L 1250 3525 
Q 925 3525 650 3450 
L 425 3675 
L 1900 3675 
Q 1900 4575 1875 5250 
z
M 3925 3525 
Q 4050 2075 4525 1100 
Q 4925 1950 5025 3525 
L 3925 3525 
z
M 4050 5250 
L 4625 4925 
Q 4425 4850 4325 4625 
Q 4225 4400 3950 3675 
L 5375 3675 
L 5675 3975 
L 6125 3525 
L 5400 3525 
Q 5250 1675 4750 775 
Q 5325 75 6100 -100 
L 6100 -200 
Q 5625 -275 5600 -500 
Q 4950 -50 4525 525 
Q 3700 -275 2550 -650 
L 2500 -575 
Q 3650 -50 4325 800 
Q 3850 1975 3825 3375 
Q 3575 2725 3100 2150 
L 3025 2200 
Q 3625 3200 4050 5250 
z
" transform="scale(0.015625)"/>
      <path id="SimSun-636e" d="M 3125 -650 
Q 3150 -100 3150 512 
Q 3150 1125 3125 1600 
L 3475 1400 
L 4175 1400 
L 4175 2400 
L 3000 2400 
Q 2825 625 1675 -525 
L 1600 -450 
Q 2150 275 2437 1187 
Q 2725 2100 2737 3312 
Q 2750 4525 2725 5050 
L 3100 4825 
L 5150 4825 
L 5350 5025 
L 5700 4700 
L 5500 4575 
Q 5500 3825 5525 3475 
L 5175 3325 
L 5175 3625 
L 3075 3625 
Q 3075 3150 3025 2550 
L 4175 2550 
Q 4175 3025 4150 3475 
L 4700 3225 
L 4500 3075 
L 4500 2550 
L 5325 2550 
L 5600 2825 
L 6025 2400 
L 4500 2400 
L 4500 1400 
L 5150 1400 
L 5350 1625 
L 5700 1300 
L 5500 1150 
Q 5500 150 5525 -400 
L 5175 -600 
L 5175 -75 
L 3475 -75 
L 3475 -500 
L 3125 -650 
z
M 3075 4675 
L 3075 3775 
L 5175 3775 
L 5175 4675 
L 3075 4675 
z
M 3475 1250 
L 3475 75 
L 5175 75 
L 5175 1250 
L 3475 1250 
z
M 1675 2450 
L 2500 2925 
L 2550 2825 
L 1675 2175 
L 1675 150 
Q 1650 -300 1125 -500 
Q 1175 -250 500 25 
L 500 125 
Q 1050 25 1187 37 
Q 1325 50 1325 225 
L 1325 2000 
Q 625 1500 600 1350 
L 225 1800 
Q 375 1825 1325 2300 
L 1325 3575 
L 750 3575 
L 450 3525 
L 250 3725 
L 1325 3725 
Q 1325 4750 1300 5175 
L 1875 4875 
L 1675 4700 
L 1675 3725 
L 1950 3725 
L 2275 4000 
L 2650 3575 
L 1675 3575 
L 1675 2450 
z
" transform="scale(0.015625)"/>
      <path id="SimSun-96c6" d="M 1775 2650 
L 1775 2075 
L 3200 2075 
L 3200 2650 
L 1775 2650 
z
M 1425 1500 
Q 1450 2500 1450 3750 
Q 975 3200 300 2750 
L 250 2825 
Q 800 3300 1250 3962 
Q 1700 4625 1925 5275 
L 2425 4925 
L 2200 4850 
L 1825 4250 
L 4975 4250 
L 5275 4550 
L 5700 4100 
L 3525 4100 
L 3525 3500 
L 4700 3500 
L 4975 3775 
L 5375 3350 
L 3525 3350 
L 3525 2800 
L 4650 2800 
L 4925 3075 
L 5325 2650 
L 3525 2650 
L 3525 2075 
L 4925 2075 
L 5225 2375 
L 5650 1925 
L 1775 1925 
L 1775 1625 
L 1425 1500 
z
M 2975 5200 
Q 3450 5025 3575 4887 
Q 3700 4750 3700 4650 
Q 3700 4550 3612 4425 
Q 3525 4300 3500 4300 
Q 3400 4300 3325 4525 
Q 3200 4850 2925 5125 
L 2975 5200 
z
M 1775 4100 
L 1775 3500 
L 3200 3500 
L 3200 4100 
L 1775 4100 
z
M 1775 3350 
L 1775 2800 
L 3200 2800 
L 3200 3350 
L 1775 3350 
z
M 3075 1300 
Q 3075 1675 3050 1900 
L 3600 1700 
L 3400 1525 
L 3400 1300 
L 5400 1300 
L 5700 1600 
L 6125 1150 
L 3675 1150 
Q 4150 600 4750 300 
Q 5350 0 6150 -75 
L 6150 -150 
Q 5775 -225 5700 -475 
Q 5050 -275 4525 87 
Q 4000 450 3550 1150 
L 3400 1150 
Q 3400 -100 3425 -450 
L 3050 -650 
Q 3075 150 3075 1125 
Q 2550 550 1887 150 
Q 1225 -250 300 -575 
L 275 -475 
Q 1175 -75 1800 387 
Q 2425 850 2650 1150 
L 1100 1150 
Q 775 1150 500 1075 
L 275 1300 
L 3075 1300 
z
" transform="scale(0.015625)"/>
      <path id="SimSun-5fe0" d="M 1900 350 
Q 1900 1300 1875 1800 
L 2450 1525 
L 2250 1350 
L 2250 400 
Q 2200 25 2575 75 
L 4275 75 
Q 4550 25 4612 387 
Q 4675 750 4700 1100 
L 4800 1100 
Q 4825 800 4850 525 
Q 4875 250 5150 125 
Q 4950 -200 4525 -225 
L 2350 -225 
Q 1850 -225 1900 350 
z
M 2650 2000 
L 2675 2075 
Q 3325 1825 3537 1662 
Q 3750 1500 3725 1300 
Q 3700 1100 3625 1012 
Q 3550 925 3500 925 
Q 3400 925 3300 1175 
Q 3150 1525 2650 2000 
z
M 4900 1525 
L 4950 1600 
Q 5550 1275 5762 1062 
Q 5975 850 5937 650 
Q 5900 450 5825 362 
Q 5750 275 5700 275 
Q 5625 275 5550 450 
Q 5450 725 5312 950 
Q 5175 1175 4900 1525 
z
M 1200 1600 
L 1300 1600 
Q 1250 900 1137 575 
Q 1025 250 775 237 
Q 525 225 450 325 
Q 375 425 675 700 
Q 950 950 1200 1600 
z
M 3000 1975 
Q 3025 2275 3025 2725 
L 1550 2725 
L 1550 2425 
L 1175 2275 
Q 1200 2775 1200 3462 
Q 1200 4150 1175 4475 
L 1550 4250 
L 3025 4250 
Q 3025 4750 3000 5200 
L 3575 4950 
L 3375 4775 
L 3375 4250 
L 4825 4250 
L 5025 4525 
L 5425 4200 
L 5225 4025 
Q 5225 2875 5250 2500 
L 4875 2350 
L 4875 2725 
L 3375 2725 
Q 3375 2350 3400 2125 
L 3000 1975 
z
M 1550 4100 
L 1550 2875 
L 3025 2875 
L 3025 4100 
L 1550 4100 
z
M 3375 4100 
L 3375 2875 
L 4875 2875 
L 4875 4100 
L 3375 4100 
z
" transform="scale(0.015625)"/>
      <path id="SimSun-5b9e" d="M 1950 3625 
Q 2575 3400 2700 3250 
Q 2825 3100 2825 2975 
Q 2825 2850 2750 2700 
Q 2675 2550 2625 2550 
Q 2550 2550 2450 2800 
Q 2275 3175 1900 3550 
L 1950 3625 
z
M 3575 1325 
Q 3500 1100 3425 925 
Q 4650 550 5087 325 
Q 5525 100 5512 -225 
Q 5500 -550 5400 -550 
Q 5300 -550 5075 -300 
Q 4625 175 3375 800 
Q 3025 175 2300 -150 
Q 1575 -475 425 -625 
L 425 -525 
Q 1475 -325 2200 100 
Q 2925 525 3200 1325 
L 1225 1325 
Q 900 1325 625 1250 
L 400 1475 
L 3225 1475 
Q 3325 1950 3375 2575 
Q 3425 3200 3425 3700 
L 4050 3400 
L 3850 3225 
Q 3750 2300 3625 1475 
L 5175 1475 
L 5550 1850 
L 6075 1325 
L 3575 1325 
z
M 1275 2700 
Q 1975 2425 2100 2262 
Q 2225 2100 2225 1975 
Q 2225 1850 2150 1700 
Q 2075 1550 2025 1550 
Q 1950 1550 1850 1800 
Q 1675 2175 1225 2625 
L 1275 2700 
z
M 2750 5225 
L 2825 5275 
Q 3225 5100 3425 4925 
Q 3625 4750 3625 4600 
Q 3625 4450 3512 4300 
Q 3400 4150 3325 4150 
Q 3250 4150 3200 4400 
Q 3100 4775 2750 5225 
z
M 4975 3225 
L 5350 3925 
L 1175 3925 
Q 1225 3525 1125 3300 
Q 1025 3075 787 3100 
Q 550 3125 550 3200 
Q 550 3300 700 3475 
Q 975 3825 1050 4375 
L 1150 4375 
L 1175 4075 
L 5300 4075 
L 5575 4350 
L 6050 3800 
Q 5625 3825 5050 3175 
L 4975 3225 
z
" transform="scale(0.015625)"/>
      <path id="TimesNewRomanPSMT-41" d="M 2928 1419 
L 1288 1419 
L 1000 750 
Q 894 503 894 381 
Q 894 284 986 211 
Q 1078 138 1384 116 
L 1384 0 
L 50 0 
L 50 116 
Q 316 163 394 238 
Q 553 388 747 847 
L 2238 4334 
L 2347 4334 
L 3822 809 
Q 4000 384 4145 257 
Q 4291 131 4550 116 
L 4550 0 
L 2878 0 
L 2878 116 
Q 3131 128 3220 200 
Q 3309 272 3309 375 
Q 3309 513 3184 809 
L 2928 1419 
z
M 2841 1650 
L 2122 3363 
L 1384 1650 
L 2841 1650 
z
" transform="scale(0.015625)"/>
      <path id="SimSun-66f2" d="M 4050 2000 
L 4050 200 
L 5075 200 
L 5075 2000 
L 4050 2000 
z
M 1000 4050 
L 1400 3825 
L 2375 3825 
Q 2375 4750 2350 5250 
L 2925 4975 
L 2700 4800 
L 2700 3825 
L 3725 3825 
Q 3725 4850 3700 5250 
L 4300 4950 
L 4050 4800 
L 4050 3825 
L 5025 3825 
L 5250 4075 
L 5650 3750 
L 5425 3575 
Q 5425 325 5450 -250 
L 5075 -425 
L 5075 50 
L 1375 50 
L 1375 -350 
L 1000 -525 
Q 1025 650 1025 1812 
Q 1025 2975 1000 4050 
z
M 1375 3675 
L 1375 2150 
L 2375 2150 
L 2375 3675 
L 1375 3675 
z
M 2700 3675 
L 2700 2150 
L 3725 2150 
L 3725 3675 
L 2700 3675 
z
M 4050 3675 
L 4050 2150 
L 5075 2150 
L 5075 3675 
L 4050 3675 
z
M 1375 2000 
L 1375 200 
L 2375 200 
L 2375 2000 
L 1375 2000 
z
M 2700 2000 
L 2700 200 
L 3725 200 
L 3725 2000 
L 2700 2000 
z
" transform="scale(0.015625)"/>
      <path id="SimSun-7ebf" d="M 3900 3400 
Q 3900 3050 3950 2475 
L 5125 2600 
L 5450 2975 
L 5950 2550 
L 3975 2350 
Q 4050 1575 4225 1125 
Q 4775 1625 5100 2175 
L 5550 1725 
L 5325 1700 
Q 4850 1250 4375 800 
Q 4825 175 5425 -75 
L 5775 1125 
L 5875 1100 
Q 5825 525 5812 150 
Q 5800 -225 5925 -450 
Q 5950 -500 5950 -525 
Q 5950 -625 5687 -587 
Q 5425 -550 4987 -287 
Q 4550 -25 4100 550 
Q 3650 250 3187 50 
Q 2725 -150 2025 -350 
L 2000 -250 
Q 3075 150 3925 850 
Q 3700 1525 3625 2300 
L 2600 2175 
L 2400 2075 
L 2125 2275 
L 3600 2425 
Q 3575 2775 3550 3375 
L 2825 3325 
L 2675 3225 
L 2450 3425 
L 3550 3500 
Q 3525 4375 3500 5250 
L 4075 4975 
L 3875 4800 
Q 3875 4275 3900 3525 
L 4975 3625 
L 5300 4000 
L 5800 3550 
L 3900 3400 
z
M 4275 4825 
L 4300 4900 
Q 5075 4700 5150 4562 
Q 5225 4425 5225 4325 
Q 5225 4200 5175 4075 
Q 5125 3950 5075 3950 
Q 5025 3950 4925 4150 
Q 4750 4425 4275 4825 
z
M 1525 5150 
L 2025 4825 
Q 1825 4750 1600 4325 
Q 1375 3875 775 3050 
L 1800 3150 
Q 2100 3650 2275 4150 
L 2725 3825 
Q 2550 3725 2125 3100 
Q 1700 2475 1025 1600 
Q 1375 1650 2575 1875 
L 2575 1775 
Q 1900 1600 1525 1462 
Q 1150 1325 775 1075 
L 475 1600 
Q 750 1675 1112 2137 
Q 1475 2600 1750 3050 
Q 1475 3000 1175 2912 
Q 875 2825 625 2600 
L 350 3075 
Q 625 3125 987 3787 
Q 1350 4450 1525 5150 
z
M 325 375 
Q 1025 475 1450 550 
Q 1875 625 2825 825 
L 2850 725 
Q 1725 400 1212 212 
Q 700 25 575 -100 
L 325 375 
z
" transform="scale(0.015625)"/>
     </defs>
     <use xlink:href="#TimesNewRomanPSMT-43"/>
     <use xlink:href="#TimesNewRomanPSMT-57" transform="translate(66.699219 0)"/>
     <use xlink:href="#TimesNewRomanPSMT-52" transform="translate(161.083984 0)"/>
     <use xlink:href="#TimesNewRomanPSMT-55" transform="translate(227.783203 0)"/>
     <use xlink:href="#TimesNewRomanPSMT-20" transform="translate(300 0)"/>
     <use xlink:href="#SimSun-6570" transform="translate(325 0)"/>
     <use xlink:href="#SimSun-636e" transform="translate(425 0)"/>
     <use xlink:href="#SimSun-96c6" transform="translate(525 0)"/>
     <use xlink:href="#SimSun-5fe0" transform="translate(625 0)"/>
     <use xlink:href="#SimSun-5b9e" transform="translate(725 0)"/>
     <use xlink:href="#SimSun-5ea6" transform="translate(825 0)"/>
     <use xlink:href="#TimesNewRomanPSMT-20" transform="translate(925 0)"/>
     <use xlink:href="#TimesNewRomanPSMT-41" transform="translate(944.5 0)"/>
     <use xlink:href="#TimesNewRomanPSMT-55" transform="translate(1016.716797 0)"/>
     <use xlink:href="#TimesNewRomanPSMT-43" transform="translate(1088.933594 0)"/>
     <use xlink:href="#TimesNewRomanPSMT-20" transform="translate(1155.632812 0)"/>
     <use xlink:href="#SimSun-4e0b" transform="translate(1180.632812 0)"/>
     <use xlink:href="#SimSun-964d" transform="translate(1280.632812 0)"/>
     <use xlink:href="#SimSun-66f2" transform="translate(1380.632812 0)"/>
     <use xlink:href="#SimSun-7ebf" transform="translate(1480.632812 0)"/>
    </g>
   </g>
   <g id="legend_1">
    <g id="patch_5">
     <path d="M 398.012031 306.45125 
L 480.012031 306.45125 
Q 482.012031 306.45125 482.012031 304.45125 
L 482.012031 248.6575 
Q 482.012031 246.6575 480.012031 246.6575 
L 398.012031 246.6575 
Q 396.012031 246.6575 396.012031 248.6575 
L 396.012031 304.45125 
Q 396.012031 306.45125 398.012031 306.45125 
z
" style="fill: #ffffff; opacity: 0.8; stroke: #cccccc; stroke-linejoin: miter"/>
    </g>
    <g id="line2d_33">
     <path d="M 400.012031 254.27625 
L 410.012031 254.27625 
L 420.012031 254.27625 
" style="fill: none; stroke: #1f77b4; stroke-width: 1.8; stroke-linecap: square"/>
     <g>
      <use xlink:href="#m47288e38a1" x="410.012031" y="254.27625" style="fill: #1f77b4; stroke: #1f77b4"/>
     </g>
    </g>
    <g id="text_23">
     <!-- 注意力权重 -->
     <g transform="translate(428.012031 257.77625) scale(0.1 -0.1)">
      <defs>
       <path id="SimSun-6ce8" d="M 3225 5100 
Q 3800 4825 3975 4675 
Q 4150 4525 4150 4375 
Q 4150 4250 4050 4087 
Q 3950 3925 3900 3925 
Q 3800 3925 3725 4175 
Q 3600 4550 3175 5025 
L 3225 5100 
z
M 2250 3700 
L 5100 3700 
L 5500 4075 
L 5975 3550 
L 4075 3550 
L 4075 1975 
L 4875 1975 
L 5225 2325 
L 5700 1825 
L 4075 1825 
L 4075 -25 
L 5200 -25 
L 5600 350 
L 6075 -175 
L 2575 -175 
Q 2250 -175 1975 -250 
L 1750 -25 
L 3725 -25 
L 3725 1825 
L 3100 1825 
Q 2775 1825 2500 1750 
L 2275 1975 
L 3725 1975 
L 3725 3550 
L 3075 3550 
Q 2750 3550 2475 3475 
L 2250 3700 
z
M 2250 4075 
Q 1450 1375 1350 1037 
Q 1250 700 1237 262 
Q 1225 -175 1250 -375 
Q 1250 -500 1150 -500 
Q 1075 -500 900 -425 
Q 725 -350 725 -150 
Q 725 -25 800 200 
Q 875 450 875 600 
Q 875 775 762 875 
Q 650 975 275 1075 
L 275 1175 
Q 725 1125 837 1137 
Q 950 1150 1100 1362 
Q 1250 1575 2150 4100 
L 2250 4075 
z
M 300 3450 
Q 1175 3050 1187 2800 
Q 1200 2550 1112 2437 
Q 1025 2325 975 2325 
Q 875 2325 800 2550 
Q 675 2875 250 3375 
L 300 3450 
z
M 900 4950 
Q 1575 4625 1650 4487 
Q 1725 4350 1725 4250 
Q 1725 4100 1625 3950 
Q 1525 3800 1500 3800 
Q 1425 3800 1350 4050 
Q 1225 4400 850 4875 
L 900 4950 
z
" transform="scale(0.015625)"/>
       <path id="SimSun-610f" d="M 2800 5250 
Q 3325 5025 3400 4837 
Q 3475 4650 3275 4475 
L 4375 4475 
L 4700 4800 
L 5175 4325 
L 3975 4325 
L 4350 4075 
Q 4100 4000 3650 3450 
L 5075 3450 
L 5450 3825 
L 5975 3300 
L 1250 3300 
Q 925 3300 650 3225 
L 425 3450 
L 3500 3450 
Q 3800 4025 3875 4325 
L 2225 4325 
Q 2600 4100 2675 4000 
Q 2750 3900 2750 3800 
Q 2750 3725 2700 3625 
Q 2650 3525 2537 3512 
Q 2425 3500 2400 3725 
Q 2375 3925 2100 4325 
L 1625 4325 
L 1300 4275 
L 1100 4475 
L 3075 4475 
Q 3075 4800 2750 5200 
L 2800 5250 
z
M 1400 3075 
L 1750 2875 
L 4450 2875 
L 4625 3075 
L 5000 2800 
L 4825 2650 
Q 4825 1575 4850 1300 
L 4500 1150 
L 4500 1375 
L 1750 1375 
L 1750 1250 
L 1400 1125 
Q 1425 1575 1425 2087 
Q 1425 2600 1400 3075 
z
M 1750 2725 
L 1750 2200 
L 4500 2200 
L 4500 2725 
L 1750 2725 
z
M 1750 2050 
L 1750 1525 
L 4500 1525 
L 4500 2050 
L 1750 2050 
z
M 1200 925 
L 1300 900 
Q 1275 200 1162 -12 
Q 1050 -225 862 -262 
Q 675 -300 600 -237 
Q 525 -175 525 -125 
Q 525 -25 750 125 
Q 1050 350 1200 925 
z
M 2650 1250 
L 2700 1325 
Q 3325 1050 3437 925 
Q 3550 800 3550 675 
Q 3550 575 3487 450 
Q 3425 325 3400 325 
Q 3325 325 3225 525 
Q 3075 825 2650 1250 
z
M 4725 925 
L 4800 1000 
Q 5500 650 5650 487 
Q 5800 325 5800 200 
Q 5800 100 5725 -37 
Q 5650 -175 5600 -175 
Q 5525 -175 5425 75 
Q 5250 425 4725 925 
z
M 1875 100 
Q 1875 850 1850 1125 
L 2400 850 
L 2200 700 
L 2200 225 
Q 2175 -75 2475 -100 
L 3975 -100 
Q 4200 -125 4262 75 
Q 4325 275 4350 750 
L 4450 750 
Q 4450 325 4500 137 
Q 4550 -50 4725 -75 
Q 4600 -375 4100 -375 
L 2350 -375 
Q 1850 -350 1875 100 
z
" transform="scale(0.015625)"/>
       <path id="SimSun-529b" d="M 3400 4800 
Q 3350 4075 3325 3525 
L 5200 3525 
L 5400 3800 
L 5850 3450 
L 5600 3250 
Q 5475 1375 5362 737 
Q 5250 100 5012 -175 
Q 4775 -450 4275 -550 
Q 4325 -200 3500 175 
L 3525 300 
Q 4150 125 4425 87 
Q 4700 50 4875 475 
Q 5050 900 5225 3375 
L 3300 3375 
Q 3175 2475 2862 1762 
Q 2550 1050 1975 437 
Q 1400 -175 375 -650 
L 350 -550 
Q 1200 -50 1762 637 
Q 2325 1325 2587 2025 
Q 2850 2725 2925 3375 
L 1675 3375 
Q 1350 3375 1075 3300 
L 850 3525 
L 2950 3525 
Q 3000 4725 2975 5275 
L 3625 5000 
L 3400 4800 
z
" transform="scale(0.015625)"/>
       <path id="SimSun-6743" d="M 3300 4250 
Q 3500 2475 4125 1500 
Q 4725 2525 5025 4250 
L 3300 4250 
z
M 2650 4400 
L 5000 4400 
L 5175 4675 
L 5625 4325 
L 5400 4150 
Q 5025 2225 4325 1150 
Q 5225 150 6150 -25 
L 6150 -125 
Q 5700 -175 5600 -450 
Q 4650 125 4100 925 
Q 3125 -100 2000 -575 
L 1950 -500 
Q 3175 225 3900 1225 
Q 3325 2375 3175 4250 
L 2875 4175 
L 2650 4400 
z
M 1825 2725 
Q 1825 25 1850 -475 
L 1450 -650 
Q 1475 525 1475 2425 
Q 1050 1375 300 575 
L 250 650 
Q 1075 1850 1450 3550 
L 650 3550 
L 425 3500 
L 225 3700 
L 1475 3700 
Q 1475 4475 1450 5225 
L 2050 4975 
L 1825 4775 
L 1825 3700 
L 2225 3700 
L 2525 4000 
L 2975 3550 
L 1825 3550 
L 1825 2875 
Q 2475 2600 2662 2425 
Q 2850 2250 2850 2075 
Q 2850 1975 2787 1812 
Q 2725 1650 2675 1650 
Q 2600 1650 2475 1925 
Q 2275 2325 1825 2725 
z
" transform="scale(0.015625)"/>
       <path id="SimSun-91cd" d="M 3325 2275 
L 3325 1600 
L 4575 1600 
L 4575 2275 
L 3325 2275 
z
M 1400 1150 
Q 1425 1750 1425 2300 
Q 1425 2850 1400 3425 
L 1775 3225 
L 3000 3225 
L 3000 3800 
L 1400 3800 
Q 1075 3800 800 3725 
L 575 3950 
L 3000 3950 
L 3000 4550 
Q 1700 4500 1125 4475 
L 1125 4575 
Q 2350 4650 3350 4812 
Q 4350 4975 4725 5175 
L 5100 4725 
Q 4800 4750 4475 4725 
Q 4125 4675 3325 4600 
L 3325 3950 
L 4975 3950 
L 5350 4300 
L 5825 3800 
L 3325 3800 
L 3325 3225 
L 4550 3225 
L 4725 3475 
L 5100 3175 
L 4900 3000 
Q 4900 1950 4925 1325 
L 4575 1150 
L 4575 1450 
L 3325 1450 
L 3325 775 
L 4675 775 
L 5000 1100 
L 5450 625 
L 3325 625 
L 3325 -125 
L 5200 -125 
L 5600 275 
L 6100 -275 
L 1100 -275 
Q 775 -275 500 -350 
L 275 -125 
L 3000 -125 
L 3000 625 
L 1725 625 
Q 1400 625 1125 550 
L 900 775 
L 3000 775 
L 3000 1450 
L 1775 1450 
L 1775 1300 
L 1400 1150 
z
M 1775 3075 
L 1775 2425 
L 3000 2425 
L 3000 3075 
L 1775 3075 
z
M 1775 2275 
L 1775 1600 
L 3000 1600 
L 3000 2275 
L 1775 2275 
z
M 3325 3075 
L 3325 2425 
L 4575 2425 
L 4575 3075 
L 3325 3075 
z
" transform="scale(0.015625)"/>
      </defs>
      <use xlink:href="#SimSun-6ce8"/>
      <use xlink:href="#SimSun-610f" transform="translate(100 0)"/>
      <use xlink:href="#SimSun-529b" transform="translate(200 0)"/>
      <use xlink:href="#SimSun-6743" transform="translate(300 0)"/>
      <use xlink:href="#SimSun-91cd" transform="translate(400 0)"/>
     </g>
    </g>
    <g id="line2d_34">
     <path d="M 400.012031 268.534063 
L 410.012031 268.534063 
L 420.012031 268.534063 
" style="fill: none; stroke-dasharray: 6.66,2.88; stroke-dashoffset: 0; stroke: #ff7f0e; stroke-width: 1.8"/>
     <g>
      <use xlink:href="#mc803a11748" x="410.012031" y="268.534063" style="fill: #ff7f0e; stroke: #ff7f0e; stroke-linejoin: miter"/>
     </g>
    </g>
    <g id="text_24">
     <!-- 集成梯度 -->
     <g transform="translate(428.012031 272.034063) scale(0.1 -0.1)">
      <defs>
       <path id="SimSun-6210" d="M 4325 5075 
Q 4850 4775 5025 4612 
Q 5200 4450 5162 4287 
Q 5125 4125 5025 4062 
Q 4925 4000 4900 4000 
Q 4800 4000 4750 4200 
Q 4675 4475 4250 5000 
L 4325 5075 
z
M 5625 100 
L 5925 1175 
L 6025 1150 
Q 5925 375 5925 125 
Q 5925 -125 6050 -350 
Q 6100 -450 6000 -450 
Q 5825 -450 5350 -275 
Q 4875 -100 4250 675 
Q 3475 -125 2550 -525 
L 2525 -425 
Q 3525 225 4050 950 
Q 3550 1875 3400 3650 
L 1425 3650 
L 1400 2450 
L 2550 2450 
L 2775 2700 
L 3150 2350 
L 2925 2175 
Q 2850 675 2725 437 
Q 2600 200 2250 50 
Q 2175 400 1575 625 
L 1575 725 
Q 2050 650 2237 625 
Q 2425 600 2475 837 
Q 2525 1075 2575 2300 
L 1400 2300 
Q 1325 225 350 -600 
L 300 -525 
Q 950 400 987 1462 
Q 1025 2525 1025 3075 
Q 1025 3625 1000 4025 
L 1450 3800 
L 3375 3800 
Q 3300 4625 3250 5150 
L 3900 4900 
L 3725 4700 
Q 3725 4300 3775 3800 
L 5150 3800 
L 5500 4150 
L 6000 3650 
L 3775 3650 
Q 3925 2000 4300 1325 
Q 4500 1625 4700 2100 
Q 4900 2575 5100 3175 
L 5625 2775 
L 5400 2650 
Q 4975 1625 4525 975 
Q 5050 350 5625 100 
z
" transform="scale(0.015625)"/>
       <path id="SimSun-68af" d="M 4225 3900 
L 4225 3025 
L 5200 3025 
L 5200 3900 
L 4225 3900 
z
M 2950 2900 
L 2900 2000 
L 3900 2000 
L 3900 2900 
L 2950 2900 
z
M 2925 5125 
Q 3275 4950 3475 4800 
Q 3675 4650 3675 4500 
Q 3675 4400 3587 4250 
Q 3500 4100 3450 4100 
Q 3400 4100 3325 4325 
Q 3225 4650 2875 5050 
L 2925 5125 
z
M 5525 3825 
Q 5525 2975 5550 2825 
L 5200 2650 
L 5200 2875 
L 4225 2875 
L 4225 2000 
L 5500 2000 
L 5675 2225 
L 6050 1925 
L 5850 1775 
Q 5800 900 5750 687 
Q 5700 475 5600 350 
Q 5500 225 5200 125 
Q 5200 425 4625 575 
L 4625 675 
Q 5000 625 5187 612 
Q 5375 600 5425 775 
Q 5475 950 5525 1850 
L 4225 1850 
L 4225 850 
Q 4225 250 4250 -450 
L 3875 -625 
Q 3900 775 3900 1700 
Q 3175 375 1950 -400 
L 1900 -325 
Q 2950 500 3550 1850 
L 2900 1850 
L 2700 1675 
L 2400 1975 
L 2575 2100 
Q 2625 2650 2625 3250 
L 2975 3050 
L 3900 3050 
L 3900 3900 
L 2950 3900 
L 2725 3850 
L 2525 4050 
L 4200 4050 
Q 4550 4700 4700 5250 
L 5200 4900 
L 4975 4825 
Q 4675 4425 4350 4050 
L 5150 4050 
L 5350 4275 
L 5725 3975 
L 5525 3825 
z
M 1625 775 
Q 1625 425 1650 -450 
L 1250 -625 
Q 1275 850 1275 2400 
Q 925 1500 300 825 
L 225 875 
Q 975 2100 1250 3575 
L 675 3575 
L 450 3525 
L 250 3725 
L 1275 3725 
Q 1275 4375 1250 5250 
L 1875 4925 
L 1625 4775 
L 1625 3725 
L 1875 3725 
L 2150 4000 
L 2575 3575 
L 1625 3575 
L 1625 3100 
Q 2100 2875 2212 2737 
Q 2325 2600 2325 2500 
Q 2325 2375 2262 2250 
Q 2200 2125 2150 2125 
Q 2075 2125 2000 2350 
Q 1875 2675 1625 2975 
L 1625 775 
z
" transform="scale(0.015625)"/>
      </defs>
      <use xlink:href="#SimSun-96c6"/>
      <use xlink:href="#SimSun-6210" transform="translate(100 0)"/>
      <use xlink:href="#SimSun-68af" transform="translate(200 0)"/>
      <use xlink:href="#SimSun-5ea6" transform="translate(300 0)"/>
     </g>
    </g>
    <g id="line2d_35">
     <path d="M 400.012031 282.673125 
L 410.012031 282.673125 
L 420.012031 282.673125 
" style="fill: none; stroke-dasharray: 11.52,2.88,1.8,2.88; stroke-dashoffset: 0; stroke: #2ca02c; stroke-width: 1.8"/>
     <g>
      <use xlink:href="#m9101244c6d" x="410.012031" y="282.673125" style="fill: #2ca02c; stroke: #2ca02c; stroke-linejoin: miter"/>
     </g>
    </g>
    <g id="text_25">
     <!-- SHAP -->
     <g transform="translate(428.012031 286.173125) scale(0.1 -0.1)">
      <defs>
       <path id="TimesNewRomanPSMT-53" d="M 2934 4334 
L 2934 2869 
L 2819 2869 
Q 2763 3291 2617 3541 
Q 2472 3791 2203 3937 
Q 1934 4084 1647 4084 
Q 1322 4084 1109 3886 
Q 897 3688 897 3434 
Q 897 3241 1031 3081 
Q 1225 2847 1953 2456 
Q 2547 2138 2764 1967 
Q 2981 1797 3098 1565 
Q 3216 1334 3216 1081 
Q 3216 600 2842 251 
Q 2469 -97 1881 -97 
Q 1697 -97 1534 -69 
Q 1438 -53 1133 45 
Q 828 144 747 144 
Q 669 144 623 97 
Q 578 50 556 -97 
L 441 -97 
L 441 1356 
L 556 1356 
Q 638 900 775 673 
Q 913 447 1195 297 
Q 1478 147 1816 147 
Q 2206 147 2432 353 
Q 2659 559 2659 841 
Q 2659 997 2573 1156 
Q 2488 1316 2306 1453 
Q 2184 1547 1640 1851 
Q 1097 2156 867 2337 
Q 638 2519 519 2737 
Q 400 2956 400 3219 
Q 400 3675 750 4004 
Q 1100 4334 1641 4334 
Q 1978 4334 2356 4169 
Q 2531 4091 2603 4091 
Q 2684 4091 2736 4139 
Q 2788 4188 2819 4334 
L 2934 4334 
z
" transform="scale(0.015625)"/>
       <path id="TimesNewRomanPSMT-48" d="M 1316 2272 
L 3284 2272 
L 3284 3484 
Q 3284 3809 3244 3913 
Q 3213 3991 3113 4047 
Q 2978 4122 2828 4122 
L 2678 4122 
L 2678 4238 
L 4491 4238 
L 4491 4122 
L 4341 4122 
Q 4191 4122 4056 4050 
Q 3956 4000 3920 3898 
Q 3884 3797 3884 3484 
L 3884 750 
Q 3884 428 3925 325 
Q 3956 247 4053 191 
Q 4191 116 4341 116 
L 4491 116 
L 4491 0 
L 2678 0 
L 2678 116 
L 2828 116 
Q 3088 116 3206 269 
Q 3284 369 3284 750 
L 3284 2041 
L 1316 2041 
L 1316 750 
Q 1316 428 1356 325 
Q 1388 247 1488 191 
Q 1622 116 1772 116 
L 1925 116 
L 1925 0 
L 109 0 
L 109 116 
L 259 116 
Q 522 116 641 269 
Q 716 369 716 750 
L 716 3484 
Q 716 3809 675 3913 
Q 644 3991 547 4047 
Q 409 4122 259 4122 
L 109 4122 
L 109 4238 
L 1925 4238 
L 1925 4122 
L 1772 4122 
Q 1622 4122 1488 4050 
Q 1391 4000 1353 3898 
Q 1316 3797 1316 3484 
L 1316 2272 
z
" transform="scale(0.015625)"/>
       <path id="TimesNewRomanPSMT-50" d="M 1313 1984 
L 1313 750 
Q 1313 350 1400 253 
Q 1519 116 1759 116 
L 1922 116 
L 1922 0 
L 106 0 
L 106 116 
L 266 116 
Q 534 116 650 291 
Q 713 388 713 750 
L 713 3488 
Q 713 3888 628 3984 
Q 506 4122 266 4122 
L 106 4122 
L 106 4238 
L 1659 4238 
Q 2228 4238 2556 4120 
Q 2884 4003 3109 3725 
Q 3334 3447 3334 3066 
Q 3334 2547 2992 2222 
Q 2650 1897 2025 1897 
Q 1872 1897 1694 1919 
Q 1516 1941 1313 1984 
z
M 1313 2163 
Q 1478 2131 1606 2115 
Q 1734 2100 1825 2100 
Q 2150 2100 2386 2351 
Q 2622 2603 2622 3003 
Q 2622 3278 2509 3514 
Q 2397 3750 2190 3867 
Q 1984 3984 1722 3984 
Q 1563 3984 1313 3925 
L 1313 2163 
z
" transform="scale(0.015625)"/>
      </defs>
      <use xlink:href="#TimesNewRomanPSMT-53"/>
      <use xlink:href="#TimesNewRomanPSMT-48" transform="translate(55.615234 0)"/>
      <use xlink:href="#TimesNewRomanPSMT-41" transform="translate(127.832031 0)"/>
      <use xlink:href="#TimesNewRomanPSMT-50" transform="translate(200.048828 0)"/>
     </g>
    </g>
    <g id="line2d_36">
     <path d="M 400.012031 296.812187 
L 410.012031 296.812187 
L 420.012031 296.812187 
" style="fill: none; stroke-dasharray: 9,5.4; stroke-dashoffset: 0; stroke: #d62728; stroke-width: 1.8"/>
     <g>
      <use xlink:href="#m6d8329738a" x="410.012031" y="296.812187" style="fill: #d62728; stroke: #d62728; stroke-linejoin: miter"/>
     </g>
    </g>
    <g id="text_26">
     <!-- LIME -->
     <g transform="translate(428.012031 300.312187) scale(0.1 -0.1)">
      <defs>
       <path id="TimesNewRomanPSMT-4c" d="M 3669 1172 
L 3772 1150 
L 3409 0 
L 128 0 
L 128 116 
L 288 116 
Q 556 116 672 291 
Q 738 391 738 753 
L 738 3488 
Q 738 3884 650 3984 
Q 528 4122 288 4122 
L 128 4122 
L 128 4238 
L 2047 4238 
L 2047 4122 
Q 1709 4125 1573 4059 
Q 1438 3994 1388 3894 
Q 1338 3794 1338 3416 
L 1338 753 
Q 1338 494 1388 397 
Q 1425 331 1503 300 
Q 1581 269 1991 269 
L 2300 269 
Q 2788 269 2984 341 
Q 3181 413 3343 595 
Q 3506 778 3669 1172 
z
" transform="scale(0.015625)"/>
       <path id="TimesNewRomanPSMT-49" d="M 1975 116 
L 1975 0 
L 159 0 
L 159 116 
L 309 116 
Q 572 116 691 269 
Q 766 369 766 750 
L 766 3488 
Q 766 3809 725 3913 
Q 694 3991 597 4047 
Q 459 4122 309 4122 
L 159 4122 
L 159 4238 
L 1975 4238 
L 1975 4122 
L 1822 4122 
Q 1563 4122 1444 3969 
Q 1366 3869 1366 3488 
L 1366 750 
Q 1366 428 1406 325 
Q 1438 247 1538 191 
Q 1672 116 1822 116 
L 1975 116 
z
" transform="scale(0.015625)"/>
       <path id="TimesNewRomanPSMT-4d" d="M 2619 0 
L 981 3566 
L 981 734 
Q 981 344 1066 247 
Q 1181 116 1431 116 
L 1581 116 
L 1581 0 
L 106 0 
L 106 116 
L 256 116 
Q 525 116 638 278 
Q 706 378 706 734 
L 706 3503 
Q 706 3784 644 3909 
Q 600 4000 483 4061 
Q 366 4122 106 4122 
L 106 4238 
L 1306 4238 
L 2844 922 
L 4356 4238 
L 5556 4238 
L 5556 4122 
L 5409 4122 
Q 5138 4122 5025 3959 
Q 4956 3859 4956 3503 
L 4956 734 
Q 4956 344 5044 247 
Q 5159 116 5409 116 
L 5556 116 
L 5556 0 
L 3756 0 
L 3756 116 
L 3906 116 
Q 4178 116 4288 278 
Q 4356 378 4356 734 
L 4356 3566 
L 2722 0 
L 2619 0 
z
" transform="scale(0.015625)"/>
       <path id="TimesNewRomanPSMT-45" d="M 1338 4006 
L 1338 2331 
L 2269 2331 
Q 2631 2331 2753 2441 
Q 2916 2584 2934 2947 
L 3050 2947 
L 3050 1472 
L 2934 1472 
Q 2891 1781 2847 1869 
Q 2791 1978 2662 2040 
Q 2534 2103 2269 2103 
L 1338 2103 
L 1338 706 
Q 1338 425 1363 364 
Q 1388 303 1450 267 
Q 1513 231 1688 231 
L 2406 231 
Q 2766 231 2928 281 
Q 3091 331 3241 478 
Q 3434 672 3638 1063 
L 3763 1063 
L 3397 0 
L 131 0 
L 131 116 
L 281 116 
Q 431 116 566 188 
Q 666 238 702 338 
Q 738 438 738 747 
L 738 3500 
Q 738 3903 656 3997 
Q 544 4122 281 4122 
L 131 4122 
L 131 4238 
L 3397 4238 
L 3444 3309 
L 3322 3309 
Q 3256 3644 3176 3769 
Q 3097 3894 2941 3959 
Q 2816 4006 2500 4006 
L 1338 4006 
z
" transform="scale(0.015625)"/>
      </defs>
      <use xlink:href="#TimesNewRomanPSMT-4c"/>
      <use xlink:href="#TimesNewRomanPSMT-49" transform="translate(61.083984 0)"/>
      <use xlink:href="#TimesNewRomanPSMT-4d" transform="translate(94.384766 0)"/>
      <use xlink:href="#TimesNewRomanPSMT-45" transform="translate(183.300781 0)"/>
     </g>
    </g>
   </g>
  </g>
 </g>
 <defs>
  <clipPath id="pcbd44a510c">
   <rect x="40.969531" y="21.7425" width="446.0425" height="289.70875"/>
  </clipPath>
 </defs>
</svg>
