<?xml version="1.0" encoding="utf-8" standalone="no"?>
<!DOCTYPE svg PUBLIC "-//W3C//DTD SVG 1.1//EN"
  "http://www.w3.org/Graphics/SVG/1.1/DTD/svg11.dtd">
<svg xmlns:xlink="http://www.w3.org/1999/xlink" width="566.675625pt" height="349.191562pt" viewBox="0 0 566.675625 349.191562" xmlns="http://www.w3.org/2000/svg" version="1.1">
 <metadata>
  <rdf:RDF xmlns:dc="http://purl.org/dc/elements/1.1/" xmlns:cc="http://creativecommons.org/ns#" xmlns:rdf="http://www.w3.org/1999/02/22-rdf-syntax-ns#">
   <cc:Work>
    <dc:type rdf:resource="http://purl.org/dc/dcmitype/StillImage"/>
    <dc:date>2026-03-10T20:16:59.781686</dc:date>
    <dc:format>image/svg+xml</dc:format>
    <dc:creator>
     <cc:Agent>
      <dc:title>Matplotlib v3.10.3, https://matplotlib.org/</dc:title>
     </cc:Agent>
    </dc:creator>
   </cc:Work>
  </rdf:RDF>
 </metadata>
 <defs>
  <style type="text/css">*{stroke-linejoin: round; stroke-linecap: butt}</style>
 </defs>
 <g id="figure_1">
  <g id="patch_1">
   <path d="M 0 349.191562 
L 566.675625 349.191562 
L 566.675625 0 
L 0 0 
z
" style="fill: #ffffff"/>
  </g>
  <g id="axes_1">
   <g id="patch_2">
    <path d="M 42.119375 325.73375 
L 559.475625 325.73375 
L 559.475625 21.7425 
L 42.119375 21.7425 
z
" style="fill: #ffffff"/>
   </g>
   <g id="matplotlib.axis_1">
    <g id="xtick_1">
     <g id="line2d_1">
      <defs>
       <path id="md48b8ca481" d="M 0 0 
L 0 3.5 
" style="stroke: #000000; stroke-width: 0.8"/>
      </defs>
      <g>
       <use xlink:href="#md48b8ca481" x="110.125663" y="325.73375" style="stroke: #000000; stroke-width: 0.8"/>
      </g>
     </g>
     <g id="text_1">
      <!-- 注意力权重 -->
      <g transform="translate(85.125663 339.8525) scale(0.1 -0.1)">
       <defs>
        <path id="SimSun-6ce8" d="M 3225 5100 
Q 3800 4825 3975 4675 
Q 4150 4525 4150 4375 
Q 4150 4250 4050 4087 
Q 3950 3925 3900 3925 
Q 3800 3925 3725 4175 
Q 3600 4550 3175 5025 
L 3225 5100 
z
M 2250 3700 
L 5100 3700 
L 5500 4075 
L 5975 3550 
L 4075 3550 
L 4075 1975 
L 4875 1975 
L 5225 2325 
L 5700 1825 
L 4075 1825 
L 4075 -25 
L 5200 -25 
L 5600 350 
L 6075 -175 
L 2575 -175 
Q 2250 -175 1975 -250 
L 1750 -25 
L 3725 -25 
L 3725 1825 
L 3100 1825 
Q 2775 1825 2500 1750 
L 2275 1975 
L 3725 1975 
L 3725 3550 
L 3075 3550 
Q 2750 3550 2475 3475 
L 2250 3700 
z
M 2250 4075 
Q 1450 1375 1350 1037 
Q 1250 700 1237 262 
Q 1225 -175 1250 -375 
Q 1250 -500 1150 -500 
Q 1075 -500 900 -425 
Q 725 -350 725 -150 
Q 725 -25 800 200 
Q 875 450 875 600 
Q 875 775 762 875 
Q 650 975 275 1075 
L 275 1175 
Q 725 1125 837 1137 
Q 950 1150 1100 1362 
Q 1250 1575 2150 4100 
L 2250 4075 
z
M 300 3450 
Q 1175 3050 1187 2800 
Q 1200 2550 1112 2437 
Q 1025 2325 975 2325 
Q 875 2325 800 2550 
Q 675 2875 250 3375 
L 300 3450 
z
M 900 4950 
Q 1575 4625 1650 4487 
Q 1725 4350 1725 4250 
Q 1725 4100 1625 3950 
Q 1525 3800 1500 3800 
Q 1425 3800 1350 4050 
Q 1225 4400 850 4875 
L 900 4950 
z
" transform="scale(0.015625)"/>
        <path id="SimSun-610f" d="M 2800 5250 
Q 3325 5025 3400 4837 
Q 3475 4650 3275 4475 
L 4375 4475 
L 4700 4800 
L 5175 4325 
L 3975 4325 
L 4350 4075 
Q 4100 4000 3650 3450 
L 5075 3450 
L 5450 3825 
L 5975 3300 
L 1250 3300 
Q 925 3300 650 3225 
L 425 3450 
L 3500 3450 
Q 3800 4025 3875 4325 
L 2225 4325 
Q 2600 4100 2675 4000 
Q 2750 3900 2750 3800 
Q 2750 3725 2700 3625 
Q 2650 3525 2537 3512 
Q 2425 3500 2400 3725 
Q 2375 3925 2100 4325 
L 1625 4325 
L 1300 4275 
L 1100 4475 
L 3075 4475 
Q 3075 4800 2750 5200 
L 2800 5250 
z
M 1400 3075 
L 1750 2875 
L 4450 2875 
L 4625 3075 
L 5000 2800 
L 4825 2650 
Q 4825 1575 4850 1300 
L 4500 1150 
L 4500 1375 
L 1750 1375 
L 1750 1250 
L 1400 1125 
Q 1425 1575 1425 2087 
Q 1425 2600 1400 3075 
z
M 1750 2725 
L 1750 2200 
L 4500 2200 
L 4500 2725 
L 1750 2725 
z
M 1750 2050 
L 1750 1525 
L 4500 1525 
L 4500 2050 
L 1750 2050 
z
M 1200 925 
L 1300 900 
Q 1275 200 1162 -12 
Q 1050 -225 862 -262 
Q 675 -300 600 -237 
Q 525 -175 525 -125 
Q 525 -25 750 125 
Q 1050 350 1200 925 
z
M 2650 1250 
L 2700 1325 
Q 3325 1050 3437 925 
Q 3550 800 3550 675 
Q 3550 575 3487 450 
Q 3425 325 3400 325 
Q 3325 325 3225 525 
Q 3075 825 2650 1250 
z
M 4725 925 
L 4800 1000 
Q 5500 650 5650 487 
Q 5800 325 5800 200 
Q 5800 100 5725 -37 
Q 5650 -175 5600 -175 
Q 5525 -175 5425 75 
Q 5250 425 4725 925 
z
M 1875 100 
Q 1875 850 1850 1125 
L 2400 850 
L 2200 700 
L 2200 225 
Q 2175 -75 2475 -100 
L 3975 -100 
Q 4200 -125 4262 75 
Q 4325 275 4350 750 
L 4450 750 
Q 4450 325 4500 137 
Q 4550 -50 4725 -75 
Q 4600 -375 4100 -375 
L 2350 -375 
Q 1850 -350 1875 100 
z
" transform="scale(0.015625)"/>
        <path id="SimSun-529b" d="M 3400 4800 
Q 3350 4075 3325 3525 
L 5200 3525 
L 5400 3800 
L 5850 3450 
L 5600 3250 
Q 5475 1375 5362 737 
Q 5250 100 5012 -175 
Q 4775 -450 4275 -550 
Q 4325 -200 3500 175 
L 3525 300 
Q 4150 125 4425 87 
Q 4700 50 4875 475 
Q 5050 900 5225 3375 
L 3300 3375 
Q 3175 2475 2862 1762 
Q 2550 1050 1975 437 
Q 1400 -175 375 -650 
L 350 -550 
Q 1200 -50 1762 637 
Q 2325 1325 2587 2025 
Q 2850 2725 2925 3375 
L 1675 3375 
Q 1350 3375 1075 3300 
L 850 3525 
L 2950 3525 
Q 3000 4725 2975 5275 
L 3625 5000 
L 3400 4800 
z
" transform="scale(0.015625)"/>
        <path id="SimSun-6743" d="M 3300 4250 
Q 3500 2475 4125 1500 
Q 4725 2525 5025 4250 
L 3300 4250 
z
M 2650 4400 
L 5000 4400 
L 5175 4675 
L 5625 4325 
L 5400 4150 
Q 5025 2225 4325 1150 
Q 5225 150 6150 -25 
L 6150 -125 
Q 5700 -175 5600 -450 
Q 4650 125 4100 925 
Q 3125 -100 2000 -575 
L 1950 -500 
Q 3175 225 3900 1225 
Q 3325 2375 3175 4250 
L 2875 4175 
L 2650 4400 
z
M 1825 2725 
Q 1825 25 1850 -475 
L 1450 -650 
Q 1475 525 1475 2425 
Q 1050 1375 300 575 
L 250 650 
Q 1075 1850 1450 3550 
L 650 3550 
L 425 3500 
L 225 3700 
L 1475 3700 
Q 1475 4475 1450 5225 
L 2050 4975 
L 1825 4775 
L 1825 3700 
L 2225 3700 
L 2525 4000 
L 2975 3550 
L 1825 3550 
L 1825 2875 
Q 2475 2600 2662 2425 
Q 2850 2250 2850 2075 
Q 2850 1975 2787 1812 
Q 2725 1650 2675 1650 
Q 2600 1650 2475 1925 
Q 2275 2325 1825 2725 
z
" transform="scale(0.015625)"/>
        <path id="SimSun-91cd" d="M 3325 2275 
L 3325 1600 
L 4575 1600 
L 4575 2275 
L 3325 2275 
z
M 1400 1150 
Q 1425 1750 1425 2300 
Q 1425 2850 1400 3425 
L 1775 3225 
L 3000 3225 
L 3000 3800 
L 1400 3800 
Q 1075 3800 800 3725 
L 575 3950 
L 3000 3950 
L 3000 4550 
Q 1700 4500 1125 4475 
L 1125 4575 
Q 2350 4650 3350 4812 
Q 4350 4975 4725 5175 
L 5100 4725 
Q 4800 4750 4475 4725 
Q 4125 4675 3325 4600 
L 3325 3950 
L 4975 3950 
L 5350 4300 
L 5825 3800 
L 3325 3800 
L 3325 3225 
L 4550 3225 
L 4725 3475 
L 5100 3175 
L 4900 3000 
Q 4900 1950 4925 1325 
L 4575 1150 
L 4575 1450 
L 3325 1450 
L 3325 775 
L 4675 775 
L 5000 1100 
L 5450 625 
L 3325 625 
L 3325 -125 
L 5200 -125 
L 5600 275 
L 6100 -275 
L 1100 -275 
Q 775 -275 500 -350 
L 275 -125 
L 3000 -125 
L 3000 625 
L 1725 625 
Q 1400 625 1125 550 
L 900 775 
L 3000 775 
L 3000 1450 
L 1775 1450 
L 1775 1300 
L 1400 1150 
z
M 1775 3075 
L 1775 2425 
L 3000 2425 
L 3000 3075 
L 1775 3075 
z
M 1775 2275 
L 1775 1600 
L 3000 1600 
L 3000 2275 
L 1775 2275 
z
M 3325 3075 
L 3325 2425 
L 4575 2425 
L 4575 3075 
L 3325 3075 
z
" transform="scale(0.015625)"/>
       </defs>
       <use xlink:href="#SimSun-6ce8"/>
       <use xlink:href="#SimSun-610f" transform="translate(100 0)"/>
       <use xlink:href="#SimSun-529b" transform="translate(200 0)"/>
       <use xlink:href="#SimSun-6743" transform="translate(300 0)"/>
       <use xlink:href="#SimSun-91cd" transform="translate(400 0)"/>
      </g>
     </g>
    </g>
    <g id="xtick_2">
     <g id="line2d_2">
      <g>
       <use xlink:href="#md48b8ca481" x="237.240221" y="325.73375" style="stroke: #000000; stroke-width: 0.8"/>
      </g>
     </g>
     <g id="text_2">
      <!-- 集成梯度 -->
      <g transform="translate(217.240221 339.8525) scale(0.1 -0.1)">
       <defs>
        <path id="SimSun-96c6" d="M 1775 2650 
L 1775 2075 
L 3200 2075 
L 3200 2650 
L 1775 2650 
z
M 1425 1500 
Q 1450 2500 1450 3750 
Q 975 3200 300 2750 
L 250 2825 
Q 800 3300 1250 3962 
Q 1700 4625 1925 5275 
L 2425 4925 
L 2200 4850 
L 1825 4250 
L 4975 4250 
L 5275 4550 
L 5700 4100 
L 3525 4100 
L 3525 3500 
L 4700 3500 
L 4975 3775 
L 5375 3350 
L 3525 3350 
L 3525 2800 
L 4650 2800 
L 4925 3075 
L 5325 2650 
L 3525 2650 
L 3525 2075 
L 4925 2075 
L 5225 2375 
L 5650 1925 
L 1775 1925 
L 1775 1625 
L 1425 1500 
z
M 2975 5200 
Q 3450 5025 3575 4887 
Q 3700 4750 3700 4650 
Q 3700 4550 3612 4425 
Q 3525 4300 3500 4300 
Q 3400 4300 3325 4525 
Q 3200 4850 2925 5125 
L 2975 5200 
z
M 1775 4100 
L 1775 3500 
L 3200 3500 
L 3200 4100 
L 1775 4100 
z
M 1775 3350 
L 1775 2800 
L 3200 2800 
L 3200 3350 
L 1775 3350 
z
M 3075 1300 
Q 3075 1675 3050 1900 
L 3600 1700 
L 3400 1525 
L 3400 1300 
L 5400 1300 
L 5700 1600 
L 6125 1150 
L 3675 1150 
Q 4150 600 4750 300 
Q 5350 0 6150 -75 
L 6150 -150 
Q 5775 -225 5700 -475 
Q 5050 -275 4525 87 
Q 4000 450 3550 1150 
L 3400 1150 
Q 3400 -100 3425 -450 
L 3050 -650 
Q 3075 150 3075 1125 
Q 2550 550 1887 150 
Q 1225 -250 300 -575 
L 275 -475 
Q 1175 -75 1800 387 
Q 2425 850 2650 1150 
L 1100 1150 
Q 775 1150 500 1075 
L 275 1300 
L 3075 1300 
z
" transform="scale(0.015625)"/>
        <path id="SimSun-6210" d="M 4325 5075 
Q 4850 4775 5025 4612 
Q 5200 4450 5162 4287 
Q 5125 4125 5025 4062 
Q 4925 4000 4900 4000 
Q 4800 4000 4750 4200 
Q 4675 4475 4250 5000 
L 4325 5075 
z
M 5625 100 
L 5925 1175 
L 6025 1150 
Q 5925 375 5925 125 
Q 5925 -125 6050 -350 
Q 6100 -450 6000 -450 
Q 5825 -450 5350 -275 
Q 4875 -100 4250 675 
Q 3475 -125 2550 -525 
L 2525 -425 
Q 3525 225 4050 950 
Q 3550 1875 3400 3650 
L 1425 3650 
L 1400 2450 
L 2550 2450 
L 2775 2700 
L 3150 2350 
L 2925 2175 
Q 2850 675 2725 437 
Q 2600 200 2250 50 
Q 2175 400 1575 625 
L 1575 725 
Q 2050 650 2237 625 
Q 2425 600 2475 837 
Q 2525 1075 2575 2300 
L 1400 2300 
Q 1325 225 350 -600 
L 300 -525 
Q 950 400 987 1462 
Q 1025 2525 1025 3075 
Q 1025 3625 1000 4025 
L 1450 3800 
L 3375 3800 
Q 3300 4625 3250 5150 
L 3900 4900 
L 3725 4700 
Q 3725 4300 3775 3800 
L 5150 3800 
L 5500 4150 
L 6000 3650 
L 3775 3650 
Q 3925 2000 4300 1325 
Q 4500 1625 4700 2100 
Q 4900 2575 5100 3175 
L 5625 2775 
L 5400 2650 
Q 4975 1625 4525 975 
Q 5050 350 5625 100 
z
" transform="scale(0.015625)"/>
        <path id="SimSun-68af" d="M 4225 3900 
L 4225 3025 
L 5200 3025 
L 5200 3900 
L 4225 3900 
z
M 2950 2900 
L 2900 2000 
L 3900 2000 
L 3900 2900 
L 2950 2900 
z
M 2925 5125 
Q 3275 4950 3475 4800 
Q 3675 4650 3675 4500 
Q 3675 4400 3587 4250 
Q 3500 4100 3450 4100 
Q 3400 4100 3325 4325 
Q 3225 4650 2875 5050 
L 2925 5125 
z
M 5525 3825 
Q 5525 2975 5550 2825 
L 5200 2650 
L 5200 2875 
L 4225 2875 
L 4225 2000 
L 5500 2000 
L 5675 2225 
L 6050 1925 
L 5850 1775 
Q 5800 900 5750 687 
Q 5700 475 5600 350 
Q 5500 225 5200 125 
Q 5200 425 4625 575 
L 4625 675 
Q 5000 625 5187 612 
Q 5375 600 5425 775 
Q 5475 950 5525 1850 
L 4225 1850 
L 4225 850 
Q 4225 250 4250 -450 
L 3875 -625 
Q 3900 775 3900 1700 
Q 3175 375 1950 -400 
L 1900 -325 
Q 2950 500 3550 1850 
L 2900 1850 
L 2700 1675 
L 2400 1975 
L 2575 2100 
Q 2625 2650 2625 3250 
L 2975 3050 
L 3900 3050 
L 3900 3900 
L 2950 3900 
L 2725 3850 
L 2525 4050 
L 4200 4050 
Q 4550 4700 4700 5250 
L 5200 4900 
L 4975 4825 
Q 4675 4425 4350 4050 
L 5150 4050 
L 5350 4275 
L 5725 3975 
L 5525 3825 
z
M 1625 775 
Q 1625 425 1650 -450 
L 1250 -625 
Q 1275 850 1275 2400 
Q 925 1500 300 825 
L 225 875 
Q 975 2100 1250 3575 
L 675 3575 
L 450 3525 
L 250 3725 
L 1275 3725 
Q 1275 4375 1250 5250 
L 1875 4925 
L 1625 4775 
L 1625 3725 
L 1875 3725 
L 2150 4000 
L 2575 3575 
L 1625 3575 
L 1625 3100 
Q 2100 2875 2212 2737 
Q 2325 2600 2325 2500 
Q 2325 2375 2262 2250 
Q 2200 2125 2150 2125 
Q 2075 2125 2000 2350 
Q 1875 2675 1625 2975 
L 1625 775 
z
" transform="scale(0.015625)"/>
        <path id="SimSun-5ea6" d="M 2550 2025 
Q 2575 2525 2575 3175 
L 1925 3175 
L 1625 3125 
L 1425 3325 
L 2575 3325 
Q 2575 3700 2550 4150 
L 3100 3875 
L 2900 3750 
L 2900 3325 
L 4300 3325 
Q 4300 3750 4275 4125 
L 4850 3875 
L 4625 3725 
L 4625 3325 
L 5100 3325 
L 5425 3650 
L 5900 3175 
L 4625 3175 
Q 4625 2450 4650 2225 
L 4300 2075 
L 4300 2300 
L 2900 2300 
L 2900 2175 
L 2550 2025 
z
M 4875 1500 
Q 4300 775 3900 425 
Q 4700 -75 6025 -125 
L 6025 -225 
Q 5625 -300 5550 -550 
Q 4375 -325 3675 225 
Q 2475 -450 1075 -625 
L 1050 -525 
Q 2375 -275 3450 450 
Q 2975 925 2575 1625 
L 2325 1625 
L 2100 1575 
L 1900 1775 
L 4525 1775 
L 4750 2000 
L 5125 1625 
L 4875 1500 
z
M 2700 1625 
Q 3175 975 3650 625 
Q 4150 1100 4500 1625 
L 2700 1625 
z
M 2900 3175 
L 2900 2450 
L 4300 2450 
L 4300 3175 
L 2900 3175 
z
M 975 4650 
L 1400 4400 
L 3375 4400 
Q 3350 4550 3262 4725 
Q 3175 4900 2900 5225 
L 2975 5275 
Q 3550 5025 3637 4887 
Q 3725 4750 3725 4725 
Q 3725 4575 3525 4400 
L 5150 4400 
L 5500 4750 
L 6000 4250 
L 1375 4250 
Q 1400 2750 1287 1912 
Q 1175 1075 925 475 
Q 675 -125 300 -625 
L 225 -575 
Q 725 300 862 1250 
Q 1000 2200 1012 3187 
Q 1025 4175 975 4650 
z
" transform="scale(0.015625)"/>
       </defs>
       <use xlink:href="#SimSun-96c6"/>
       <use xlink:href="#SimSun-6210" transform="translate(100 0)"/>
       <use xlink:href="#SimSun-68af" transform="translate(200 0)"/>
       <use xlink:href="#SimSun-5ea6" transform="translate(300 0)"/>
      </g>
     </g>
    </g>
    <g id="xtick_3">
     <g id="line2d_3">
      <g>
       <use xlink:href="#md48b8ca481" x="364.354779" y="325.73375" style="stroke: #000000; stroke-width: 0.8"/>
      </g>
     </g>
     <g id="text_3">
      <!-- SHAP -->
      <g transform="translate(351.571966 339.6775) scale(0.1 -0.1)">
       <defs>
        <path id="TimesNewRomanPSMT-53" d="M 2934 4334 
L 2934 2869 
L 2819 2869 
Q 2763 3291 2617 3541 
Q 2472 3791 2203 3937 
Q 1934 4084 1647 4084 
Q 1322 4084 1109 3886 
Q 897 3688 897 3434 
Q 897 3241 1031 3081 
Q 1225 2847 1953 2456 
Q 2547 2138 2764 1967 
Q 2981 1797 3098 1565 
Q 3216 1334 3216 1081 
Q 3216 600 2842 251 
Q 2469 -97 1881 -97 
Q 1697 -97 1534 -69 
Q 1438 -53 1133 45 
Q 828 144 747 144 
Q 669 144 623 97 
Q 578 50 556 -97 
L 441 -97 
L 441 1356 
L 556 1356 
Q 638 900 775 673 
Q 913 447 1195 297 
Q 1478 147 1816 147 
Q 2206 147 2432 353 
Q 2659 559 2659 841 
Q 2659 997 2573 1156 
Q 2488 1316 2306 1453 
Q 2184 1547 1640 1851 
Q 1097 2156 867 2337 
Q 638 2519 519 2737 
Q 400 2956 400 3219 
Q 400 3675 750 4004 
Q 1100 4334 1641 4334 
Q 1978 4334 2356 4169 
Q 2531 4091 2603 4091 
Q 2684 4091 2736 4139 
Q 2788 4188 2819 4334 
L 2934 4334 
z
" transform="scale(0.015625)"/>
        <path id="TimesNewRomanPSMT-48" d="M 1316 2272 
L 3284 2272 
L 3284 3484 
Q 3284 3809 3244 3913 
Q 3213 3991 3113 4047 
Q 2978 4122 2828 4122 
L 2678 4122 
L 2678 4238 
L 4491 4238 
L 4491 4122 
L 4341 4122 
Q 4191 4122 4056 4050 
Q 3956 4000 3920 3898 
Q 3884 3797 3884 3484 
L 3884 750 
Q 3884 428 3925 325 
Q 3956 247 4053 191 
Q 4191 116 4341 116 
L 4491 116 
L 4491 0 
L 2678 0 
L 2678 116 
L 2828 116 
Q 3088 116 3206 269 
Q 3284 369 3284 750 
L 3284 2041 
L 1316 2041 
L 1316 750 
Q 1316 428 1356 325 
Q 1388 247 1488 191 
Q 1622 116 1772 116 
L 1925 116 
L 1925 0 
L 109 0 
L 109 116 
L 259 116 
Q 522 116 641 269 
Q 716 369 716 750 
L 716 3484 
Q 716 3809 675 3913 
Q 644 3991 547 4047 
Q 409 4122 259 4122 
L 109 4122 
L 109 4238 
L 1925 4238 
L 1925 4122 
L 1772 4122 
Q 1622 4122 1488 4050 
Q 1391 4000 1353 3898 
Q 1316 3797 1316 3484 
L 1316 2272 
z
" transform="scale(0.015625)"/>
        <path id="TimesNewRomanPSMT-41" d="M 2928 1419 
L 1288 1419 
L 1000 750 
Q 894 503 894 381 
Q 894 284 986 211 
Q 1078 138 1384 116 
L 1384 0 
L 50 0 
L 50 116 
Q 316 163 394 238 
Q 553 388 747 847 
L 2238 4334 
L 2347 4334 
L 3822 809 
Q 4000 384 4145 257 
Q 4291 131 4550 116 
L 4550 0 
L 2878 0 
L 2878 116 
Q 3131 128 3220 200 
Q 3309 272 3309 375 
Q 3309 513 3184 809 
L 2928 1419 
z
M 2841 1650 
L 2122 3363 
L 1384 1650 
L 2841 1650 
z
" transform="scale(0.015625)"/>
        <path id="TimesNewRomanPSMT-50" d="M 1313 1984 
L 1313 750 
Q 1313 350 1400 253 
Q 1519 116 1759 116 
L 1922 116 
L 1922 0 
L 106 0 
L 106 116 
L 266 116 
Q 534 116 650 291 
Q 713 388 713 750 
L 713 3488 
Q 713 3888 628 3984 
Q 506 4122 266 4122 
L 106 4122 
L 106 4238 
L 1659 4238 
Q 2228 4238 2556 4120 
Q 2884 4003 3109 3725 
Q 3334 3447 3334 3066 
Q 3334 2547 2992 2222 
Q 2650 1897 2025 1897 
Q 1872 1897 1694 1919 
Q 1516 1941 1313 1984 
z
M 1313 2163 
Q 1478 2131 1606 2115 
Q 1734 2100 1825 2100 
Q 2150 2100 2386 2351 
Q 2622 2603 2622 3003 
Q 2622 3278 2509 3514 
Q 2397 3750 2190 3867 
Q 1984 3984 1722 3984 
Q 1563 3984 1313 3925 
L 1313 2163 
z
" transform="scale(0.015625)"/>
       </defs>
       <use xlink:href="#TimesNewRomanPSMT-53"/>
       <use xlink:href="#TimesNewRomanPSMT-48" transform="translate(55.615234 0)"/>
       <use xlink:href="#TimesNewRomanPSMT-41" transform="translate(127.832031 0)"/>
       <use xlink:href="#TimesNewRomanPSMT-50" transform="translate(200.048828 0)"/>
      </g>
     </g>
    </g>
    <g id="xtick_4">
     <g id="line2d_4">
      <g>
       <use xlink:href="#md48b8ca481" x="491.469337" y="325.73375" style="stroke: #000000; stroke-width: 0.8"/>
      </g>
     </g>
     <g id="text_4">
      <!-- LIME -->
      <g transform="translate(479.250587 339.6775) scale(0.1 -0.1)">
       <defs>
        <path id="TimesNewRomanPSMT-4c" d="M 3669 1172 
L 3772 1150 
L 3409 0 
L 128 0 
L 128 116 
L 288 116 
Q 556 116 672 291 
Q 738 391 738 753 
L 738 3488 
Q 738 3884 650 3984 
Q 528 4122 288 4122 
L 128 4122 
L 128 4238 
L 2047 4238 
L 2047 4122 
Q 1709 4125 1573 4059 
Q 1438 3994 1388 3894 
Q 1338 3794 1338 3416 
L 1338 753 
Q 1338 494 1388 397 
Q 1425 331 1503 300 
Q 1581 269 1991 269 
L 2300 269 
Q 2788 269 2984 341 
Q 3181 413 3343 595 
Q 3506 778 3669 1172 
z
" transform="scale(0.015625)"/>
        <path id="TimesNewRomanPSMT-49" d="M 1975 116 
L 1975 0 
L 159 0 
L 159 116 
L 309 116 
Q 572 116 691 269 
Q 766 369 766 750 
L 766 3488 
Q 766 3809 725 3913 
Q 694 3991 597 4047 
Q 459 4122 309 4122 
L 159 4122 
L 159 4238 
L 1975 4238 
L 1975 4122 
L 1822 4122 
Q 1563 4122 1444 3969 
Q 1366 3869 1366 3488 
L 1366 750 
Q 1366 428 1406 325 
Q 1438 247 1538 191 
Q 1672 116 1822 116 
L 1975 116 
z
" transform="scale(0.015625)"/>
        <path id="TimesNewRomanPSMT-4d" d="M 2619 0 
L 981 3566 
L 981 734 
Q 981 344 1066 247 
Q 1181 116 1431 116 
L 1581 116 
L 1581 0 
L 106 0 
L 106 116 
L 256 116 
Q 525 116 638 278 
Q 706 378 706 734 
L 706 3503 
Q 706 3784 644 3909 
Q 600 4000 483 4061 
Q 366 4122 106 4122 
L 106 4238 
L 1306 4238 
L 2844 922 
L 4356 4238 
L 5556 4238 
L 5556 4122 
L 5409 4122 
Q 5138 4122 5025 3959 
Q 4956 3859 4956 3503 
L 4956 734 
Q 4956 344 5044 247 
Q 5159 116 5409 116 
L 5556 116 
L 5556 0 
L 3756 0 
L 3756 116 
L 3906 116 
Q 4178 116 4288 278 
Q 4356 378 4356 734 
L 4356 3566 
L 2722 0 
L 2619 0 
z
" transform="scale(0.015625)"/>
        <path id="TimesNewRomanPSMT-45" d="M 1338 4006 
L 1338 2331 
L 2269 2331 
Q 2631 2331 2753 2441 
Q 2916 2584 2934 2947 
L 3050 2947 
L 3050 1472 
L 2934 1472 
Q 2891 1781 2847 1869 
Q 2791 1978 2662 2040 
Q 2534 2103 2269 2103 
L 1338 2103 
L 1338 706 
Q 1338 425 1363 364 
Q 1388 303 1450 267 
Q 1513 231 1688 231 
L 2406 231 
Q 2766 231 2928 281 
Q 3091 331 3241 478 
Q 3434 672 3638 1063 
L 3763 1063 
L 3397 0 
L 131 0 
L 131 116 
L 281 116 
Q 431 116 566 188 
Q 666 238 702 338 
Q 738 438 738 747 
L 738 3500 
Q 738 3903 656 3997 
Q 544 4122 281 4122 
L 131 4122 
L 131 4238 
L 3397 4238 
L 3444 3309 
L 3322 3309 
Q 3256 3644 3176 3769 
Q 3097 3894 2941 3959 
Q 2816 4006 2500 4006 
L 1338 4006 
z
" transform="scale(0.015625)"/>
       </defs>
       <use xlink:href="#TimesNewRomanPSMT-4c"/>
       <use xlink:href="#TimesNewRomanPSMT-49" transform="translate(61.083984 0)"/>
       <use xlink:href="#TimesNewRomanPSMT-4d" transform="translate(94.384766 0)"/>
       <use xlink:href="#TimesNewRomanPSMT-45" transform="translate(183.300781 0)"/>
      </g>
     </g>
    </g>
   </g>
   <g id="matplotlib.axis_2">
    <g id="ytick_1">
     <g id="line2d_5">
      <path d="M 42.119375 325.73375 
L 559.475625 325.73375 
" clip-path="url(#pe613850600)" style="fill: none; stroke: #cccccc; stroke-opacity: 0.4; stroke-width: 0.6; stroke-linecap: square"/>
     </g>
     <g id="line2d_6">
      <defs>
       <path id="m19e7effece" d="M 0 0 
L -3.5 0 
" style="stroke: #000000; stroke-width: 0.8"/>
      </defs>
      <g>
       <use xlink:href="#m19e7effece" x="42.119375" y="325.73375" style="stroke: #000000; stroke-width: 0.8"/>
      </g>
     </g>
     <g id="text_5">
      <!-- 0.0 -->
      <g transform="translate(22.619375 329.205625) scale(0.1 -0.1)">
       <defs>
        <path id="TimesNewRomanPSMT-30" d="M 231 2094 
Q 231 2819 450 3342 
Q 669 3866 1031 4122 
Q 1313 4325 1613 4325 
Q 2100 4325 2488 3828 
Q 2972 3213 2972 2159 
Q 2972 1422 2759 906 
Q 2547 391 2217 158 
Q 1888 -75 1581 -75 
Q 975 -75 572 641 
Q 231 1244 231 2094 
z
M 844 2016 
Q 844 1141 1059 588 
Q 1238 122 1591 122 
Q 1759 122 1940 273 
Q 2122 425 2216 781 
Q 2359 1319 2359 2297 
Q 2359 3022 2209 3506 
Q 2097 3866 1919 4016 
Q 1791 4119 1609 4119 
Q 1397 4119 1231 3928 
Q 1006 3669 925 3112 
Q 844 2556 844 2016 
z
" transform="scale(0.015625)"/>
        <path id="TimesNewRomanPSMT-2e" d="M 800 606 
Q 947 606 1047 504 
Q 1147 403 1147 259 
Q 1147 116 1045 14 
Q 944 -88 800 -88 
Q 656 -88 554 14 
Q 453 116 453 259 
Q 453 406 554 506 
Q 656 606 800 606 
z
" transform="scale(0.015625)"/>
       </defs>
       <use xlink:href="#TimesNewRomanPSMT-30"/>
       <use xlink:href="#TimesNewRomanPSMT-2e" transform="translate(50 0)"/>
       <use xlink:href="#TimesNewRomanPSMT-30" transform="translate(75 0)"/>
      </g>
     </g>
    </g>
    <g id="ytick_2">
     <g id="line2d_7">
      <path d="M 42.119375 279.511298 
L 559.475625 279.511298 
" clip-path="url(#pe613850600)" style="fill: none; stroke: #cccccc; stroke-opacity: 0.4; stroke-width: 0.6; stroke-linecap: square"/>
     </g>
     <g id="line2d_8">
      <g>
       <use xlink:href="#m19e7effece" x="42.119375" y="279.511298" style="stroke: #000000; stroke-width: 0.8"/>
      </g>
     </g>
     <g id="text_6">
      <!-- 0.1 -->
      <g transform="translate(22.619375 282.983173) scale(0.1 -0.1)">
       <defs>
        <path id="TimesNewRomanPSMT-31" d="M 750 3822 
L 1781 4325 
L 1884 4325 
L 1884 747 
Q 1884 391 1914 303 
Q 1944 216 2037 169 
Q 2131 122 2419 116 
L 2419 0 
L 825 0 
L 825 116 
Q 1125 122 1212 167 
Q 1300 213 1334 289 
Q 1369 366 1369 747 
L 1369 3034 
Q 1369 3497 1338 3628 
Q 1316 3728 1258 3775 
Q 1200 3822 1119 3822 
Q 1003 3822 797 3725 
L 750 3822 
z
" transform="scale(0.015625)"/>
       </defs>
       <use xlink:href="#TimesNewRomanPSMT-30"/>
       <use xlink:href="#TimesNewRomanPSMT-2e" transform="translate(50 0)"/>
       <use xlink:href="#TimesNewRomanPSMT-31" transform="translate(75 0)"/>
      </g>
     </g>
    </g>
    <g id="ytick_3">
     <g id="line2d_9">
      <path d="M 42.119375 233.288846 
L 559.475625 233.288846 
" clip-path="url(#pe613850600)" style="fill: none; stroke: #cccccc; stroke-opacity: 0.4; stroke-width: 0.6; stroke-linecap: square"/>
     </g>
     <g id="line2d_10">
      <g>
       <use xlink:href="#m19e7effece" x="42.119375" y="233.288846" style="stroke: #000000; stroke-width: 0.8"/>
      </g>
     </g>
     <g id="text_7">
      <!-- 0.2 -->
      <g transform="translate(22.619375 236.760721) scale(0.1 -0.1)">
       <defs>
        <path id="TimesNewRomanPSMT-32" d="M 2934 816 
L 2638 0 
L 138 0 
L 138 116 
Q 1241 1122 1691 1759 
Q 2141 2397 2141 2925 
Q 2141 3328 1894 3587 
Q 1647 3847 1303 3847 
Q 991 3847 742 3664 
Q 494 3481 375 3128 
L 259 3128 
Q 338 3706 661 4015 
Q 984 4325 1469 4325 
Q 1984 4325 2329 3994 
Q 2675 3663 2675 3213 
Q 2675 2891 2525 2569 
Q 2294 2063 1775 1497 
Q 997 647 803 472 
L 1909 472 
Q 2247 472 2383 497 
Q 2519 522 2628 598 
Q 2738 675 2819 816 
L 2934 816 
z
" transform="scale(0.015625)"/>
       </defs>
       <use xlink:href="#TimesNewRomanPSMT-30"/>
       <use xlink:href="#TimesNewRomanPSMT-2e" transform="translate(50 0)"/>
       <use xlink:href="#TimesNewRomanPSMT-32" transform="translate(75 0)"/>
      </g>
     </g>
    </g>
    <g id="ytick_4">
     <g id="line2d_11">
      <path d="M 42.119375 187.066394 
L 559.475625 187.066394 
" clip-path="url(#pe613850600)" style="fill: none; stroke: #cccccc; stroke-opacity: 0.4; stroke-width: 0.6; stroke-linecap: square"/>
     </g>
     <g id="line2d_12">
      <g>
       <use xlink:href="#m19e7effece" x="42.119375" y="187.066394" style="stroke: #000000; stroke-width: 0.8"/>
      </g>
     </g>
     <g id="text_8">
      <!-- 0.3 -->
      <g transform="translate(22.619375 190.538269) scale(0.1 -0.1)">
       <defs>
        <path id="TimesNewRomanPSMT-33" d="M 325 3431 
Q 506 3859 782 4092 
Q 1059 4325 1472 4325 
Q 1981 4325 2253 3994 
Q 2459 3747 2459 3466 
Q 2459 3003 1878 2509 
Q 2269 2356 2469 2072 
Q 2669 1788 2669 1403 
Q 2669 853 2319 450 
Q 1863 -75 997 -75 
Q 569 -75 414 31 
Q 259 138 259 259 
Q 259 350 332 419 
Q 406 488 509 488 
Q 588 488 669 463 
Q 722 447 909 348 
Q 1097 250 1169 231 
Q 1284 197 1416 197 
Q 1734 197 1970 444 
Q 2206 691 2206 1028 
Q 2206 1275 2097 1509 
Q 2016 1684 1919 1775 
Q 1784 1900 1550 2001 
Q 1316 2103 1072 2103 
L 972 2103 
L 972 2197 
Q 1219 2228 1467 2375 
Q 1716 2522 1828 2728 
Q 1941 2934 1941 3181 
Q 1941 3503 1739 3701 
Q 1538 3900 1238 3900 
Q 753 3900 428 3381 
L 325 3431 
z
" transform="scale(0.015625)"/>
       </defs>
       <use xlink:href="#TimesNewRomanPSMT-30"/>
       <use xlink:href="#TimesNewRomanPSMT-2e" transform="translate(50 0)"/>
       <use xlink:href="#TimesNewRomanPSMT-33" transform="translate(75 0)"/>
      </g>
     </g>
    </g>
    <g id="ytick_5">
     <g id="line2d_13">
      <path d="M 42.119375 140.843943 
L 559.475625 140.843943 
" clip-path="url(#pe613850600)" style="fill: none; stroke: #cccccc; stroke-opacity: 0.4; stroke-width: 0.6; stroke-linecap: square"/>
     </g>
     <g id="line2d_14">
      <g>
       <use xlink:href="#m19e7effece" x="42.119375" y="140.843943" style="stroke: #000000; stroke-width: 0.8"/>
      </g>
     </g>
     <g id="text_9">
      <!-- 0.4 -->
      <g transform="translate(22.619375 144.315818) scale(0.1 -0.1)">
       <defs>
        <path id="TimesNewRomanPSMT-34" d="M 2978 1563 
L 2978 1119 
L 2409 1119 
L 2409 0 
L 1894 0 
L 1894 1119 
L 100 1119 
L 100 1519 
L 2066 4325 
L 2409 4325 
L 2409 1563 
L 2978 1563 
z
M 1894 1563 
L 1894 3666 
L 406 1563 
L 1894 1563 
z
" transform="scale(0.015625)"/>
       </defs>
       <use xlink:href="#TimesNewRomanPSMT-30"/>
       <use xlink:href="#TimesNewRomanPSMT-2e" transform="translate(50 0)"/>
       <use xlink:href="#TimesNewRomanPSMT-34" transform="translate(75 0)"/>
      </g>
     </g>
    </g>
    <g id="ytick_6">
     <g id="line2d_15">
      <path d="M 42.119375 94.621491 
L 559.475625 94.621491 
" clip-path="url(#pe613850600)" style="fill: none; stroke: #cccccc; stroke-opacity: 0.4; stroke-width: 0.6; stroke-linecap: square"/>
     </g>
     <g id="line2d_16">
      <g>
       <use xlink:href="#m19e7effece" x="42.119375" y="94.621491" style="stroke: #000000; stroke-width: 0.8"/>
      </g>
     </g>
     <g id="text_10">
      <!-- 0.5 -->
      <g transform="translate(22.619375 98.093366) scale(0.1 -0.1)">
       <defs>
        <path id="TimesNewRomanPSMT-35" d="M 2778 4238 
L 2534 3706 
L 1259 3706 
L 981 3138 
Q 1809 3016 2294 2522 
Q 2709 2097 2709 1522 
Q 2709 1188 2573 903 
Q 2438 619 2231 419 
Q 2025 219 1772 97 
Q 1413 -75 1034 -75 
Q 653 -75 479 54 
Q 306 184 306 341 
Q 306 428 378 495 
Q 450 563 559 563 
Q 641 563 702 538 
Q 763 513 909 409 
Q 1144 247 1384 247 
Q 1750 247 2026 523 
Q 2303 800 2303 1197 
Q 2303 1581 2056 1914 
Q 1809 2247 1375 2428 
Q 1034 2569 447 2591 
L 1259 4238 
L 2778 4238 
z
" transform="scale(0.015625)"/>
       </defs>
       <use xlink:href="#TimesNewRomanPSMT-30"/>
       <use xlink:href="#TimesNewRomanPSMT-2e" transform="translate(50 0)"/>
       <use xlink:href="#TimesNewRomanPSMT-35" transform="translate(75 0)"/>
      </g>
     </g>
    </g>
    <g id="ytick_7">
     <g id="line2d_17">
      <path d="M 42.119375 48.399039 
L 559.475625 48.399039 
" clip-path="url(#pe613850600)" style="fill: none; stroke: #cccccc; stroke-opacity: 0.4; stroke-width: 0.6; stroke-linecap: square"/>
     </g>
     <g id="line2d_18">
      <g>
       <use xlink:href="#m19e7effece" x="42.119375" y="48.399039" style="stroke: #000000; stroke-width: 0.8"/>
      </g>
     </g>
     <g id="text_11">
      <!-- 0.6 -->
      <g transform="translate(22.619375 51.870914) scale(0.1 -0.1)">
       <defs>
        <path id="TimesNewRomanPSMT-36" d="M 2869 4325 
L 2869 4209 
Q 2456 4169 2195 4045 
Q 1934 3922 1679 3669 
Q 1425 3416 1258 3105 
Q 1091 2794 978 2366 
Q 1428 2675 1881 2675 
Q 2316 2675 2634 2325 
Q 2953 1975 2953 1425 
Q 2953 894 2631 456 
Q 2244 -75 1606 -75 
Q 1172 -75 869 213 
Q 275 772 275 1663 
Q 275 2231 503 2743 
Q 731 3256 1154 3653 
Q 1578 4050 1965 4187 
Q 2353 4325 2688 4325 
L 2869 4325 
z
M 925 2138 
Q 869 1716 869 1456 
Q 869 1156 980 804 
Q 1091 453 1309 247 
Q 1469 100 1697 100 
Q 1969 100 2183 356 
Q 2397 613 2397 1088 
Q 2397 1622 2184 2012 
Q 1972 2403 1581 2403 
Q 1463 2403 1327 2353 
Q 1191 2303 925 2138 
z
" transform="scale(0.015625)"/>
       </defs>
       <use xlink:href="#TimesNewRomanPSMT-30"/>
       <use xlink:href="#TimesNewRomanPSMT-2e" transform="translate(50 0)"/>
       <use xlink:href="#TimesNewRomanPSMT-36" transform="translate(75 0)"/>
      </g>
     </g>
    </g>
    <g id="text_12">
     <!-- 忠实度得分（AUC-Drop） -->
     <g transform="translate(16.266406 236.985547) rotate(-90) scale(0.11 -0.11)">
      <defs>
       <path id="SimSun-5fe0" d="M 1900 350 
Q 1900 1300 1875 1800 
L 2450 1525 
L 2250 1350 
L 2250 400 
Q 2200 25 2575 75 
L 4275 75 
Q 4550 25 4612 387 
Q 4675 750 4700 1100 
L 4800 1100 
Q 4825 800 4850 525 
Q 4875 250 5150 125 
Q 4950 -200 4525 -225 
L 2350 -225 
Q 1850 -225 1900 350 
z
M 2650 2000 
L 2675 2075 
Q 3325 1825 3537 1662 
Q 3750 1500 3725 1300 
Q 3700 1100 3625 1012 
Q 3550 925 3500 925 
Q 3400 925 3300 1175 
Q 3150 1525 2650 2000 
z
M 4900 1525 
L 4950 1600 
Q 5550 1275 5762 1062 
Q 5975 850 5937 650 
Q 5900 450 5825 362 
Q 5750 275 5700 275 
Q 5625 275 5550 450 
Q 5450 725 5312 950 
Q 5175 1175 4900 1525 
z
M 1200 1600 
L 1300 1600 
Q 1250 900 1137 575 
Q 1025 250 775 237 
Q 525 225 450 325 
Q 375 425 675 700 
Q 950 950 1200 1600 
z
M 3000 1975 
Q 3025 2275 3025 2725 
L 1550 2725 
L 1550 2425 
L 1175 2275 
Q 1200 2775 1200 3462 
Q 1200 4150 1175 4475 
L 1550 4250 
L 3025 4250 
Q 3025 4750 3000 5200 
L 3575 4950 
L 3375 4775 
L 3375 4250 
L 4825 4250 
L 5025 4525 
L 5425 4200 
L 5225 4025 
Q 5225 2875 5250 2500 
L 4875 2350 
L 4875 2725 
L 3375 2725 
Q 3375 2350 3400 2125 
L 3000 1975 
z
M 1550 4100 
L 1550 2875 
L 3025 2875 
L 3025 4100 
L 1550 4100 
z
M 3375 4100 
L 3375 2875 
L 4875 2875 
L 4875 4100 
L 3375 4100 
z
" transform="scale(0.015625)"/>
       <path id="SimSun-5b9e" d="M 1950 3625 
Q 2575 3400 2700 3250 
Q 2825 3100 2825 2975 
Q 2825 2850 2750 2700 
Q 2675 2550 2625 2550 
Q 2550 2550 2450 2800 
Q 2275 3175 1900 3550 
L 1950 3625 
z
M 3575 1325 
Q 3500 1100 3425 925 
Q 4650 550 5087 325 
Q 5525 100 5512 -225 
Q 5500 -550 5400 -550 
Q 5300 -550 5075 -300 
Q 4625 175 3375 800 
Q 3025 175 2300 -150 
Q 1575 -475 425 -625 
L 425 -525 
Q 1475 -325 2200 100 
Q 2925 525 3200 1325 
L 1225 1325 
Q 900 1325 625 1250 
L 400 1475 
L 3225 1475 
Q 3325 1950 3375 2575 
Q 3425 3200 3425 3700 
L 4050 3400 
L 3850 3225 
Q 3750 2300 3625 1475 
L 5175 1475 
L 5550 1850 
L 6075 1325 
L 3575 1325 
z
M 1275 2700 
Q 1975 2425 2100 2262 
Q 2225 2100 2225 1975 
Q 2225 1850 2150 1700 
Q 2075 1550 2025 1550 
Q 1950 1550 1850 1800 
Q 1675 2175 1225 2625 
L 1275 2700 
z
M 2750 5225 
L 2825 5275 
Q 3225 5100 3425 4925 
Q 3625 4750 3625 4600 
Q 3625 4450 3512 4300 
Q 3400 4150 3325 4150 
Q 3250 4150 3200 4400 
Q 3100 4775 2750 5225 
z
M 4975 3225 
L 5350 3925 
L 1175 3925 
Q 1225 3525 1125 3300 
Q 1025 3075 787 3100 
Q 550 3125 550 3200 
Q 550 3300 700 3475 
Q 975 3825 1050 4375 
L 1150 4375 
L 1175 4075 
L 5300 4075 
L 5575 4350 
L 6050 3800 
Q 5625 3825 5050 3175 
L 4975 3225 
z
" transform="scale(0.015625)"/>
       <path id="SimSun-5f97" d="M 3725 25 
Q 4475 -125 4575 -75 
Q 4675 -25 4675 150 
L 4675 1400 
L 2825 1400 
Q 2500 1400 2225 1325 
L 2000 1550 
L 4675 1550 
L 4675 2225 
L 3125 2225 
Q 2800 2225 2525 2150 
L 2300 2375 
L 5200 2375 
L 5475 2650 
L 5900 2225 
L 5025 2225 
L 5025 1550 
L 5400 1550 
L 5700 1850 
L 6150 1400 
L 5025 1400 
L 5025 25 
Q 5025 -425 4500 -625 
Q 4475 -375 3725 -75 
L 3725 25 
z
M 2850 1300 
Q 3425 950 3550 762 
Q 3675 575 3625 400 
Q 3575 225 3450 187 
Q 3325 150 3250 475 
Q 3150 800 2800 1225 
L 2850 1300 
z
M 1300 -650 
Q 1325 -25 1325 500 
L 1325 2275 
Q 900 1850 325 1475 
L 275 1575 
Q 675 1925 1112 2450 
Q 1550 2975 1775 3350 
Q 2000 3725 2100 3975 
L 2575 3600 
Q 2350 3425 2200 3250 
Q 2050 3075 1675 2625 
L 1675 -450 
L 1300 -650 
z
M 1875 5225 
L 2325 4850 
Q 2075 4700 1850 4475 
Q 1600 4250 1200 3900 
Q 800 3550 400 3325 
L 350 3400 
Q 925 3900 1287 4350 
Q 1650 4800 1875 5225 
z
M 2775 2600 
Q 2800 3175 2800 3825 
Q 2800 4475 2775 4975 
L 3125 4800 
L 4950 4800 
L 5175 5025 
L 5525 4675 
L 5325 4525 
Q 5325 3275 5350 2800 
L 4975 2625 
L 4975 2900 
L 3125 2900 
L 3125 2750 
L 2775 2600 
z
M 3125 4650 
L 3125 3950 
L 4975 3950 
L 4975 4650 
L 3125 4650 
z
M 3125 3800 
L 3125 3050 
L 4975 3050 
L 4975 3800 
L 3125 3800 
z
" transform="scale(0.015625)"/>
       <path id="SimSun-5206" d="M 2350 5050 
L 2850 4675 
L 2625 4550 
Q 2200 3750 1687 3125 
Q 1175 2500 375 2025 
L 325 2100 
Q 975 2625 1475 3337 
Q 1975 4050 2350 5050 
z
M 4100 4975 
L 3900 4850 
Q 4175 3850 4800 3300 
Q 5425 2750 6125 2625 
L 6125 2550 
Q 5750 2500 5600 2225 
Q 4775 2675 4287 3425 
Q 3800 4175 3625 5175 
L 4100 4975 
z
M 1375 2625 
L 4225 2625 
L 4475 2875 
L 4825 2525 
L 4625 2375 
Q 4575 400 4375 -12 
Q 4175 -425 3675 -600 
Q 3600 -200 2975 -25 
L 2975 75 
Q 3600 -25 3787 -12 
Q 3975 0 4075 275 
Q 4175 550 4275 2475 
L 2975 2475 
Q 2825 1400 2375 662 
Q 1925 -75 650 -625 
L 600 -525 
Q 1725 50 2112 837 
Q 2500 1625 2575 2475 
L 1800 2475 
L 1575 2425 
L 1375 2625 
z
" transform="scale(0.015625)"/>
       <path id="SimSun-ff08" d="M 5087 200 
Q 5475 -100 5425 -150 
Q 5375 -200 4950 87 
Q 4525 375 4137 850 
Q 3750 1325 3687 2100 
Q 3625 2875 4000 3487 
Q 4375 4100 4887 4462 
Q 5400 4825 5412 4762 
Q 5425 4700 5075 4425 
Q 4725 4125 4387 3600 
Q 4050 3075 4050 2250 
Q 4050 1425 4375 962 
Q 4700 500 5087 200 
z
" transform="scale(0.015625)"/>
       <path id="TimesNewRomanPSMT-55" d="M 3053 4122 
L 3053 4238 
L 4553 4238 
L 4553 4122 
L 4394 4122 
Q 4144 4122 4009 3913 
Q 3944 3816 3944 3463 
L 3944 1744 
Q 3944 1106 3817 754 
Q 3691 403 3320 151 
Q 2950 -100 2313 -100 
Q 1619 -100 1259 140 
Q 900 381 750 788 
Q 650 1066 650 1831 
L 650 3488 
Q 650 3878 542 4000 
Q 434 4122 194 4122 
L 34 4122 
L 34 4238 
L 1866 4238 
L 1866 4122 
L 1703 4122 
Q 1441 4122 1328 3956 
Q 1250 3844 1250 3488 
L 1250 1641 
Q 1250 1394 1295 1075 
Q 1341 756 1459 578 
Q 1578 400 1801 284 
Q 2025 169 2350 169 
Q 2766 169 3094 350 
Q 3422 531 3542 814 
Q 3663 1097 3663 1772 
L 3663 3488 
Q 3663 3884 3575 3984 
Q 3453 4122 3213 4122 
L 3053 4122 
z
" transform="scale(0.015625)"/>
       <path id="TimesNewRomanPSMT-43" d="M 3853 4334 
L 3950 2894 
L 3853 2894 
Q 3659 3541 3300 3825 
Q 2941 4109 2438 4109 
Q 2016 4109 1675 3895 
Q 1334 3681 1139 3212 
Q 944 2744 944 2047 
Q 944 1472 1128 1050 
Q 1313 628 1683 403 
Q 2053 178 2528 178 
Q 2941 178 3256 354 
Q 3572 531 3950 1056 
L 4047 994 
Q 3728 428 3303 165 
Q 2878 -97 2294 -97 
Q 1241 -97 663 684 
Q 231 1266 231 2053 
Q 231 2688 515 3219 
Q 800 3750 1298 4042 
Q 1797 4334 2388 4334 
Q 2847 4334 3294 4109 
Q 3425 4041 3481 4041 
Q 3566 4041 3628 4100 
Q 3709 4184 3744 4334 
L 3853 4334 
z
" transform="scale(0.015625)"/>
       <path id="TimesNewRomanPSMT-2d" d="M 259 1672 
L 1875 1672 
L 1875 1200 
L 259 1200 
L 259 1672 
z
" transform="scale(0.015625)"/>
       <path id="TimesNewRomanPSMT-44" d="M 109 0 
L 109 116 
L 269 116 
Q 538 116 650 288 
Q 719 391 719 750 
L 719 3488 
Q 719 3884 631 3984 
Q 509 4122 269 4122 
L 109 4122 
L 109 4238 
L 1834 4238 
Q 2784 4238 3279 4022 
Q 3775 3806 4076 3303 
Q 4378 2800 4378 2141 
Q 4378 1256 3841 663 
Q 3238 0 2003 0 
L 109 0 
z
M 1319 306 
Q 1716 219 1984 219 
Q 2709 219 3187 728 
Q 3666 1238 3666 2109 
Q 3666 2988 3187 3494 
Q 2709 4000 1959 4000 
Q 1678 4000 1319 3909 
L 1319 306 
z
" transform="scale(0.015625)"/>
       <path id="TimesNewRomanPSMT-72" d="M 1038 2947 
L 1038 2303 
Q 1397 2947 1775 2947 
Q 1947 2947 2059 2842 
Q 2172 2738 2172 2600 
Q 2172 2478 2090 2393 
Q 2009 2309 1897 2309 
Q 1788 2309 1652 2417 
Q 1516 2525 1450 2525 
Q 1394 2525 1328 2463 
Q 1188 2334 1038 2041 
L 1038 669 
Q 1038 431 1097 309 
Q 1138 225 1241 169 
Q 1344 113 1538 113 
L 1538 0 
L 72 0 
L 72 113 
Q 291 113 397 181 
Q 475 231 506 341 
Q 522 394 522 644 
L 522 1753 
Q 522 2253 501 2348 
Q 481 2444 426 2487 
Q 372 2531 291 2531 
Q 194 2531 72 2484 
L 41 2597 
L 906 2947 
L 1038 2947 
z
" transform="scale(0.015625)"/>
       <path id="TimesNewRomanPSMT-6f" d="M 1600 2947 
Q 2250 2947 2644 2453 
Q 2978 2031 2978 1484 
Q 2978 1100 2793 706 
Q 2609 313 2286 112 
Q 1963 -88 1566 -88 
Q 919 -88 538 428 
Q 216 863 216 1403 
Q 216 1797 411 2186 
Q 606 2575 925 2761 
Q 1244 2947 1600 2947 
z
M 1503 2744 
Q 1338 2744 1170 2645 
Q 1003 2547 900 2300 
Q 797 2053 797 1666 
Q 797 1041 1045 587 
Q 1294 134 1700 134 
Q 2003 134 2200 384 
Q 2397 634 2397 1244 
Q 2397 2006 2069 2444 
Q 1847 2744 1503 2744 
z
" transform="scale(0.015625)"/>
       <path id="TimesNewRomanPSMT-70" d="M -6 2578 
L 875 2934 
L 994 2934 
L 994 2266 
Q 1216 2644 1439 2795 
Q 1663 2947 1909 2947 
Q 2341 2947 2628 2609 
Q 2981 2197 2981 1534 
Q 2981 794 2556 309 
Q 2206 -88 1675 -88 
Q 1444 -88 1275 -22 
Q 1150 25 994 166 
L 994 -706 
Q 994 -1000 1030 -1079 
Q 1066 -1159 1155 -1206 
Q 1244 -1253 1478 -1253 
L 1478 -1369 
L -22 -1369 
L -22 -1253 
L 56 -1253 
Q 228 -1256 350 -1188 
Q 409 -1153 442 -1076 
Q 475 -1000 475 -688 
L 475 2019 
Q 475 2297 450 2372 
Q 425 2447 370 2484 
Q 316 2522 222 2522 
Q 147 2522 31 2478 
L -6 2578 
z
M 994 2081 
L 994 1013 
Q 994 666 1022 556 
Q 1066 375 1236 237 
Q 1406 100 1666 100 
Q 1978 100 2172 344 
Q 2425 663 2425 1241 
Q 2425 1897 2138 2250 
Q 1938 2494 1663 2494 
Q 1513 2494 1366 2419 
Q 1253 2363 994 2081 
z
" transform="scale(0.015625)"/>
       <path id="SimSun-ff09" d="M 2337 875 
Q 1925 350 1437 62 
Q 950 -225 937 -162 
Q 925 -100 1300 175 
Q 1650 425 2037 1012 
Q 2425 1600 2375 2375 
Q 2325 3150 1987 3662 
Q 1650 4175 1300 4475 
Q 925 4775 937 4837 
Q 950 4900 1412 4587 
Q 1875 4275 2325 3662 
Q 2775 3050 2762 2225 
Q 2750 1400 2337 875 
z
" transform="scale(0.015625)"/>
      </defs>
      <use xlink:href="#SimSun-5fe0"/>
      <use xlink:href="#SimSun-5b9e" transform="translate(100 0)"/>
      <use xlink:href="#SimSun-5ea6" transform="translate(200 0)"/>
      <use xlink:href="#SimSun-5f97" transform="translate(300 0)"/>
      <use xlink:href="#SimSun-5206" transform="translate(400 0)"/>
      <use xlink:href="#SimSun-ff08" transform="translate(500 0)"/>
      <use xlink:href="#TimesNewRomanPSMT-41" transform="translate(600 0)"/>
      <use xlink:href="#TimesNewRomanPSMT-55" transform="translate(672.216797 0)"/>
      <use xlink:href="#TimesNewRomanPSMT-43" transform="translate(744.433594 0)"/>
      <use xlink:href="#TimesNewRomanPSMT-2d" transform="translate(811.132812 0)"/>
      <use xlink:href="#TimesNewRomanPSMT-44" transform="translate(844.433594 0)"/>
      <use xlink:href="#TimesNewRomanPSMT-72" transform="translate(916.650391 0)"/>
      <use xlink:href="#TimesNewRomanPSMT-6f" transform="translate(949.951172 0)"/>
      <use xlink:href="#TimesNewRomanPSMT-70" transform="translate(999.951172 0)"/>
      <use xlink:href="#SimSun-ff09" transform="translate(1049.951172 0)"/>
     </g>
    </g>
   </g>
   <g id="patch_3">
    <path d="M 65.635568 325.73375 
L 110.125663 325.73375 
L 110.125663 188.528954 
L 65.635568 188.528954 
z
" clip-path="url(#pe613850600)" style="fill: #4878cf; stroke: #ffffff; stroke-linejoin: miter"/>
   </g>
   <g id="patch_4">
    <path d="M 192.750126 325.73375 
L 237.240221 325.73375 
L 237.240221 236.427358 
L 192.750126 236.427358 
z
" clip-path="url(#pe613850600)" style="fill: #4878cf; stroke: #ffffff; stroke-linejoin: miter"/>
   </g>
   <g id="patch_5">
    <path d="M 319.864684 325.73375 
L 364.354779 325.73375 
L 364.354779 206.948963 
L 319.864684 206.948963 
z
" clip-path="url(#pe613850600)" style="fill: #4878cf; stroke: #ffffff; stroke-linejoin: miter"/>
   </g>
   <g id="patch_6">
    <path d="M 446.979241 325.73375 
L 491.469337 325.73375 
L 491.469337 213.940503 
L 446.979241 213.940503 
z
" clip-path="url(#pe613850600)" style="fill: #4878cf; stroke: #ffffff; stroke-linejoin: miter"/>
   </g>
   <g id="patch_7">
    <path d="M 110.125663 325.73375 
L 154.615759 325.73375 
L 154.615759 61.393533 
L 110.125663 61.393533 
z
" clip-path="url(#pe613850600)" style="fill: #e07b39; stroke: #ffffff; stroke-linejoin: miter"/>
   </g>
   <g id="patch_8">
    <path d="M 237.240221 325.73375 
L 281.730316 325.73375 
L 281.730316 114.648543 
L 237.240221 114.648543 
z
" clip-path="url(#pe613850600)" style="fill: #e07b39; stroke: #ffffff; stroke-linejoin: miter"/>
   </g>
   <g id="patch_9">
    <path d="M 364.354779 325.73375 
L 408.844874 325.73375 
L 408.844874 184.461509 
L 364.354779 184.461509 
z
" clip-path="url(#pe613850600)" style="fill: #e07b39; stroke: #ffffff; stroke-linejoin: miter"/>
   </g>
   <g id="patch_10">
    <path d="M 491.469337 325.73375 
L 535.959432 325.73375 
L 535.959432 182.704553 
L 491.469337 182.704553 
z
" clip-path="url(#pe613850600)" style="fill: #e07b39; stroke: #ffffff; stroke-linejoin: miter"/>
   </g>
   <g id="patch_11">
    <path d="M 42.119375 325.73375 
L 42.119375 21.7425 
" style="fill: none; stroke: #000000; stroke-width: 0.8; stroke-linejoin: miter; stroke-linecap: square"/>
   </g>
   <g id="patch_12">
    <path d="M 42.119375 325.73375 
L 559.475625 325.73375 
" style="fill: none; stroke: #000000; stroke-width: 0.8; stroke-linejoin: miter; stroke-linecap: square"/>
   </g>
   <g id="text_13">
    <!-- 0.297 -->
    <g transform="translate(77.755616 182.906002) scale(0.09 -0.09)">
     <defs>
      <path id="TimesNewRomanPSMT-39" d="M 338 -88 
L 338 28 
Q 744 34 1094 217 
Q 1444 400 1770 856 
Q 2097 1313 2225 1859 
Q 1734 1544 1338 1544 
Q 891 1544 572 1889 
Q 253 2234 253 2806 
Q 253 3363 572 3797 
Q 956 4325 1575 4325 
Q 2097 4325 2469 3894 
Q 2925 3359 2925 2575 
Q 2925 1869 2578 1258 
Q 2231 647 1613 244 
Q 1109 -88 516 -88 
L 338 -88 
z
M 2275 2091 
Q 2331 2497 2331 2741 
Q 2331 3044 2228 3395 
Q 2125 3747 1936 3934 
Q 1747 4122 1506 4122 
Q 1228 4122 1018 3872 
Q 809 3622 809 3128 
Q 809 2469 1088 2097 
Q 1291 1828 1588 1828 
Q 1731 1828 1928 1897 
Q 2125 1966 2275 2091 
z
" transform="scale(0.015625)"/>
      <path id="TimesNewRomanPSMT-37" d="M 644 4238 
L 2916 4238 
L 2916 4119 
L 1503 -88 
L 1153 -88 
L 2419 3728 
L 1253 3728 
Q 900 3728 750 3644 
Q 488 3500 328 3200 
L 238 3234 
L 644 4238 
z
" transform="scale(0.015625)"/>
     </defs>
     <use xlink:href="#TimesNewRomanPSMT-30"/>
     <use xlink:href="#TimesNewRomanPSMT-2e" transform="translate(50 0)"/>
     <use xlink:href="#TimesNewRomanPSMT-32" transform="translate(75 0)"/>
     <use xlink:href="#TimesNewRomanPSMT-39" transform="translate(125 0)"/>
     <use xlink:href="#TimesNewRomanPSMT-37" transform="translate(175 0)"/>
    </g>
   </g>
   <g id="text_14">
    <!-- 0.193 -->
    <g transform="translate(204.870174 230.804405) scale(0.09 -0.09)">
     <use xlink:href="#TimesNewRomanPSMT-30"/>
     <use xlink:href="#TimesNewRomanPSMT-2e" transform="translate(50 0)"/>
     <use xlink:href="#TimesNewRomanPSMT-31" transform="translate(75 0)"/>
     <use xlink:href="#TimesNewRomanPSMT-39" transform="translate(125 0)"/>
     <use xlink:href="#TimesNewRomanPSMT-33" transform="translate(175 0)"/>
    </g>
   </g>
   <g id="text_15">
    <!-- 0.257 -->
    <g transform="translate(331.984731 201.32601) scale(0.09 -0.09)">
     <use xlink:href="#TimesNewRomanPSMT-30"/>
     <use xlink:href="#TimesNewRomanPSMT-2e" transform="translate(50 0)"/>
     <use xlink:href="#TimesNewRomanPSMT-32" transform="translate(75 0)"/>
     <use xlink:href="#TimesNewRomanPSMT-35" transform="translate(125 0)"/>
     <use xlink:href="#TimesNewRomanPSMT-37" transform="translate(175 0)"/>
    </g>
   </g>
   <g id="text_16">
    <!-- 0.242 -->
    <g transform="translate(459.099289 208.31755) scale(0.09 -0.09)">
     <use xlink:href="#TimesNewRomanPSMT-30"/>
     <use xlink:href="#TimesNewRomanPSMT-2e" transform="translate(50 0)"/>
     <use xlink:href="#TimesNewRomanPSMT-32" transform="translate(75 0)"/>
     <use xlink:href="#TimesNewRomanPSMT-34" transform="translate(125 0)"/>
     <use xlink:href="#TimesNewRomanPSMT-32" transform="translate(175 0)"/>
    </g>
   </g>
   <g id="text_17">
    <!-- 0.572 -->
    <g transform="translate(122.245711 55.77058) scale(0.09 -0.09)">
     <use xlink:href="#TimesNewRomanPSMT-30"/>
     <use xlink:href="#TimesNewRomanPSMT-2e" transform="translate(50 0)"/>
     <use xlink:href="#TimesNewRomanPSMT-35" transform="translate(75 0)"/>
     <use xlink:href="#TimesNewRomanPSMT-37" transform="translate(125 0)"/>
     <use xlink:href="#TimesNewRomanPSMT-32" transform="translate(175 0)"/>
    </g>
   </g>
   <g id="text_18">
    <!-- 0.457 -->
    <g transform="translate(249.360269 109.025591) scale(0.09 -0.09)">
     <use xlink:href="#TimesNewRomanPSMT-30"/>
     <use xlink:href="#TimesNewRomanPSMT-2e" transform="translate(50 0)"/>
     <use xlink:href="#TimesNewRomanPSMT-34" transform="translate(75 0)"/>
     <use xlink:href="#TimesNewRomanPSMT-35" transform="translate(125 0)"/>
     <use xlink:href="#TimesNewRomanPSMT-37" transform="translate(175 0)"/>
    </g>
   </g>
   <g id="text_19">
    <!-- 0.306 -->
    <g transform="translate(376.474826 178.838557) scale(0.09 -0.09)">
     <use xlink:href="#TimesNewRomanPSMT-30"/>
     <use xlink:href="#TimesNewRomanPSMT-2e" transform="translate(50 0)"/>
     <use xlink:href="#TimesNewRomanPSMT-33" transform="translate(75 0)"/>
     <use xlink:href="#TimesNewRomanPSMT-30" transform="translate(125 0)"/>
     <use xlink:href="#TimesNewRomanPSMT-36" transform="translate(175 0)"/>
    </g>
   </g>
   <g id="text_20">
    <!-- 0.309 -->
    <g transform="translate(503.589384 177.081601) scale(0.09 -0.09)">
     <use xlink:href="#TimesNewRomanPSMT-30"/>
     <use xlink:href="#TimesNewRomanPSMT-2e" transform="translate(50 0)"/>
     <use xlink:href="#TimesNewRomanPSMT-33" transform="translate(75 0)"/>
     <use xlink:href="#TimesNewRomanPSMT-30" transform="translate(125 0)"/>
     <use xlink:href="#TimesNewRomanPSMT-39" transform="translate(175 0)"/>
    </g>
   </g>
   <g id="text_21">
    <!-- 各方法忠实度综合得分对比 -->
    <g transform="translate(228.7975 15.7425) scale(0.12 -0.12)">
     <defs>
      <path id="SimSun-5404" d="M 4750 4425 
L 4500 4250 
Q 3975 3375 3450 2800 
Q 3800 2550 4512 2287 
Q 5225 2025 6100 1925 
L 6100 1825 
Q 5650 1800 5550 1500 
Q 5175 1575 4450 1887 
Q 3725 2200 3200 2600 
Q 2550 2100 1875 1775 
L 2025 1675 
L 4175 1675 
L 4350 1875 
L 4750 1550 
L 4550 1400 
L 4550 350 
Q 4550 -25 4575 -425 
L 4200 -600 
L 4200 -100 
L 2025 -100 
L 2025 -475 
L 1650 -625 
Q 1675 -50 1675 325 
L 1675 1675 
Q 1225 1400 350 1125 
L 325 1225 
Q 1250 1625 1937 2062 
Q 2625 2500 2975 2825 
Q 2475 3400 2100 4125 
Q 1875 3825 1587 3575 
Q 1300 3325 900 3075 
L 850 3175 
Q 1400 3650 1762 4200 
Q 2125 4750 2325 5250 
L 2825 4900 
L 2600 4775 
L 2400 4525 
L 4150 4525 
L 4350 4775 
L 4750 4425 
z
M 2325 4375 
L 2200 4225 
Q 2625 3550 3200 3025 
Q 3700 3600 4125 4375 
L 2325 4375 
z
M 2025 1525 
L 2025 50 
L 4200 50 
L 4200 1525 
L 2025 1525 
z
" transform="scale(0.015625)"/>
      <path id="SimSun-65b9" d="M 275 3925 
L 5250 3925 
L 5625 4300 
L 6150 3775 
L 3075 3775 
Q 3050 3300 2950 2675 
L 4575 2675 
L 4825 2925 
L 5225 2550 
L 4975 2400 
Q 4725 475 4625 125 
Q 4525 -225 4312 -362 
Q 4100 -500 3725 -600 
Q 3625 -200 2900 100 
L 2925 200 
Q 3600 0 3812 -12 
Q 4025 -25 4137 75 
Q 4250 175 4350 712 
Q 4450 1250 4600 2525 
L 2925 2525 
Q 2500 350 475 -575 
L 425 -475 
Q 2675 800 2675 3775 
L 1100 3775 
Q 775 3775 500 3700 
L 275 3925 
z
M 2675 5150 
Q 3325 4900 3437 4725 
Q 3550 4550 3550 4450 
Q 3550 4350 3450 4212 
Q 3350 4075 3325 4075 
Q 3225 4075 3125 4350 
Q 2975 4725 2625 5075 
L 2675 5150 
z
" transform="scale(0.015625)"/>
      <path id="SimSun-6cd5" d="M 3800 3850 
Q 3800 4925 3775 5275 
L 4375 4975 
L 4125 4725 
L 4125 3850 
L 5100 3850 
L 5375 4125 
L 5775 3700 
L 4125 3700 
L 4125 2350 
L 5450 2350 
L 5750 2650 
L 6175 2200 
L 3825 2200 
L 4225 1925 
Q 4000 1825 3750 1450 
Q 3500 1075 2600 125 
L 5225 300 
Q 4900 750 4525 1175 
L 4575 1250 
Q 5025 925 5287 725 
Q 5550 525 5712 337 
Q 5875 150 5875 0 
Q 5875 -150 5775 -300 
Q 5675 -450 5650 -450 
Q 5575 -450 5525 -300 
Q 5425 -50 5300 175 
Q 3900 25 3175 -150 
Q 2450 -325 2350 -450 
L 2100 125 
Q 2425 125 2962 875 
Q 3500 1625 3700 2200 
L 2775 2200 
Q 2450 2200 2175 2125 
L 1950 2350 
L 3800 2350 
L 3800 3700 
L 3250 3700 
Q 2925 3700 2650 3625 
L 2425 3850 
L 3800 3850 
z
M 2375 4150 
Q 1400 1500 1312 1187 
Q 1225 875 1237 425 
Q 1250 -25 1275 -200 
Q 1275 -300 1150 -300 
Q 1050 -300 900 -250 
Q 750 -200 750 -25 
Q 750 100 825 350 
Q 900 600 900 750 
Q 900 925 787 1025 
Q 675 1125 300 1225 
L 300 1325 
Q 750 1275 862 1287 
Q 975 1300 1112 1512 
Q 1250 1725 2275 4175 
L 2375 4150 
z
M 325 3600 
Q 1200 3150 1200 2862 
Q 1200 2575 1062 2475 
Q 925 2375 825 2725 
Q 700 3050 275 3525 
L 325 3600 
z
M 900 5050 
Q 1600 4700 1662 4525 
Q 1725 4350 1725 4275 
Q 1725 4150 1637 4050 
Q 1550 3950 1500 3950 
Q 1425 3950 1350 4200 
Q 1225 4525 850 4975 
L 900 5050 
z
" transform="scale(0.015625)"/>
      <path id="SimSun-7efc" d="M 1450 5100 
L 1950 4775 
Q 1700 4650 1425 4175 
Q 1150 3700 750 3000 
L 1700 3050 
Q 1900 3375 2050 3925 
L 2500 3625 
Q 2300 3550 2000 3025 
Q 1675 2500 925 1500 
Q 1900 1625 2400 1725 
L 2425 1625 
Q 1000 1275 725 1000 
L 425 1500 
Q 625 1550 862 1800 
Q 1100 2050 1625 2925 
Q 775 2800 575 2575 
L 325 3025 
Q 550 3000 937 3825 
Q 1325 4650 1450 5100 
z
M 400 225 
Q 1150 375 2325 800 
L 2350 700 
Q 1775 450 1312 212 
Q 850 -25 675 -225 
L 400 225 
z
M 3850 5175 
L 3900 5225 
Q 4475 4900 4550 4712 
Q 4625 4525 4487 4387 
Q 4350 4250 4300 4250 
Q 4200 4250 4175 4450 
Q 4125 4775 3850 5175 
z
M 5225 3425 
L 5500 4025 
L 3125 4025 
Q 3175 3725 3112 3562 
Q 3050 3400 2937 3375 
Q 2825 3350 2775 3350 
Q 2675 3350 2600 3400 
Q 2525 3450 2725 3675 
Q 2900 3900 3000 4450 
L 3100 4450 
L 3125 4175 
L 5475 4175 
L 5675 4425 
L 6100 4000 
Q 5750 3950 5300 3375 
L 5225 3425 
z
M 2975 3100 
L 4775 3100 
L 5075 3400 
L 5475 2950 
L 3800 2950 
Q 3475 2950 3200 2875 
L 2975 3100 
z
M 2525 2150 
L 5350 2150 
L 5700 2450 
L 6125 2000 
L 4475 2000 
L 4475 75 
Q 4500 -475 3900 -625 
Q 3900 -275 3175 -100 
L 3175 0 
Q 3825 -50 3975 -50 
Q 4125 -50 4125 150 
L 4125 2000 
L 3350 2000 
Q 3025 2000 2750 1925 
L 2525 2150 
z
M 4775 1450 
Q 5750 775 5900 537 
Q 6050 300 6050 125 
Q 6050 -50 5975 -200 
Q 5900 -350 5850 -350 
Q 5775 -350 5725 -200 
Q 5625 75 5387 487 
Q 5150 900 4725 1375 
L 4775 1450 
z
M 3200 1525 
L 3675 1175 
L 3450 1050 
Q 2625 0 1925 -450 
L 1875 -375 
Q 2800 500 3200 1525 
z
" transform="scale(0.015625)"/>
      <path id="SimSun-5408" d="M 3575 4875 
L 3350 4750 
Q 3650 4225 4312 3662 
Q 4975 3100 6125 2825 
L 6125 2750 
Q 5750 2675 5600 2400 
Q 4500 3000 3962 3612 
Q 3425 4225 3250 4625 
Q 2575 3600 1887 3075 
Q 1200 2550 300 2225 
L 275 2325 
Q 1250 2825 1937 3500 
Q 2625 4175 3050 5225 
L 3575 4875 
z
M 1525 2700 
L 4025 2700 
L 4350 3025 
L 4825 2550 
L 2300 2550 
Q 2025 2550 1750 2475 
L 1525 2700 
z
M 1975 1500 
L 1975 100 
L 4375 100 
L 4375 1500 
L 1975 1500 
z
M 4725 1375 
Q 4725 250 4750 -325 
L 4375 -475 
L 4375 -50 
L 1975 -50 
L 1975 -375 
L 1600 -525 
Q 1625 100 1625 675 
Q 1625 1250 1600 1850 
L 1975 1650 
L 4325 1650 
L 4575 1900 
L 4925 1550 
L 4725 1375 
z
" transform="scale(0.015625)"/>
      <path id="SimSun-5bf9" d="M 400 4250 
L 2375 4250 
L 2575 4500 
L 3000 4150 
L 2750 3950 
Q 2400 2850 2075 2100 
Q 2575 1375 2675 1062 
Q 2775 750 2762 537 
Q 2750 325 2662 237 
Q 2575 150 2550 150 
Q 2450 150 2375 575 
Q 2250 1075 1925 1800 
Q 1675 1350 1275 875 
Q 875 400 250 -100 
L 225 25 
Q 675 450 1087 1037 
Q 1500 1625 1725 2100 
Q 1000 3125 675 3550 
L 750 3625 
Q 1300 3025 1850 2400 
Q 2100 3050 2375 4100 
L 1225 4100 
Q 900 4100 625 4025 
L 400 4250 
z
M 3600 125 
Q 4375 0 4537 25 
Q 4700 50 4700 225 
L 4700 3350 
L 3525 3350 
Q 3200 3350 2925 3275 
L 2700 3500 
L 4700 3500 
L 4700 4350 
Q 4700 4800 4675 5125 
L 5275 4825 
L 5050 4625 
L 5050 3500 
L 5325 3500 
L 5650 3825 
L 6125 3350 
L 5050 3350 
L 5050 50 
Q 5050 -375 4500 -600 
Q 4500 -300 3600 0 
L 3600 125 
z
M 3100 2775 
L 3175 2825 
Q 3700 2400 3812 2175 
Q 3925 1950 3925 1800 
Q 3925 1625 3800 1462 
Q 3675 1300 3650 1300 
Q 3550 1300 3525 1650 
Q 3450 2125 3100 2775 
z
" transform="scale(0.015625)"/>
      <path id="SimSun-6bd4" d="M 1050 3400 
Q 1050 4525 1025 5075 
L 1625 4800 
L 1400 4600 
L 1400 2925 
L 2400 2925 
L 2700 3225 
L 3150 2775 
L 1400 2775 
L 1400 350 
L 3050 925 
L 3100 825 
Q 1625 150 1250 -250 
L 950 175 
Q 1050 275 1050 525 
L 1050 3400 
z
M 3425 3825 
Q 3425 4575 3400 5125 
L 4025 4825 
L 3775 4625 
L 3775 2525 
Q 4300 2925 4712 3400 
Q 5125 3875 5275 4175 
L 5775 3700 
Q 5475 3650 5025 3250 
Q 4550 2850 3775 2375 
L 3775 425 
Q 3775 125 4100 125 
L 5125 125 
Q 5325 125 5400 350 
Q 5475 575 5500 1425 
L 5625 1425 
Q 5625 825 5712 550 
Q 5800 275 6000 175 
Q 5875 -25 5712 -112 
Q 5550 -200 5275 -200 
L 3975 -200 
Q 3425 -200 3425 275 
L 3425 3825 
z
" transform="scale(0.015625)"/>
     </defs>
     <use xlink:href="#SimSun-5404"/>
     <use xlink:href="#SimSun-65b9" transform="translate(100 0)"/>
     <use xlink:href="#SimSun-6cd5" transform="translate(200 0)"/>
     <use xlink:href="#SimSun-5fe0" transform="translate(300 0)"/>
     <use xlink:href="#SimSun-5b9e" transform="translate(400 0)"/>
     <use xlink:href="#SimSun-5ea6" transform="translate(500 0)"/>
     <use xlink:href="#SimSun-7efc" transform="translate(600 0)"/>
     <use xlink:href="#SimSun-5408" transform="translate(700 0)"/>
     <use xlink:href="#SimSun-5f97" transform="translate(800 0)"/>
     <use xlink:href="#SimSun-5206" transform="translate(900 0)"/>
     <use xlink:href="#SimSun-5bf9" transform="translate(1000 0)"/>
     <use xlink:href="#SimSun-6bd4" transform="translate(1100 0)"/>
    </g>
   </g>
   <g id="legend_1">
    <g id="patch_13">
     <path d="M 430.474063 58.100312 
L 552.475625 58.100312 
Q 554.475625 58.100312 554.475625 56.100312 
L 554.475625 28.7425 
Q 554.475625 26.7425 552.475625 26.7425 
L 430.474063 26.7425 
Q 428.474063 26.7425 428.474063 28.7425 
L 428.474063 56.100312 
Q 428.474063 58.100312 430.474063 58.100312 
z
" style="fill: #ffffff; opacity: 0.8; stroke: #cccccc; stroke-linejoin: miter"/>
    </g>
    <g id="patch_14">
     <path d="M 432.474063 37.822187 
L 452.474063 37.822187 
L 452.474063 30.822187 
L 432.474063 30.822187 
z
" style="fill: #4878cf; stroke: #ffffff; stroke-linejoin: miter"/>
    </g>
    <g id="text_22">
     <!-- SST-2（教育场景） -->
     <g transform="translate(460.474063 37.822187) scale(0.1 -0.1)">
      <defs>
       <path id="TimesNewRomanPSMT-54" d="M 3703 4238 
L 3750 3244 
L 3631 3244 
Q 3597 3506 3538 3619 
Q 3441 3800 3280 3886 
Q 3119 3972 2856 3972 
L 2259 3972 
L 2259 734 
Q 2259 344 2344 247 
Q 2463 116 2709 116 
L 2856 116 
L 2856 0 
L 1059 0 
L 1059 116 
L 1209 116 
Q 1478 116 1591 278 
Q 1659 378 1659 734 
L 1659 3972 
L 1150 3972 
Q 853 3972 728 3928 
Q 566 3869 450 3700 
Q 334 3531 313 3244 
L 194 3244 
L 244 4238 
L 3703 4238 
z
" transform="scale(0.015625)"/>
       <path id="SimSun-6559" d="M 1725 4175 
Q 1725 4750 1700 5225 
L 2250 4950 
L 2050 4775 
L 2050 4175 
L 2250 4175 
L 2475 4400 
L 2850 4025 
L 2050 4025 
L 2050 3325 
L 2375 3325 
Q 2675 3750 2887 4112 
Q 3100 4475 3175 4675 
L 3625 4300 
L 3400 4225 
Q 3050 3725 2725 3325 
L 3025 3325 
L 3300 3600 
L 3725 3175 
L 2650 3175 
Q 2350 2850 2100 2575 
L 2700 2575 
L 2925 2800 
L 3300 2400 
Q 2825 2325 2225 1775 
L 2475 1600 
L 2275 1450 
L 2275 1225 
L 3550 1475 
L 3575 1375 
L 2275 1025 
L 2275 -75 
Q 2275 -500 1775 -650 
Q 1750 -350 1150 -175 
L 1150 -75 
Q 1750 -175 1850 -150 
Q 1950 -125 1950 25 
L 1950 950 
Q 825 650 750 500 
L 500 950 
Q 775 950 1950 1175 
Q 1950 1500 1925 1950 
L 2125 1825 
L 2675 2425 
L 1975 2425 
Q 1350 1850 425 1375 
L 350 1450 
Q 975 1800 1625 2425 
L 1150 2425 
L 925 2375 
L 725 2575 
L 1750 2575 
Q 2000 2825 2275 3175 
L 750 3175 
L 525 3125 
L 325 3325 
L 1725 3325 
L 1725 4025 
L 1125 4025 
L 900 3975 
L 700 4175 
L 1725 4175 
z
M 4200 3525 
L 4075 3225 
Q 4300 1850 4625 1200 
Q 5050 2125 5150 3525 
L 4200 3525 
z
M 4850 4975 
L 4625 4825 
Q 4425 4150 4250 3675 
L 5375 3675 
L 5675 3975 
L 6125 3525 
L 5500 3525 
Q 5325 1775 4800 900 
Q 5425 0 6150 -175 
L 6150 -275 
Q 5775 -275 5675 -525 
Q 5075 -100 4600 650 
Q 3775 -225 2575 -625 
L 2525 -550 
Q 3675 -75 4450 925 
Q 4050 1925 4000 3100 
Q 3750 2475 3350 1950 
L 3275 2000 
Q 3950 3250 4275 5250 
L 4850 4975 
z
" transform="scale(0.015625)"/>
       <path id="SimSun-80b2" d="M 2800 5200 
Q 3350 5000 3425 4887 
Q 3500 4775 3500 4700 
Q 3500 4575 3350 4400 
L 5075 4400 
L 5425 4750 
L 5875 4250 
L 2825 4250 
L 3175 4000 
Q 2925 3975 2525 3725 
Q 2100 3475 1600 3225 
L 4625 3275 
Q 4275 3600 3850 3825 
L 3900 3900 
Q 4325 3775 4775 3587 
Q 5225 3400 5275 3250 
Q 5325 3100 5325 3050 
Q 5325 2975 5275 2837 
Q 5225 2700 5150 2700 
Q 5100 2700 5050 2775 
Q 4925 2950 4725 3175 
Q 3900 3125 2812 3025 
Q 1725 2925 1475 2825 
L 1225 3300 
Q 1575 3350 2000 3675 
Q 2425 4000 2650 4250 
L 1325 4250 
Q 1000 4250 725 4175 
L 500 4400 
L 3175 4400 
Q 3125 4750 2750 5150 
L 2800 5200 
z
M 1975 2375 
L 1975 1700 
L 4475 1700 
L 4475 2375 
L 1975 2375 
z
M 1975 1550 
L 1975 900 
L 4475 900 
L 4475 1550 
L 1975 1550 
z
M 3500 25 
Q 4150 -25 4312 -12 
Q 4475 0 4475 225 
L 4475 750 
L 1975 750 
L 1975 -475 
L 1600 -650 
Q 1625 150 1625 1287 
Q 1625 2425 1600 2750 
L 1975 2525 
L 4450 2525 
L 4600 2775 
L 5000 2500 
L 4825 2325 
L 4825 25 
Q 4850 -425 4300 -600 
Q 4300 -200 3500 -75 
L 3500 25 
z
" transform="scale(0.015625)"/>
       <path id="SimSun-573a" d="M 5375 2775 
L 5625 3025 
L 6000 2650 
L 5775 2500 
Q 5675 775 5575 300 
Q 5475 -175 5237 -362 
Q 5000 -550 4775 -625 
Q 4675 -225 3975 0 
L 4000 100 
Q 4450 0 4787 -37 
Q 5125 -75 5225 450 
Q 5325 975 5425 2625 
L 4900 2625 
Q 4600 1225 3850 500 
Q 3100 -225 2025 -575 
L 2000 -475 
Q 3000 -25 3637 725 
Q 4275 1475 4500 2625 
L 3950 2625 
Q 3750 1975 3350 1387 
Q 2950 800 1975 300 
L 1925 400 
Q 2525 775 2950 1350 
Q 3375 1925 3550 2625 
L 2975 2625 
L 2750 2475 
L 2475 2825 
L 2750 2925 
Q 3725 3750 4550 4625 
L 2975 4625 
L 2700 4575 
L 2500 4775 
L 4550 4775 
L 4800 5025 
L 5200 4675 
L 4950 4550 
Q 3975 3550 3025 2775 
L 5375 2775 
z
M 1675 1250 
L 2725 1725 
L 2750 1625 
Q 925 600 550 250 
L 225 700 
Q 625 825 1300 1100 
L 1300 3250 
L 1100 3250 
Q 775 3250 500 3175 
L 275 3400 
L 1300 3400 
L 1300 4225 
Q 1300 4650 1275 5175 
L 1900 4875 
L 1675 4650 
L 1675 3400 
L 2050 3400 
L 2325 3675 
L 2750 3250 
L 1675 3250 
L 1675 1250 
z
" transform="scale(0.015625)"/>
       <path id="SimSun-666f" d="M 4075 900 
Q 4950 550 5387 300 
Q 5825 50 5775 -187 
Q 5725 -425 5625 -425 
Q 5525 -425 5350 -225 
Q 5025 175 4025 825 
L 4075 900 
z
M 2900 3425 
L 2950 3475 
Q 3350 3350 3487 3250 
Q 3625 3150 3625 3075 
Q 3625 2975 3500 2825 
L 5200 2825 
L 5625 3175 
L 6075 2675 
L 1175 2675 
Q 850 2675 575 2600 
L 350 2825 
L 3300 2825 
Q 3250 3125 2900 3425 
z
M 2000 2125 
L 2000 1425 
L 4500 1425 
L 4500 2125 
L 2000 2125 
z
M 2250 -25 
Q 2875 -150 3000 -112 
Q 3125 -75 3125 75 
L 3125 1275 
L 2000 1275 
L 2000 1175 
L 1650 1025 
Q 1675 1725 1650 2475 
L 2025 2275 
L 4450 2275 
L 4675 2500 
L 5050 2200 
L 4825 2050 
Q 4825 1475 4850 1175 
L 4500 1050 
L 4500 1275 
L 3475 1275 
L 3475 -75 
Q 3425 -500 2925 -650 
Q 2925 -350 2250 -125 
L 2250 -25 
z
M 2100 1025 
L 2525 600 
L 2250 575 
Q 2125 475 1587 175 
Q 1050 -125 400 -350 
L 350 -250 
Q 950 0 1475 412 
Q 2000 825 2100 1025 
z
M 1900 4725 
L 1900 4275 
L 4625 4275 
L 4625 4725 
L 1900 4725 
z
M 1900 4125 
L 1900 3650 
L 4625 3650 
L 4625 4125 
L 1900 4125 
z
M 1525 3150 
Q 1550 3675 1550 4162 
Q 1550 4650 1525 5100 
L 1925 4875 
L 4575 4875 
L 4775 5125 
L 5150 4800 
L 4975 4650 
Q 4975 4325 4975 4050 
Q 4975 3775 5000 3400 
L 4625 3250 
L 4625 3500 
L 1900 3500 
L 1900 3325 
L 1525 3150 
z
" transform="scale(0.015625)"/>
      </defs>
      <use xlink:href="#TimesNewRomanPSMT-53"/>
      <use xlink:href="#TimesNewRomanPSMT-53" transform="translate(55.615234 0)"/>
      <use xlink:href="#TimesNewRomanPSMT-54" transform="translate(111.230469 0)"/>
      <use xlink:href="#TimesNewRomanPSMT-2d" transform="translate(163.189453 0)"/>
      <use xlink:href="#TimesNewRomanPSMT-32" transform="translate(196.490234 0)"/>
      <use xlink:href="#SimSun-ff08" transform="translate(246.490234 0)"/>
      <use xlink:href="#SimSun-6559" transform="translate(346.490234 0)"/>
      <use xlink:href="#SimSun-80b2" transform="translate(446.490234 0)"/>
      <use xlink:href="#SimSun-573a" transform="translate(546.490234 0)"/>
      <use xlink:href="#SimSun-666f" transform="translate(646.490234 0)"/>
      <use xlink:href="#SimSun-ff09" transform="translate(746.490234 0)"/>
     </g>
    </g>
    <g id="patch_15">
     <path d="M 432.474063 51.96125 
L 452.474063 51.96125 
L 452.474063 44.96125 
L 432.474063 44.96125 
z
" style="fill: #e07b39; stroke: #ffffff; stroke-linejoin: miter"/>
    </g>
    <g id="text_23">
     <!-- CWRU（工程场景） -->
     <g transform="translate(460.474063 51.96125) scale(0.1 -0.1)">
      <defs>
       <path id="TimesNewRomanPSMT-57" d="M 5991 4238 
L 5991 4122 
Q 5825 4122 5722 4062 
Q 5619 4003 5525 3841 
Q 5463 3731 5328 3319 
L 4147 -97 
L 4022 -97 
L 3056 2613 
L 2097 -97 
L 1984 -97 
L 725 3422 
Q 584 3816 547 3888 
Q 484 4006 376 4064 
Q 269 4122 84 4122 
L 84 4238 
L 1653 4238 
L 1653 4122 
L 1578 4122 
Q 1413 4122 1325 4047 
Q 1238 3972 1238 3866 
Q 1238 3756 1375 3363 
L 2209 984 
L 2913 3006 
L 2788 3363 
L 2688 3647 
Q 2622 3803 2541 3922 
Q 2500 3981 2441 4022 
Q 2363 4078 2284 4103 
Q 2225 4122 2097 4122 
L 2097 4238 
L 3747 4238 
L 3747 4122 
L 3634 4122 
Q 3459 4122 3378 4047 
Q 3297 3972 3297 3844 
Q 3297 3684 3438 3288 
L 4250 984 
L 5056 3319 
Q 5194 3706 5194 3856 
Q 5194 3928 5148 3990 
Q 5103 4053 5034 4078 
Q 4916 4122 4725 4122 
L 4725 4238 
L 5991 4238 
z
" transform="scale(0.015625)"/>
       <path id="TimesNewRomanPSMT-52" d="M 4325 0 
L 3194 0 
L 1759 1981 
Q 1600 1975 1500 1975 
Q 1459 1975 1412 1976 
Q 1366 1978 1316 1981 
L 1316 750 
Q 1316 350 1403 253 
Q 1522 116 1759 116 
L 1925 116 
L 1925 0 
L 109 0 
L 109 116 
L 269 116 
Q 538 116 653 291 
Q 719 388 719 750 
L 719 3488 
Q 719 3888 631 3984 
Q 509 4122 269 4122 
L 109 4122 
L 109 4238 
L 1653 4238 
Q 2328 4238 2648 4139 
Q 2969 4041 3192 3777 
Q 3416 3513 3416 3147 
Q 3416 2756 3161 2468 
Q 2906 2181 2372 2063 
L 3247 847 
Q 3547 428 3762 290 
Q 3978 153 4325 116 
L 4325 0 
z
M 1316 2178 
Q 1375 2178 1419 2176 
Q 1463 2175 1491 2175 
Q 2097 2175 2405 2437 
Q 2713 2700 2713 3106 
Q 2713 3503 2464 3751 
Q 2216 4000 1806 4000 
Q 1625 4000 1316 3941 
L 1316 2178 
z
" transform="scale(0.015625)"/>
       <path id="SimSun-5de5" d="M 675 4350 
L 4825 4350 
L 5200 4725 
L 5725 4200 
L 3375 4200 
L 3375 125 
L 5050 125 
L 5475 550 
L 6050 -25 
L 1150 -25 
Q 825 -25 550 -100 
L 325 125 
L 3000 125 
L 3000 4200 
L 1500 4200 
Q 1175 4200 900 4125 
L 675 4350 
z
" transform="scale(0.015625)"/>
       <path id="SimSun-7a0b" d="M 3050 2750 
Q 3075 3325 3075 3887 
Q 3075 4450 3050 5000 
L 3425 4775 
L 5250 4775 
L 5475 5000 
L 5825 4650 
L 5600 4500 
Q 5600 3350 5625 3000 
L 5275 2875 
L 5275 3175 
L 3400 3175 
L 3400 2900 
L 3050 2750 
z
M 3400 4625 
L 3400 3325 
L 5275 3325 
L 5275 4625 
L 3400 4625 
z
M 2725 2425 
L 5325 2425 
L 5600 2700 
L 6000 2275 
L 4475 2275 
L 4475 1200 
L 5200 1200 
L 5475 1475 
L 5875 1050 
L 4475 1050 
L 4475 -100 
L 5450 -100 
L 5750 200 
L 6175 -250 
L 3175 -250 
Q 2850 -250 2575 -325 
L 2350 -100 
L 4150 -100 
L 4150 1050 
L 3700 1050 
Q 3375 1050 3100 975 
L 2875 1200 
L 4150 1200 
L 4150 2275 
L 3550 2275 
Q 3225 2275 2950 2200 
L 2725 2425 
z
M 1475 4525 
Q 1150 4475 425 4400 
L 425 4500 
Q 900 4575 1537 4775 
Q 2175 4975 2375 5150 
L 2700 4700 
Q 2475 4700 1800 4575 
L 1800 3325 
L 2175 3325 
L 2450 3600 
L 2850 3175 
L 1800 3175 
L 1800 2700 
Q 2325 2475 2487 2312 
Q 2650 2150 2650 2000 
Q 2650 1875 2587 1762 
Q 2525 1650 2475 1650 
Q 2400 1650 2300 1900 
Q 2150 2275 1800 2600 
Q 1800 0 1825 -450 
L 1450 -625 
Q 1475 325 1475 2275 
Q 1025 1125 300 350 
L 250 425 
Q 750 1200 1025 1925 
Q 1300 2650 1400 3175 
L 1050 3175 
Q 725 3175 450 3100 
L 225 3325 
L 1475 3325 
L 1475 4525 
z
" transform="scale(0.015625)"/>
      </defs>
      <use xlink:href="#TimesNewRomanPSMT-43"/>
      <use xlink:href="#TimesNewRomanPSMT-57" transform="translate(66.699219 0)"/>
      <use xlink:href="#TimesNewRomanPSMT-52" transform="translate(161.083984 0)"/>
      <use xlink:href="#TimesNewRomanPSMT-55" transform="translate(227.783203 0)"/>
      <use xlink:href="#SimSun-ff08" transform="translate(300 0)"/>
      <use xlink:href="#SimSun-5de5" transform="translate(400 0)"/>
      <use xlink:href="#SimSun-7a0b" transform="translate(500 0)"/>
      <use xlink:href="#SimSun-573a" transform="translate(600 0)"/>
      <use xlink:href="#SimSun-666f" transform="translate(700 0)"/>
      <use xlink:href="#SimSun-ff09" transform="translate(800 0)"/>
     </g>
    </g>
   </g>
  </g>
 </g>
 <defs>
  <clipPath id="pe613850600">
   <rect x="42.119375" y="21.7425" width="517.35625" height="303.99125"/>
  </clipPath>
 </defs>
</svg>
